<?xml version="1.0" encoding="UTF-8"?>
<!DOCTYPE svg PUBLIC "-//W3C//DTD SVG 1.1//EN" "http://www.w3.org/Graphics/SVG/1.1/DTD/svg11.dtd">
<svg xmlns="http://www.w3.org/2000/svg" version="1.1" width="375px" height="220px" style="shape-rendering:geometricPrecision; text-rendering:geometricPrecision; image-rendering:optimizeQuality; fill-rule:evenodd; clip-rule:evenodd" xmlns:xlink="http://www.w3.org/1999/xlink">
<g><path style="opacity:1" fill="#9287c2" d="M 21.5,-0.5 C 59.8333,-0.5 98.1667,-0.5 136.5,-0.5C 144.782,12.5802 150.782,26.7468 154.5,42C 155.601,46.1774 156.934,50.6774 158.5,55.5C 158.392,56.4419 158.059,57.2753 157.5,58C 160.5,66.1529 164.333,74.3195 169,82.5C 179.245,94.457 191.911,101.79 207,104.5C 212.689,105.741 218.355,107.075 224,108.5C 226.003,107.783 228.169,107.45 230.5,107.5C 237.463,108.29 244.463,108.957 251.5,109.5C 275.433,108.194 299.266,106.194 323,103.5C 328.88,103.739 334.714,103.739 340.5,103.5C 341.647,103.818 342.481,104.484 343,105.5C 344.231,104.892 345.564,104.559 347,104.5C 355.987,105.636 364.82,107.136 373.5,109C 372.584,109.278 371.918,109.778 371.5,110.5C 355.874,106.794 340.207,106.628 324.5,110C 301.306,115.286 278.973,122.953 257.5,133C 236.112,141.027 214.112,146.693 191.5,150C 166.666,153.511 146.833,145.344 132,125.5C 121.346,106.354 108.846,88.521 94.5,72C 75.9253,57.5783 54.9253,48.5783 31.5,45C 20.8421,43.9879 10.1754,43.1545 -0.5,42.5C -0.5,37.1667 -0.5,31.8333 -0.5,26.5C 2.46034,23.9003 3.79367,20.567 3.5,16.5C 4.10978,15.609 4.44312,14.609 4.5,13.5C 5.90632,13.0269 6.57298,12.0269 6.5,10.5C 7.83333,9.83333 8.83333,8.83333 9.5,7.5C 11.7488,6.92022 13.4154,5.58689 14.5,3.5C 17.491,3.83372 19.8243,2.83372 21.5,0.5C 21.5,0.166667 21.5,-0.166667 21.5,-0.5 Z"/></g>
<g><path style="opacity:1" fill="#9080c1" d="M 136.5,-0.5 C 206.5,-0.5 276.5,-0.5 346.5,-0.5C 348.78,1.22267 351.447,1.88934 354.5,1.5C 356.553,1.40206 358.22,2.06873 359.5,3.5C 361.305,5.73388 363.138,8.06721 365,10.5C 365.383,9.94404 365.883,9.61071 366.5,9.5C 366.738,11.4044 367.738,12.7377 369.5,13.5C 371.539,14.911 372.539,16.911 372.5,19.5C 372.259,21.8984 372.926,23.8984 374.5,25.5C 374.5,54.1667 374.5,82.8333 374.5,111.5C 373.391,111.443 372.391,111.11 371.5,110.5C 371.918,109.778 372.584,109.278 373.5,109C 364.82,107.136 355.987,105.636 347,104.5C 345.564,104.559 344.231,104.892 343,105.5C 342.481,104.484 341.647,103.818 340.5,103.5C 334.714,103.739 328.88,103.739 323,103.5C 299.266,106.194 275.433,108.194 251.5,109.5C 244.463,108.957 237.463,108.29 230.5,107.5C 228.169,107.45 226.003,107.783 224,108.5C 218.355,107.075 212.689,105.741 207,104.5C 191.911,101.79 179.245,94.457 169,82.5C 164.333,74.3195 160.5,66.1529 157.5,58C 158.059,57.2753 158.392,56.4419 158.5,55.5C 156.934,50.6774 155.601,46.1774 154.5,42C 150.782,26.7468 144.782,12.5802 136.5,-0.5 Z"/></g>
<g><path style="opacity:0.89" fill="#bdb3d7" d="M 346.5,-0.5 C 348.167,-0.5 349.833,-0.5 351.5,-0.5C 352.5,0.166667 353.5,0.833333 354.5,1.5C 351.447,1.88934 348.78,1.22267 346.5,-0.5 Z"/></g>
<g><path style="opacity:0.98" fill="#b7b1cc" d="M 21.5,0.5 C 19.8243,2.83372 17.491,3.83372 14.5,3.5C 16.5093,1.93482 18.8427,0.934823 21.5,0.5 Z"/></g>
<g><path style="opacity:0.945" fill="#b8b3cc" d="M 14.5,3.5 C 13.4154,5.58689 11.7488,6.92022 9.5,7.5C 10.5846,5.41311 12.2512,4.07978 14.5,3.5 Z"/></g>
<g><path style="opacity:1" fill="#ada3c8" d="M 359.5,3.5 C 362.447,4.7805 364.781,6.7805 366.5,9.5C 365.883,9.61071 365.383,9.94404 365,10.5C 363.138,8.06721 361.305,5.73388 359.5,3.5 Z"/></g>
<g><path style="opacity:0.58" fill="#dad8e5" d="M 9.5,7.5 C 8.83333,8.83333 7.83333,9.83333 6.5,10.5C 6.5,8.5 7.5,7.5 9.5,7.5 Z"/></g>
<g><path style="opacity:0.882" fill="#c5c0d5" d="M 6.5,10.5 C 6.57298,12.0269 5.90632,13.0269 4.5,13.5C 4.42702,11.9731 5.09368,10.9731 6.5,10.5 Z"/></g>
<g><path style="opacity:0.82" fill="#bfb7d4" d="M 366.5,9.5 C 368.262,10.2623 369.262,11.5956 369.5,13.5C 367.738,12.7377 366.738,11.4044 366.5,9.5 Z"/></g>
<g><path style="opacity:0.635" fill="#c9c5d9" d="M 4.5,13.5 C 4.44312,14.609 4.10978,15.609 3.5,16.5C 3.16667,16.5 2.83333,16.5 2.5,16.5C 2.42702,14.9731 3.09368,13.9731 4.5,13.5 Z"/></g>
<g><path style="opacity:0.996" fill="#a9a1c6" d="M 2.5,16.5 C 2.83333,16.5 3.16667,16.5 3.5,16.5C 3.79367,20.567 2.46034,23.9003 -0.5,26.5C -0.5,25.1667 -0.5,23.8333 -0.5,22.5C 0.202776,20.3713 1.20278,18.3713 2.5,16.5 Z"/></g>
<g><path style="opacity:0.863" fill="#c6bfd6" d="M 372.5,19.5 C 373.167,20.5 373.833,21.5 374.5,22.5C 374.5,23.5 374.5,24.5 374.5,25.5C 372.926,23.8984 372.259,21.8984 372.5,19.5 Z"/></g>
<g><path style="opacity:0.999" fill="#c4b7fd" d="M -0.5,42.5 C 10.1754,43.1545 20.8421,43.9879 31.5,45C 54.9253,48.5783 75.9253,57.5783 94.5,72C 108.846,88.521 121.346,106.354 132,125.5C 146.833,145.344 166.666,153.511 191.5,150C 214.112,146.693 236.112,141.027 257.5,133C 278.973,122.953 301.306,115.286 324.5,110C 340.207,106.628 355.874,106.794 371.5,110.5C 372.391,111.11 373.391,111.443 374.5,111.5C 374.5,112.167 374.5,112.833 374.5,113.5C 354.516,111.204 335.683,114.87 318,124.5C 317.667,124.167 317.333,123.833 317,123.5C 301.286,132.517 285.786,142.85 270.5,154.5C 248.528,169.836 224.695,182.503 199,192.5C 198,192.167 197,191.833 196,191.5C 179.066,197.657 162.899,195.824 147.5,186C 132.808,172.328 118.141,158.661 103.5,145C 83.3167,130.544 60.9834,123.711 36.5,124.5C 29.6236,125.073 23.1236,125.073 17,124.5C 16.5,125 16,125.5 15.5,126C 10.2074,126.977 4.87412,127.477 -0.5,127.5C -0.5,99.1667 -0.5,70.8333 -0.5,42.5 Z"/></g>
<g><path style="opacity:0.999" fill="#d5cbfd" d="M 374.5,117.5 C 374.5,142.833 374.5,168.167 374.5,193.5C 373.167,193.5 371.833,193.5 370.5,193.5C 370.664,196.187 370.497,198.854 370,201.5C 368.711,204.168 367.544,206.835 366.5,209.5C 365.215,211.452 363.549,213.118 361.5,214.5C 357.361,214.248 354.028,215.582 351.5,218.5C 310.167,218.5 268.833,218.5 227.5,218.5C 232.967,215.243 237.967,211.243 242.5,206.5C 245.833,201.833 249.833,197.833 254.5,194.5C 255.098,193.205 255.598,191.872 256,190.5C 256.741,191.641 257.575,191.641 258.5,190.5C 271.829,175.837 285.496,161.504 299.5,147.5C 304.699,144.405 309.699,141.072 314.5,137.5C 315.228,135.807 316.228,134.307 317.5,133C 326.126,128.867 334.293,124.034 342,118.5C 344.66,119.416 346.994,118.749 349,116.5C 357.371,116.343 365.871,116.676 374.5,117.5 Z"/></g>
<g><path style="opacity:1" fill="#ccc1fd" d="M 374.5,113.5 C 374.5,114.833 374.5,116.167 374.5,117.5C 365.871,116.676 357.371,116.343 349,116.5C 346.994,118.749 344.66,119.416 342,118.5C 334.293,124.034 326.126,128.867 317.5,133C 316.228,134.307 315.228,135.807 314.5,137.5C 309.699,141.072 304.699,144.405 299.5,147.5C 285.496,161.504 271.829,175.837 258.5,190.5C 257.575,191.641 256.741,191.641 256,190.5C 255.598,191.872 255.098,193.205 254.5,194.5C 249.833,197.833 245.833,201.833 242.5,206.5C 237.967,211.243 232.967,215.243 227.5,218.5C 194.833,218.5 162.167,218.5 129.5,218.5C 127.083,215.78 124.083,213.78 120.5,212.5C 118.862,211.295 118.529,209.962 119.5,208.5C 115.808,207.748 112.142,206.914 108.5,206C 91.3172,195.831 72.6505,192.164 52.5,195C 46.2765,196.038 40.1098,197.205 34,198.5C 33.6667,198.167 33.3333,197.833 33,197.5C 25.3172,201.441 17.4838,204.441 9.5,206.5C 8.16667,206.5 6.83333,206.5 5.5,206.5C 5.53235,204.381 4.53235,203.048 2.5,202.5C 2.66331,200.143 2.49665,197.81 2,195.5C 1.2917,194.619 0.458367,193.953 -0.5,193.5C -0.5,171.5 -0.5,149.5 -0.5,127.5C 4.87412,127.477 10.2074,126.977 15.5,126C 16,125.5 16.5,125 17,124.5C 23.1236,125.073 29.6236,125.073 36.5,124.5C 60.9834,123.711 83.3167,130.544 103.5,145C 118.141,158.661 132.808,172.328 147.5,186C 162.899,195.824 179.066,197.657 196,191.5C 197,191.833 198,192.167 199,192.5C 224.695,182.503 248.528,169.836 270.5,154.5C 285.786,142.85 301.286,132.517 317,123.5C 317.333,123.833 317.667,124.167 318,124.5C 335.683,114.87 354.516,111.204 374.5,113.5 Z"/></g>
<g><path style="opacity:1" fill="#ded7f7" d="M 374.5,193.5 C 374.5,194.833 374.5,196.167 374.5,197.5C 372.838,202.154 370.171,206.154 366.5,209.5C 367.544,206.835 368.711,204.168 370,201.5C 370.497,198.854 370.664,196.187 370.5,193.5C 371.833,193.5 373.167,193.5 374.5,193.5 Z"/></g>
<g><path style="opacity:0.999" fill="#e0daf6" d="M -0.5,193.5 C 0.458367,193.953 1.2917,194.619 2,195.5C 2.49665,197.81 2.66331,200.143 2.5,202.5C 1.31271,200.928 0.312714,199.261 -0.5,197.5C -0.5,196.167 -0.5,194.833 -0.5,193.5 Z"/></g>
<g><path style="opacity:0.999" fill="#d5cbfd" d="M 129.5,218.5 C 94.1651,218.667 58.8318,218.5 23.5,218C 20.2061,215.57 16.8728,213.903 13.5,213C 12.8333,211.667 12.1667,210.333 11.5,209C 13.7015,208.223 13.7015,207.056 11.5,205.5C 10.8165,205.863 10.1499,206.196 9.5,206.5C 17.4838,204.441 25.3172,201.441 33,197.5C 33.3333,197.833 33.6667,198.167 34,198.5C 40.1098,197.205 46.2765,196.038 52.5,195C 72.6505,192.164 91.3172,195.831 108.5,206C 112.142,206.914 115.808,207.748 119.5,208.5C 118.529,209.962 118.862,211.295 120.5,212.5C 124.083,213.78 127.083,215.78 129.5,218.5 Z"/></g>
<g><path style="opacity:1" fill="#e3dff6" d="M 361.5,214.5 C 358.63,216.794 355.297,218.128 351.5,218.5C 354.028,215.582 357.361,214.248 361.5,214.5 Z"/></g>
<g><path style="opacity:0.897" fill="#d9d2f4" d="M 2.5,202.5 C 4.53235,203.048 5.53235,204.381 5.5,206.5C 6.83333,206.5 8.16667,206.5 9.5,206.5C 10.1499,206.196 10.8165,205.863 11.5,205.5C 13.7015,207.056 13.7015,208.223 11.5,209C 12.1667,210.333 12.8333,211.667 13.5,213C 16.8728,213.903 20.2061,215.57 23.5,218C 58.8318,218.5 94.1651,218.667 129.5,218.5C 162.167,218.5 194.833,218.5 227.5,218.5C 268.833,218.5 310.167,218.5 351.5,218.5C 351.5,218.833 351.5,219.167 351.5,219.5C 241.833,219.5 132.167,219.5 22.5,219.5C 13.3841,216.718 6.71741,211.051 2.5,202.5 Z"/></g>
</svg>
