<svg width="500" height="436" viewBox="0 0 500 436" fill="none" xmlns="http://www.w3.org/2000/svg">
<g clip-path="url(#clip0_1_300)">
<path d="M24.1262 148.575L0.0174786 135.046C-0.307722 120.57 2.91839 106.235 9.41569 93.2842C14.9741 118.42 44.226 130.379 57.7224 152.326C61.8792 159.203 64.4294 166.924 65.1842 174.917C65.9389 182.91 64.8788 190.969 62.0823 198.498L63.6679 217.987C51.2077 214.268 39.7046 207.903 29.9513 199.328C20.198 190.754 12.4263 180.175 7.17169 168.32C4.28998 161.64 2.26401 154.625 1.1416 147.441C12.3821 148.633 24.1262 148.575 24.1262 148.575Z" fill="#F2F2F2"/>
<path d="M457.521 394.712L458.26 378.151C465.967 374.046 474.562 371.878 483.301 371.835C471.274 381.632 472.777 400.516 464.623 413.69C462.049 417.78 458.583 421.24 454.484 423.813C450.385 426.387 445.757 428.009 440.944 428.558L430.879 434.698C429.498 427.027 429.803 419.149 431.772 411.607C433.741 404.065 437.327 397.038 442.285 391.01C445.099 387.656 448.326 384.668 451.89 382.117C454.301 388.45 457.521 394.712 457.521 394.712Z" fill="#E6E6E6"/>
<path d="M431.589 426.175L422.476 426.174L418.141 391.152L431.591 391.153L431.589 426.175Z" fill="#FFB6B6"/>
<path d="M433.913 434.976L404.529 434.975V434.605C404.53 431.583 405.735 428.684 407.879 426.547C410.024 424.41 412.933 423.21 415.966 423.209H415.967L421.335 419.152L431.349 423.21L433.914 423.21L433.913 434.976Z" fill="#2F2E41"/>
<path d="M389.251 426.175L380.138 426.174L375.803 391.152L389.254 391.153L389.251 426.175Z" fill="#FFB6B6"/>
<path d="M391.576 434.976L362.192 434.975V434.605C362.192 431.583 363.397 428.684 365.542 426.547C367.687 424.41 370.596 423.21 373.629 423.209H373.63L378.997 419.152L389.011 423.21L391.576 423.21L391.576 434.976Z" fill="#2F2E41"/>
<path d="M385.307 234.707L444.583 236.183C455.84 242.276 456.011 255.462 452.323 271.117C452.323 271.117 453.568 280.422 451.077 282.903C448.587 285.385 447.342 285.385 448.587 289.727C449.832 294.069 443.253 301.162 444.052 301.958C444.851 302.754 446.719 307.096 446.719 307.096L440.493 342.456C440.493 342.456 436.135 403.869 434.889 405.11C433.644 406.35 432.399 405.11 433.644 408.211C434.889 411.313 436.135 410.072 434.889 411.313C433.786 412.498 432.747 413.74 431.776 415.035H416.723C416.723 415.035 415.589 408.832 415.589 408.211C415.589 407.591 414.343 403.869 414.343 403.249C414.343 402.628 415.444 401.532 415.444 401.532C415.824 400.271 416.081 398.976 416.211 397.666C416.211 396.425 419.947 348.659 419.947 348.659L412.475 286.625L394.42 347.418C394.42 347.418 394.42 400.767 393.175 402.008C391.929 403.249 391.929 402.628 392.552 405.11C393.175 407.591 395.665 406.971 393.797 408.832C391.929 410.693 391.307 407.591 391.929 410.693L392.552 413.794L373.874 414.06C373.874 414.06 371.383 408.832 372.628 406.971C373.874 405.11 373.799 405.618 372.28 402.572C370.76 399.527 370.138 398.906 370.76 398.286C371.383 397.666 371.383 394.366 371.383 394.366L374.496 335.012C374.496 335.012 375.119 272.358 375.119 270.497C375.166 269.539 374.989 268.584 374.602 267.706V265.18L376.987 256.229L385.307 234.707Z" fill="#69687F"/>
<path d="M420.915 111.904C431.086 111.904 439.332 103.688 439.332 93.554C439.332 83.4196 431.086 75.2041 420.915 75.2041C410.743 75.2041 402.498 83.4196 402.498 93.554C402.498 103.688 410.743 111.904 420.915 111.904Z" fill="#FFB6B6"/>
<path d="M411.706 124.032C407.738 126.382 405.365 130.7 404.002 135.094C401.48 143.23 399.961 151.641 399.481 160.142L398.042 185.593L380.219 239.785C395.665 252.807 453.727 242.745 453.727 242.745C453.727 242.745 455.509 242.153 453.727 240.377C451.944 238.601 450.209 240.174 451.992 238.398C453.774 236.623 452.545 238.601 451.951 236.825C451.357 235.049 451.951 236.233 452.545 235.641C453.139 235.049 447.946 229.722 447.946 229.722L452.699 198.615L458.64 135.87C451.511 126.991 437.173 121.757 437.173 121.757L433.468 115.113L414.945 116.59L411.706 124.032Z" fill="#130160"/>
<path d="M409.18 82.785C409.893 82.7906 410.602 82.8833 411.292 83.0611C412.652 83.3869 414.033 83.6177 415.426 83.7518C419.689 84.1514 423.695 85.9631 426.804 88.8974C429.913 91.8317 431.946 95.7194 432.577 99.9395C433.647 99.0099 436.082 97.2999 438.078 98.8891C438.109 98.9144 438.126 98.9274 438.197 98.8942C439.522 98.2677 441.875 90.5559 441.946 83.7658C441.984 80.1619 441.415 75.5598 438.489 74.1025L438.335 74.0257L438.295 73.8588C438.099 73.0481 435.915 71.6643 432.12 70.5872C425.223 68.6299 414.942 64.817 409.153 70.4283C408.715 72.3201 407.289 76.3684 405.849 76.8272C404.255 77.3351 402.878 77.7734 402.661 79.7221C402.48 82.4952 402.493 85.2776 402.7 88.0489C403.241 86.3531 404.301 84.8688 405.733 83.8051C406.75 83.1224 407.953 82.7665 409.18 82.785V82.785Z" fill="#2F2E41"/>
<path d="M374.9 184.176L404.985 164.979L389.832 144.91L374.87 163.248L328.251 166.097C327.025 164.889 325.472 164.063 323.783 163.719C322.094 163.375 320.341 163.529 318.737 164.16C317.134 164.792 315.75 165.875 314.754 167.277C313.757 168.679 313.192 170.34 313.127 172.056C313.061 173.773 313.498 175.471 314.385 176.945C315.272 178.418 316.569 179.602 318.12 180.353C319.671 181.105 321.407 181.39 323.118 181.175C324.828 180.96 326.439 180.253 327.754 179.142L374.9 184.176Z" fill="#FFB6B6"/>
<path d="M432.908 138.185C434.654 148.713 401.68 168.818 401.68 168.818C401.68 166.347 381.999 185.003 381.111 182.953C378.586 177.129 376.811 163.332 373.283 161.124C371.266 159.861 385.434 147.997 385.434 147.997C385.434 147.997 392.851 140.553 402.583 131.163C405.285 128.458 408.631 126.478 412.308 125.407C415.984 124.336 419.874 124.209 423.613 125.039C423.613 125.039 431.161 127.656 432.908 138.185Z" fill="#130160"/>
<path d="M494.916 189.215L475.017 159.653L455.199 175.172L473.917 189.688L477.763 236.066C476.577 237.313 475.781 238.877 475.472 240.567C475.162 242.257 475.353 244 476.021 245.584C476.689 247.167 477.805 248.523 479.233 249.486C480.661 250.449 482.339 250.977 484.063 251.006C485.787 251.034 487.482 250.563 488.942 249.649C490.401 248.734 491.562 247.416 492.283 245.856C493.004 244.295 493.254 242.56 493.002 240.86C492.749 239.161 492.006 237.571 490.863 236.285L494.916 189.215Z" fill="#FFB6B6"/>
<path d="M447.539 132.406C458.066 130.444 478.938 162.864 478.938 162.864C476.459 162.916 495.596 182.125 493.558 183.054C487.766 185.692 473.96 187.752 471.819 191.313C470.594 193.35 458.39 179.487 458.39 179.487C458.39 179.487 450.763 172.257 441.135 162.761C438.363 160.127 436.305 156.837 435.153 153.197C434 149.557 433.791 145.685 434.544 141.943C434.544 141.943 437.011 134.368 447.539 132.406Z" fill="#130160"/>
<path d="M500 435.122C500 435.237 499.978 435.352 499.933 435.458C499.889 435.565 499.824 435.662 499.742 435.744C499.66 435.825 499.563 435.89 499.456 435.934C499.349 435.978 499.234 436.001 499.118 436H291.44C291.206 436 290.982 435.908 290.816 435.743C290.651 435.578 290.558 435.355 290.558 435.122C290.558 434.889 290.651 434.665 290.816 434.501C290.982 434.336 291.206 434.243 291.44 434.243H499.118C499.234 434.243 499.349 434.265 499.456 434.309C499.563 434.353 499.66 434.418 499.742 434.5C499.824 434.581 499.889 434.678 499.933 434.785C499.978 434.892 500 435.006 500 435.122Z" fill="#130160"/>
<path d="M307.61 168.902H55.5644C51.6266 168.907 47.8513 170.467 45.0668 173.242C42.2824 176.016 40.7161 179.777 40.7117 183.701V340.05C40.7161 343.974 42.2824 347.735 45.0669 350.509C47.8513 353.284 51.6266 354.844 55.5644 354.849H307.61C311.548 354.844 315.323 353.284 318.108 350.509C320.892 347.735 322.459 343.974 322.463 340.05V183.701C322.459 179.777 320.892 176.016 318.108 173.242C315.323 170.467 311.548 168.907 307.61 168.902Z" fill="#D6CDFE"/>
<path d="M307.61 168.902H55.5644C51.6266 168.907 47.8513 170.467 45.0668 173.242C42.2824 176.016 40.7161 179.777 40.7117 183.701V340.05C40.7161 343.974 42.2824 347.735 45.0669 350.509C47.8513 353.284 51.6266 354.844 55.5644 354.849H307.61C311.548 354.844 315.323 353.284 318.108 350.509C320.892 347.735 322.459 343.974 322.463 340.05V183.701C322.459 179.777 320.892 176.016 318.108 173.242C315.323 170.467 311.548 168.907 307.61 168.902ZM312.484 281.21C312.424 297.127 306.105 312.387 294.882 323.716C283.66 335.044 268.428 341.539 252.455 341.807C226.88 342.139 266.605 342.268 235.76 342.268C165.228 342.268 91.6823 341.596 64.2417 341.161C60.6313 341.087 57.1931 339.609 54.6612 337.044C52.1292 334.479 50.7041 331.029 50.6902 327.431V183.712C50.6916 182.424 51.2051 181.189 52.1184 180.276C53.0316 179.364 54.2703 178.85 55.5634 178.845H307.6C308.893 178.847 310.133 179.358 311.048 180.268C311.963 181.177 312.48 182.411 312.484 183.699V281.21Z" fill="black"/>
<path d="M276.584 78.8711H84.5515C82.8524 78.8735 81.1955 79.3984 79.807 80.3739C78.4184 81.3495 77.3659 82.7283 76.7931 84.3221L47.135 167.226C46.6924 168.463 46.5544 169.788 46.7326 171.09C46.9107 172.391 47.3999 173.631 48.159 174.706C48.9181 175.78 49.9249 176.657 51.0947 177.262C52.2646 177.868 53.5634 178.186 54.8819 178.187L312.429 178.643H312.44C313.803 178.643 315.145 178.306 316.345 177.662C317.545 177.018 318.566 176.088 319.316 174.954C320.066 173.82 320.523 172.519 320.644 171.166C320.765 169.813 320.547 168.452 320.011 167.204L319.562 167.395L320.011 167.204L284.154 83.8448C283.52 82.3679 282.465 81.1091 281.119 80.2248C279.773 79.3406 278.196 78.8698 276.584 78.8711V78.8711Z" fill="black"/>
<path d="M320.677 169.004C320.676 170.116 320.45 171.216 320.01 172.238L284.156 236.405C283.518 237.879 282.461 239.134 281.115 240.017C279.77 240.9 278.195 241.371 276.584 241.373H84.5544C82.8547 241.371 81.1969 240.847 79.8072 239.872C78.4176 238.897 77.3636 237.519 76.7893 235.925L47.1369 172.215C46.7734 171.2 46.6143 170.124 46.6686 169.048C46.7229 167.971 46.9896 166.916 47.4533 165.943C47.9171 164.969 48.569 164.096 49.3715 163.374C50.1741 162.651 51.1117 162.094 52.1308 161.732C53.0124 161.415 53.9425 161.253 54.8797 161.253L86.34 161.194L99.1805 161.171L268.145 160.876L280.992 160.854L312.431 160.795H312.438C314.623 160.795 316.718 161.66 318.264 163.2C319.809 164.739 320.677 166.827 320.677 169.004V169.004Z" fill="black"/>
<path d="M74.4598 286.183C78.2678 286.183 130.559 289.367 130.559 293.161C130.559 296.955 78.2678 299.922 74.4598 299.922C72.6312 299.922 70.8774 299.198 69.5844 297.91C68.2913 296.622 67.5649 294.874 67.5649 293.052C67.5649 291.23 68.2913 289.483 69.5844 288.195C70.8774 286.906 72.6312 286.183 74.4598 286.183V286.183Z" fill="#130160"/>
<path d="M264.625 28.4375H102.707C98.3681 28.4425 94.2079 30.1622 91.1395 33.2194C88.0711 36.2766 86.3451 40.4216 86.3401 44.7451V241.374H276.584C278.146 241.379 279.677 240.935 280.992 240.097V44.7451C280.987 40.4216 279.261 36.2766 276.193 33.2194C273.125 30.1622 268.964 28.4425 264.625 28.4375Z" fill="#E6E6E6"/>
<path d="M202.823 41.6592H114.088C110.137 41.663 106.348 43.2281 103.554 46.0112C100.759 48.7944 99.1862 52.5682 99.1804 56.5051V241.374H268.144V106.742C268.124 89.487 261.236 72.9445 248.99 60.7435C236.744 48.5424 220.141 41.6791 202.823 41.6592V41.6592Z" fill="white"/>
<path d="M239.359 224.955H127.966C127.003 224.955 126.08 225.336 125.399 226.015C124.718 226.693 124.335 227.613 124.335 228.572C124.335 229.532 124.718 230.452 125.399 231.13C126.08 231.809 127.003 232.19 127.966 232.19H239.359C240.322 232.19 241.245 231.809 241.926 231.13C242.607 230.452 242.99 229.532 242.99 228.572C242.99 227.613 242.607 226.693 241.926 226.015C241.245 225.336 240.322 224.955 239.359 224.955V224.955Z" fill="#E4E4E4"/>
<path d="M239.359 210.648H127.966C127.002 210.648 126.078 211.03 125.396 211.709C124.715 212.388 124.332 213.309 124.332 214.269C124.332 215.23 124.715 216.151 125.396 216.83C126.078 217.509 127.002 217.891 127.966 217.891H239.359C240.323 217.891 241.247 217.509 241.929 216.83C242.61 216.151 242.993 215.23 242.993 214.269C242.993 213.309 242.61 212.388 241.929 211.709C241.247 211.03 240.323 210.648 239.359 210.648V210.648Z" fill="#E4E4E4"/>
<path d="M176.253 196.349H127.966C127.003 196.349 126.08 196.73 125.399 197.408C124.718 198.087 124.335 199.007 124.335 199.966C124.335 200.925 124.718 201.845 125.399 202.524C126.08 203.202 127.003 203.583 127.966 203.583H176.253C177.216 203.583 178.139 203.202 178.82 202.524C179.501 201.845 179.884 200.925 179.884 199.966C179.884 199.007 179.501 198.087 178.82 197.408C178.139 196.73 177.216 196.349 176.253 196.349V196.349Z" fill="#E4E4E4"/>
<path d="M239.359 166.391H127.966C127.002 166.391 126.078 166.772 125.396 167.451C124.715 168.13 124.332 169.051 124.332 170.012C124.332 170.972 124.715 171.893 125.396 172.572C126.078 173.251 127.002 173.633 127.966 173.633H239.359C240.323 173.633 241.247 173.251 241.929 172.572C242.61 171.893 242.993 170.972 242.993 170.012C242.993 169.051 242.61 168.13 241.929 167.451C241.247 166.772 240.323 166.391 239.359 166.391Z" fill="#E4E4E4"/>
<path d="M239.359 152.092H127.966C127.003 152.092 126.08 152.473 125.399 153.151C124.718 153.83 124.335 154.75 124.335 155.709C124.335 156.669 124.718 157.589 125.399 158.267C126.08 158.945 127.003 159.326 127.966 159.326H239.359C240.322 159.326 241.245 158.945 241.926 158.267C242.607 157.589 242.99 156.669 242.99 155.709C242.99 154.75 242.607 153.83 241.926 153.151C241.245 152.473 240.322 152.092 239.359 152.092V152.092Z" fill="#E4E4E4"/>
<path d="M176.253 137.784H127.966C127.002 137.784 126.078 138.166 125.396 138.845C124.714 139.524 124.332 140.445 124.332 141.405C124.332 142.366 124.714 143.287 125.396 143.966C126.078 144.645 127.002 145.026 127.966 145.026H176.253C177.217 145.026 178.141 144.645 178.823 143.966C179.504 143.287 179.887 142.366 179.887 141.405C179.887 140.445 179.504 139.524 178.823 138.845C178.141 138.166 177.217 137.784 176.253 137.784Z" fill="#E4E4E4"/>
<path d="M239.359 107.827H127.966C127.002 107.827 126.078 108.209 125.396 108.888C124.715 109.567 124.332 110.488 124.332 111.448C124.332 112.409 124.715 113.33 125.396 114.009C126.078 114.688 127.002 115.069 127.966 115.069H239.359C240.323 115.069 241.247 114.688 241.929 114.009C242.61 113.33 242.993 112.409 242.993 111.448C242.993 110.488 242.61 109.567 241.929 108.888C241.247 108.209 240.323 107.827 239.359 107.827Z" fill="black"/>
<path d="M239.359 93.5273H127.966C127.002 93.5273 126.078 93.9088 125.396 94.5879C124.715 95.267 124.332 96.188 124.332 97.1484C124.332 98.1088 124.715 99.0298 125.396 99.7089C126.078 100.388 127.002 100.769 127.966 100.769H239.359C240.323 100.769 241.247 100.388 241.929 99.7089C242.61 99.0298 242.993 98.1088 242.993 97.1484C242.993 96.188 242.61 95.267 241.929 94.5879C241.247 93.9088 240.323 93.5273 239.359 93.5273Z" fill="black"/>
<path d="M176.253 79.2207H127.966C127.002 79.2207 126.078 79.6022 125.396 80.2813C124.714 80.9604 124.332 81.8814 124.332 82.8418C124.332 83.8021 124.714 84.7231 125.396 85.4022C126.078 86.0813 127.002 86.4628 127.966 86.4628H176.253C177.217 86.4628 178.141 86.0813 178.823 85.4022C179.504 84.7231 179.887 83.8021 179.887 82.8418C179.887 81.8814 179.504 80.9604 178.823 80.2813C178.141 79.6022 177.217 79.2207 176.253 79.2207Z" fill="black"/>
<path d="M302.698 28.1731C302.698 43.4548 290.264 55.8462 274.922 55.8462C259.58 55.8462 247.146 43.4548 247.146 28.1731C247.146 12.8914 259.58 0.5 274.922 0.5C290.264 0.5 302.698 12.8914 302.698 28.1731Z" fill="#D6CDFE" stroke="black"/>
<path d="M271.065 42.8359C270.576 42.8359 270.095 42.7226 269.658 42.5049C269.221 42.2873 268.841 41.9713 268.549 41.5821L260.834 31.3338C260.585 31.0047 260.404 30.6298 260.3 30.2306C260.197 29.8315 260.173 29.4159 260.231 29.0077C260.289 28.5995 260.427 28.2067 260.638 27.8518C260.849 27.497 261.127 27.187 261.458 26.9396C261.789 26.6923 262.166 26.5125 262.567 26.4104C262.968 26.3084 263.385 26.2862 263.795 26.3451C264.204 26.4039 264.598 26.5427 264.954 26.7535C265.309 26.9643 265.62 27.2429 265.867 27.5734L270.914 34.2776L283.876 14.9053C284.339 14.2137 285.058 13.7336 285.877 13.5706C286.695 13.4076 287.544 13.5751 288.238 14.0361C288.932 14.4972 289.414 15.2141 289.578 16.0291C289.741 16.8441 289.573 17.6905 289.11 18.3821L273.682 41.4403C273.403 41.8573 273.028 42.2016 272.587 42.4442C272.147 42.6869 271.655 42.8208 271.152 42.8349C271.123 42.8353 271.094 42.8359 271.065 42.8359Z" fill="black"/>
</g>
<defs>
<clipPath id="clip0_1_300">
<rect width="500" height="436" fill="white"/>
</clipPath>
</defs>
</svg>
