<svg width="500" height="421" viewBox="0 0 500 421" fill="none" xmlns="http://www.w3.org/2000/svg">
<g clip-path="url(#clip0_1_265)">
<path d="M24.1262 143.417L0.0174786 130.357C-0.307722 116.385 2.91839 102.547 9.41569 90.0459C14.9741 114.309 44.226 125.853 57.7224 147.038C61.8792 153.676 64.4294 161.129 65.1842 168.845C65.9389 176.56 64.8788 184.339 62.0823 191.607L63.6679 210.419C51.2077 206.83 39.7046 200.685 29.9513 192.409C20.198 184.132 12.4263 173.92 7.17169 162.477C4.28998 156.029 2.26401 149.257 1.1416 142.323C12.3821 143.473 24.1262 143.417 24.1262 143.417Z" fill="#F2F2F2"/>
<path d="M457.521 381.009L458.26 365.022C465.967 361.06 474.562 358.968 483.301 358.926C471.274 368.382 472.777 386.611 464.623 399.328C462.049 403.276 458.583 406.615 454.484 409.1C450.385 411.584 445.757 413.149 440.944 413.68L430.879 419.606C429.498 412.202 429.803 404.598 431.772 397.317C433.741 390.037 437.327 383.254 442.285 377.435C445.099 374.197 448.326 371.313 451.89 368.851C454.301 374.964 457.521 381.009 457.521 381.009Z" fill="#E6E6E6"/>
<path d="M431.589 411.379L422.476 411.378L418.141 377.572L431.591 377.573L431.589 411.379Z" fill="#FFB6B6"/>
<path d="M433.913 419.875L404.529 419.874V419.516C404.53 416.599 405.735 413.802 407.879 411.739C410.024 409.676 412.933 408.517 415.966 408.517H415.967L421.335 404.601L431.349 408.517L433.914 408.518L433.913 419.875Z" fill="#2F2E41"/>
<path d="M389.251 411.379L380.138 411.378L375.803 377.572L389.254 377.573L389.251 411.379Z" fill="#FFB6B6"/>
<path d="M391.576 419.875L362.191 419.874V419.516C362.192 416.599 363.397 413.802 365.542 411.739C367.686 409.676 370.595 408.517 373.629 408.517H373.629L378.997 404.601L389.011 408.517L391.576 408.518L391.576 419.875Z" fill="#2F2E41"/>
<path d="M385.307 226.559L444.582 227.984C455.84 233.865 456.011 246.593 452.322 261.704C452.322 261.704 453.567 270.686 451.077 273.082C448.587 275.477 447.341 275.477 448.587 279.668C449.832 283.86 443.253 290.706 444.052 291.475C444.851 292.243 446.719 296.435 446.719 296.435L440.493 330.566C440.493 330.566 436.134 389.848 434.889 391.045C433.644 392.243 432.399 391.045 433.644 394.039C434.889 397.033 436.134 395.836 434.889 397.033C433.786 398.177 432.747 399.376 431.776 400.626H416.723C416.723 400.626 415.588 394.638 415.588 394.039C415.588 393.44 414.343 389.848 414.343 389.249C414.343 388.65 415.444 387.591 415.444 387.591C415.824 386.374 416.081 385.124 416.211 383.86C416.211 382.662 419.947 336.554 419.947 336.554L412.475 276.674L394.419 335.357C394.419 335.357 394.419 386.854 393.174 388.051C391.929 389.249 391.929 388.65 392.552 391.045C393.174 393.44 395.665 392.842 393.797 394.638C391.929 396.434 391.306 393.44 391.929 396.434L392.552 399.428L373.873 399.685C373.873 399.685 371.383 394.638 372.628 392.842C373.873 391.045 373.799 391.536 372.279 388.596C370.76 385.656 370.138 385.057 370.76 384.458C371.383 383.86 371.383 380.675 371.383 380.675L374.496 323.381C374.496 323.381 375.118 262.902 375.118 261.106C375.165 260.181 374.988 259.259 374.601 258.412V255.973L376.986 247.333L385.307 226.559Z" fill="#69687F"/>
<path d="M420.915 108.018C431.086 108.018 439.332 100.088 439.332 90.3056C439.332 80.5231 431.086 72.5928 420.915 72.5928C410.743 72.5928 402.498 80.5231 402.498 90.3056C402.498 100.088 410.743 108.018 420.915 108.018Z" fill="#FFB6B6"/>
<path d="M411.706 119.725C407.738 121.994 405.365 126.162 404.002 130.404C401.48 138.257 399.962 146.376 399.481 154.582L398.042 179.149L380.219 231.46C395.665 244.03 453.727 234.316 453.727 234.316C453.727 234.316 455.509 233.745 453.727 232.031C451.945 230.317 450.21 231.835 451.992 230.121C453.774 228.407 452.546 230.317 451.951 228.603C451.357 226.888 451.951 228.031 452.546 227.46C453.14 226.888 447.946 221.746 447.946 221.746L452.699 191.719L458.64 131.153C451.511 122.582 437.173 117.53 437.173 117.53L433.468 111.116L414.945 112.541L411.706 119.725Z" fill="#130160"/>
<path d="M409.18 79.9104C409.893 79.9158 410.602 80.0053 411.292 80.1769C412.652 80.4914 414.033 80.7142 415.426 80.8436C419.689 81.2294 423.695 82.9781 426.804 85.8106C429.913 88.643 431.946 92.3957 432.577 96.4694C433.647 95.572 436.082 93.9213 438.078 95.4554C438.109 95.4798 438.126 95.4923 438.197 95.4603C439.522 94.8556 441.875 87.4115 441.946 80.8572C441.984 77.3783 441.415 72.9361 438.489 71.5293L438.335 71.4552L438.295 71.2941C438.099 70.5115 435.915 69.1758 432.12 68.1361C425.223 66.2467 414.942 62.5662 409.153 67.9827C408.715 69.8088 407.289 73.7165 405.849 74.1595C404.255 74.6497 402.878 75.0728 402.661 76.9539C402.48 79.6307 402.493 82.3164 402.7 84.9915C403.241 83.3546 404.301 81.9219 405.733 80.8951C406.75 80.2361 407.953 79.8925 409.18 79.9104V79.9104Z" fill="#2F2E41"/>
<path d="M374.9 177.781L404.985 159.251L389.832 139.879L374.87 157.58L328.251 160.33C327.025 159.164 325.472 158.367 323.783 158.035C322.094 157.703 320.341 157.851 318.737 158.461C317.134 159.071 315.75 160.116 314.754 161.469C313.757 162.823 313.192 164.426 313.127 166.083C313.061 167.74 313.498 169.379 314.385 170.801C315.272 172.223 316.569 173.367 318.12 174.092C319.671 174.817 321.407 175.092 323.118 174.885C324.828 174.677 326.439 173.995 327.754 172.922L374.9 177.781Z" fill="#FFB6B6"/>
<path d="M432.908 133.387C434.654 143.55 401.68 162.957 401.68 162.957C401.68 160.572 382 178.58 381.111 176.602C378.587 170.979 376.811 157.662 373.284 155.53C371.266 154.311 385.434 142.859 385.434 142.859C385.434 142.859 392.851 135.673 402.584 126.61C405.286 123.998 408.631 122.087 412.308 121.053C415.985 120.019 419.874 119.897 423.613 120.698C423.613 120.698 431.162 123.225 432.908 133.387Z" fill="#130160"/>
<path d="M494.916 182.645L475.017 154.11L455.199 169.09L473.917 183.102L477.763 227.87C476.577 229.074 475.781 230.583 475.471 232.215C475.162 233.846 475.353 235.529 476.021 237.057C476.689 238.586 477.805 239.895 479.233 240.824C480.661 241.754 482.339 242.263 484.063 242.291C485.787 242.319 487.482 241.864 488.941 240.981C490.401 240.098 491.562 238.826 492.283 237.32C493.004 235.814 493.253 234.138 493.001 232.498C492.749 230.858 492.006 229.323 490.863 228.082L494.916 182.645Z" fill="#FFB6B6"/>
<path d="M447.539 127.809C458.067 125.915 478.939 157.21 478.939 157.21C476.459 157.261 495.596 175.803 493.558 176.699C487.767 179.245 473.96 181.234 471.819 184.671C470.595 186.637 458.39 173.256 458.39 173.256C458.39 173.256 450.763 166.277 441.135 157.111C438.363 154.568 436.305 151.392 435.153 147.878C434 144.364 433.791 140.628 434.544 137.015C434.544 137.015 437.011 129.703 447.539 127.809Z" fill="#130160"/>
<path d="M500 420.015C500 420.127 499.978 420.237 499.933 420.34C499.889 420.443 499.824 420.537 499.742 420.615C499.66 420.694 499.563 420.757 499.456 420.799C499.349 420.842 499.234 420.863 499.118 420.863H291.44C291.206 420.863 290.982 420.774 290.816 420.615C290.651 420.456 290.558 420.24 290.558 420.015C290.558 419.79 290.651 419.574 290.816 419.415C290.982 419.256 291.206 419.167 291.44 419.167H499.118C499.234 419.167 499.349 419.188 499.456 419.231C499.563 419.273 499.66 419.336 499.742 419.415C499.824 419.493 499.889 419.587 499.933 419.69C499.978 419.793 500 419.904 500 420.015Z" fill="#130160"/>
<path d="M307.61 163.038H55.5646C51.6268 163.042 47.8516 164.549 45.0671 167.227C42.2826 169.905 40.7164 173.536 40.7119 177.323V328.244C40.7164 332.031 42.2826 335.662 45.0671 338.34C47.8516 341.018 51.6268 342.524 55.5646 342.529H307.61C311.548 342.525 315.323 341.018 318.108 338.34C320.892 335.662 322.459 332.031 322.463 328.244V177.323C322.459 173.536 320.892 169.905 318.108 167.227C315.324 164.549 311.548 163.042 307.61 163.038Z" fill="#D6CDFE"/>
<path d="M307.61 163.038H55.5646C51.6268 163.042 47.8516 164.549 45.0671 167.227C42.2826 169.905 40.7164 173.536 40.7119 177.323V328.244C40.7164 332.031 42.2826 335.662 45.0671 338.34C47.8516 341.018 51.6268 342.524 55.5646 342.529H307.61C311.548 342.525 315.323 341.018 318.108 338.34C320.892 335.662 322.459 332.031 322.463 328.244V177.323C322.459 173.536 320.892 169.905 318.108 167.227C315.324 164.549 311.548 163.042 307.61 163.038ZM312.485 271.447C312.424 286.811 306.105 301.541 294.883 312.477C283.66 323.412 268.428 329.681 252.455 329.94C226.88 330.26 266.605 330.385 235.76 330.385C165.228 330.385 91.6826 329.737 64.2419 329.316C60.6316 329.245 57.1934 327.819 54.6614 325.342C52.1295 322.866 50.7044 319.536 50.6904 316.063V177.334C50.6918 176.09 51.2053 174.898 52.1186 174.017C53.0318 173.137 54.2705 172.64 55.5636 172.636H307.6C308.893 172.637 310.133 173.131 311.048 174.009C311.963 174.887 312.48 176.078 312.485 177.321V271.447Z" fill="black"/>
<path d="M276.583 76.1328H84.5512C82.8522 76.1352 81.1953 76.6418 79.8067 77.5835C78.4182 78.5252 77.3656 79.8561 76.7928 81.3946L47.1348 161.42C46.6921 162.614 46.5541 163.894 46.7323 165.15C46.9105 166.406 47.3997 167.603 48.1588 168.64C48.9179 169.677 49.9246 170.523 51.0945 171.108C52.2644 171.693 53.5631 171.999 54.8816 172.001L183.655 172.221L312.428 172.441H312.44C313.803 172.441 315.144 172.115 316.344 171.494C317.545 170.872 318.566 169.974 319.316 168.88C320.066 167.786 320.522 166.529 320.643 165.224C320.765 163.918 320.547 162.604 320.01 161.399L284.154 80.9339C283.52 79.5082 282.465 78.2931 281.119 77.4396C279.773 76.586 278.196 76.1316 276.583 76.1328Z" fill="black"/>
<path d="M320.677 163.137C320.677 164.21 320.45 165.272 320.01 166.258L284.156 228.198C283.518 229.62 282.461 230.832 281.116 231.684C279.77 232.537 278.195 232.992 276.584 232.994H84.5544C82.8547 232.992 81.1969 232.486 79.8072 231.545C78.4176 230.604 77.3637 229.273 76.7893 227.735L47.1369 166.237C46.7734 165.257 46.6143 164.218 46.6686 163.179C46.7229 162.14 46.9896 161.122 47.4533 160.182C47.9171 159.242 48.569 158.4 49.3715 157.702C50.1741 157.005 51.1117 156.467 52.1308 156.118C53.0124 155.812 53.9425 155.655 54.8797 155.655L86.34 155.598L99.1805 155.576L268.145 155.291L280.993 155.27L312.431 155.213H312.438C314.623 155.213 316.719 156.048 318.264 157.534C319.809 159.02 320.677 161.036 320.677 163.137V163.137Z" fill="black"/>
<path d="M74.4598 276.247C78.2678 276.247 130.559 279.321 130.559 282.983C130.559 286.645 78.2678 289.51 74.4598 289.51C72.6312 289.51 70.8774 288.811 69.5844 287.567C68.2913 286.324 67.5649 284.637 67.5649 282.878C67.5649 281.12 68.2913 279.433 69.5844 278.189C70.8774 276.946 72.6312 276.247 74.4598 276.247V276.247Z" fill="#130160"/>
<path d="M239.359 217.146H127.966C127.003 217.146 126.08 217.513 125.399 218.168C124.718 218.823 124.335 219.711 124.335 220.637C124.335 221.563 124.718 222.451 125.399 223.106C126.08 223.761 127.003 224.129 127.966 224.129H239.359C240.322 224.129 241.245 223.761 241.926 223.106C242.607 222.451 242.99 221.563 242.99 220.637C242.99 219.711 242.607 218.823 241.926 218.168C241.245 217.513 240.322 217.146 239.359 217.146V217.146Z" fill="#E4E4E4"/>
<path d="M182.533 272.993C181.911 272.994 181.295 272.876 180.72 272.648L78.6162 231.542V102.873C78.6176 101.735 79.084 100.644 79.9132 99.8395C80.7424 99.035 81.8666 98.5824 83.0393 98.5811H278.918C280.09 98.5824 281.214 99.035 282.044 99.8395C282.873 100.644 283.339 101.735 283.341 102.873V231.632L283.149 231.711L184.401 272.628C183.809 272.869 183.174 272.993 182.533 272.993Z" fill="white"/>
<path d="M182.39 231C210.178 231 232.705 209.041 232.705 181.952C232.705 154.864 210.178 132.904 182.39 132.904C154.602 132.904 132.076 154.864 132.076 181.952C132.076 209.041 154.602 231 182.39 231Z" fill="#D6CDFE"/>
<path d="M175.802 208.85C174.967 208.85 174.144 208.654 173.398 208.279C172.651 207.903 172.002 207.357 171.501 206.685L158.317 188.992C157.891 188.424 157.581 187.777 157.404 187.088C157.227 186.398 157.187 185.681 157.286 184.976C157.385 184.271 157.621 183.593 157.981 182.981C158.341 182.368 158.818 181.833 159.383 181.406C159.949 180.979 160.593 180.668 161.278 180.492C161.963 180.316 162.676 180.278 163.376 180.379C164.076 180.481 164.749 180.721 165.357 181.084C165.965 181.448 166.495 181.929 166.918 182.5L175.544 194.074L197.698 160.629C198.489 159.435 199.719 158.606 201.117 158.325C202.515 158.043 203.967 158.332 205.153 159.128C206.34 159.924 207.163 161.162 207.443 162.569C207.723 163.976 207.435 165.438 206.644 166.632L180.275 206.44C179.798 207.16 179.157 207.755 178.404 208.174C177.652 208.593 176.811 208.824 175.951 208.848C175.901 208.849 175.852 208.85 175.802 208.85Z" fill="black"/>
</g>
<defs>
<clipPath id="clip0_1_265">
<rect width="500" height="420.863" fill="white"/>
</clipPath>
</defs>
</svg>
