<?xml version="1.0" encoding="UTF-8"?>
<!DOCTYPE svg PUBLIC "-//W3C//DTD SVG 1.1//EN" "http://www.w3.org/Graphics/SVG/1.1/DTD/svg11.dtd">
<svg xmlns="http://www.w3.org/2000/svg" version="1.1" width="311px" height="301px" style="shape-rendering:geometricPrecision; text-rendering:geometricPrecision; image-rendering:optimizeQuality; fill-rule:evenodd; clip-rule:evenodd" xmlns:xlink="http://www.w3.org/1999/xlink">
<g><path style="opacity:0.998" fill="#fdfdfd" d="M 60.5,-0.5 C 65.1667,-0.5 69.8333,-0.5 74.5,-0.5C 81.8633,1.84809 87.1967,6.51476 90.5,13.5C 91.0241,15.3057 91.6908,16.9724 92.5,18.5C 95.6248,19.4794 98.9581,19.8128 102.5,19.5C 102.232,21.099 102.566,22.4324 103.5,23.5C 104.117,25.2292 105.117,26.7292 106.5,28C 123.5,28.6667 140.5,28.6667 157.5,28C 159.141,26.871 160.141,25.371 160.5,23.5C 161.434,22.4324 161.768,21.099 161.5,19.5C 165.5,19.5 169.5,19.5 173.5,19.5C 180.5,20.5 184.5,24.5 185.5,31.5C 185.5,50.8333 185.5,70.1667 185.5,89.5C 176.469,89.4739 167.469,89.3073 158.5,89C 154.346,93.399 154.679,97.399 159.5,101C 162.418,101.716 165.085,101.216 167.5,99.5C 173.429,100.823 179.429,101.49 185.5,101.5C 185.5,144.833 185.5,188.167 185.5,231.5C 184.999,238.508 181.332,243.008 174.5,245C 146.167,245.667 117.833,245.667 89.5,245C 83.7324,242.737 80.3991,238.57 79.5,232.5C 79.8333,170.83 79.5,109.163 78.5,47.5C 77.8933,47.6236 77.56,47.9569 77.5,48.5C 75.901,48.2322 74.5676,48.5655 73.5,49.5C 55.5665,51.2263 45.2332,43.2263 42.5,25.5C 42.6074,12.73 48.6074,4.0633 60.5,-0.5 Z"/></g>
<g><path style="opacity:0.997" fill="#403e57" d="M 90.5,13.5 C 119.169,13.3334 147.835,13.5 176.5,14C 184.253,16.917 188.92,22.417 190.5,30.5C 190.492,49.8407 190.825,69.174 191.5,88.5C 189.833,88.5 188.167,88.5 186.5,88.5C 186.83,69.326 186.497,50.326 185.5,31.5C 184.5,24.5 180.5,20.5 173.5,19.5C 169.366,18.5151 165.032,18.1818 160.5,18.5C 160.5,20.1667 160.5,21.8333 160.5,23.5C 160.141,25.371 159.141,26.871 157.5,28C 140.5,28.6667 123.5,28.6667 106.5,28C 105.117,26.7292 104.117,25.2292 103.5,23.5C 103.5,21.8333 103.5,20.1667 103.5,18.5C 99.8333,18.5 96.1667,18.5 92.5,18.5C 91.6908,16.9724 91.0241,15.3057 90.5,13.5 Z"/></g>
<g><path style="opacity:1" fill="#2a2a2a" d="M 63.5,13.5 C 71.9699,12.1464 76.9699,15.6464 78.5,24C 78.2695,26.6998 77.2695,29.0332 75.5,31C 77.6157,32.1707 78.2824,33.6707 77.5,35.5C 76.1861,34.6872 75.0195,33.6872 74,32.5C 62.025,37.3497 56.3584,33.3497 57,20.5C 58.6941,17.6424 60.8607,15.309 63.5,13.5 Z"/></g>
<g><path style="opacity:1" fill="#f8f8f8" d="M 63.5,15.5 C 72.4435,14.6111 76.6101,18.6111 76,27.5C 70.7529,35.0116 65.0863,35.3449 59,28.5C 57.3794,22.9227 58.8794,18.5894 63.5,15.5 Z"/></g>
<g><path style="opacity:1" fill="#babac2" d="M 92.5,18.5 C 96.1667,18.5 99.8333,18.5 103.5,18.5C 103.5,20.1667 103.5,21.8333 103.5,23.5C 102.566,22.4324 102.232,21.099 102.5,19.5C 98.9581,19.8128 95.6248,19.4794 92.5,18.5 Z"/></g>
<g><path style="opacity:1" fill="#abaab5" d="M 173.5,19.5 C 169.5,19.5 165.5,19.5 161.5,19.5C 161.768,21.099 161.434,22.4324 160.5,23.5C 160.5,21.8333 160.5,20.1667 160.5,18.5C 165.032,18.1818 169.366,18.5151 173.5,19.5 Z"/></g>
<g><path style="opacity:0.919" fill="#302f42" d="M 246.5,41.5 C 244.833,41.5 243.167,41.5 241.5,41.5C 240.527,36.3534 237.527,32.8534 232.5,31C 229.964,30.6608 227.464,30.1608 225,29.5C 222.695,29.9733 221.195,31.3066 220.5,33.5C 219.371,31.3718 219.204,29.0385 220,26.5C 222.737,24.5483 224.904,22.0483 226.5,19C 233.152,17.9653 239.485,18.9653 245.5,22C 249.203,25.396 250.369,29.5626 249,34.5C 248.61,37.1042 247.776,39.4375 246.5,41.5 Z"/></g>
<g><path style="opacity:0.994" fill="#d5ccfd" d="M 42.5,25.5 C 45.2332,43.2263 55.5665,51.2263 73.5,49.5C 73.3333,111.168 73.5,172.834 74,234.5C 75.6272,242.13 80.1272,247.296 87.5,250C 116.5,250.667 145.5,250.667 174.5,250C 182.307,247.526 187.474,242.359 190,234.5C 190.5,190.501 190.667,146.501 190.5,102.5C 192.848,102.67 195.182,103.003 197.5,103.5C 200.102,103.533 202.102,102.533 203.5,100.5C 204.212,101.739 205.212,102.239 206.5,102C 210,99.1667 213.5,96.3333 217,93.5C 217.667,97.1667 217.667,100.833 217,104.5C 213.004,116.489 209.004,128.489 205,140.5C 204.36,142.265 204.527,143.932 205.5,145.5C 204.105,149.515 202.605,153.515 201,157.5C 201.023,189.547 199.856,221.547 197.5,253.5C 197.633,258.773 198.133,263.773 199,268.5C 200.049,270.107 201.549,270.773 203.5,270.5C 203.5,271.833 203.5,273.167 203.5,274.5C 200.518,276.593 197.184,278.093 193.5,279C 192.139,280.584 191.472,282.418 191.5,284.5C 173.68,284.015 156.013,284.515 138.5,286C 164.831,286.5 191.165,286.667 217.5,286.5C 213.233,289.321 208.567,291.488 203.5,293C 192.214,296.354 180.881,298.854 169.5,300.5C 156.167,300.5 142.833,300.5 129.5,300.5C 99.8141,297.772 73.4807,286.939 50.5,268C 37.5758,256.322 29.7424,241.822 27,224.5C 24.773,203.107 22.1063,181.774 19,160.5C 12.1495,137.799 5.64953,115.133 -0.5,92.5C -0.5,84.5 -0.5,76.5 -0.5,68.5C 6.07658,46.59 20.4099,32.2566 42.5,25.5 Z"/></g>
<g><path style="opacity:0.995" fill="#d4cafc" d="M 190.5,30.5 C 200.598,32.6435 210.265,35.9768 219.5,40.5C 221.186,43.7028 223.519,46.5361 226.5,49C 230.363,50.3537 234.363,50.8537 238.5,50.5C 238.833,51.5 239.5,52.1667 240.5,52.5C 236.733,53.7947 232.733,54.4613 228.5,54.5C 228.509,56.3084 228.009,57.9751 227,59.5C 218,67.8333 209,76.1667 200,84.5C 199.421,85.9285 199.588,87.2618 200.5,88.5C 197.5,88.5 194.5,88.5 191.5,88.5C 190.825,69.174 190.492,49.8407 190.5,30.5 Z"/></g>
<g><path style="opacity:0.976" fill="#fcb4b4" d="M 246.5,41.5 C 245.255,45.7461 242.588,48.7461 238.5,50.5C 234.363,50.8537 230.363,50.3537 226.5,49C 223.519,46.5361 221.186,43.7028 219.5,40.5C 219.298,38.0504 219.631,35.717 220.5,33.5C 221.195,31.3066 222.695,29.9733 225,29.5C 227.464,30.1608 229.964,30.6608 232.5,31C 237.527,32.8534 240.527,36.3534 241.5,41.5C 243.167,41.5 244.833,41.5 246.5,41.5 Z"/></g>
<g><path style="opacity:1" fill="#a09ba7" d="M 185.5,31.5 C 186.497,50.326 186.83,69.326 186.5,88.5C 188.167,88.5 189.833,88.5 191.5,88.5C 189.735,89.4614 187.735,89.7947 185.5,89.5C 185.5,70.1667 185.5,50.8333 185.5,31.5 Z"/></g>
<g><path style="opacity:1" fill="#7f7e8e" d="M 167.5,35.5 C 170.167,35.5 172.833,35.5 175.5,35.5C 175.5,36.8333 175.5,38.1667 175.5,39.5C 172.833,39.5 170.167,39.5 167.5,39.5C 167.5,38.1667 167.5,36.8333 167.5,35.5 Z"/></g>
<g><path style="opacity:1" fill="#9e9da9" d="M 77.5,48.5 C 77.56,47.9569 77.8933,47.6236 78.5,47.5C 79.5,109.163 79.8333,170.83 79.5,232.5C 78.8333,171.167 78.1667,109.833 77.5,48.5 Z"/></g>
<g><path style="opacity:1" fill="#403e57" d="M 77.5,48.5 C 78.1667,109.833 78.8333,171.167 79.5,232.5C 80.3991,238.57 83.7324,242.737 89.5,245C 117.833,245.667 146.167,245.667 174.5,245C 181.332,243.008 184.999,238.508 185.5,231.5C 186.499,188.67 186.832,145.67 186.5,102.5C 187.833,102.5 189.167,102.5 190.5,102.5C 190.667,146.501 190.5,190.501 190,234.5C 187.474,242.359 182.307,247.526 174.5,250C 145.5,250.667 116.5,250.667 87.5,250C 80.1272,247.296 75.6272,242.13 74,234.5C 73.5,172.834 73.3333,111.168 73.5,49.5C 74.5676,48.5655 75.901,48.2322 77.5,48.5 Z"/></g>
<g><path style="opacity:0.997" fill="#140160" d="M 240.5,52.5 C 243.142,52.4877 244.475,53.821 244.5,56.5C 244.973,57.9063 245.973,58.573 247.5,58.5C 250.967,60.0672 254.3,61.9005 257.5,64C 261.992,69.9902 266.659,75.8236 271.5,81.5C 275.842,88.6961 280.842,95.5294 286.5,102C 285.584,102.278 284.918,102.778 284.5,103.5C 280.195,104.235 276.195,105.568 272.5,107.5C 271.262,108.412 269.928,108.579 268.5,108C 265.318,104.651 261.985,101.484 258.5,98.5C 257.105,110.37 255.438,122.203 253.5,134C 255.461,137.517 256.794,141.35 257.5,145.5C 257.376,146.107 257.043,146.44 256.5,146.5C 242.883,148.238 229.216,148.738 215.5,148C 212.071,147.467 208.738,146.633 205.5,145.5C 204.527,143.932 204.36,142.265 205,140.5C 209.004,128.489 213.004,116.489 217,104.5C 217.667,100.833 217.667,97.1667 217,93.5C 213.5,96.3333 210,99.1667 206.5,102C 205.212,102.239 204.212,101.739 203.5,100.5C 203.122,96.3219 202.122,92.3219 200.5,88.5C 199.588,87.2618 199.421,85.9285 200,84.5C 209,76.1667 218,67.8333 227,59.5C 228.009,57.9751 228.509,56.3084 228.5,54.5C 232.733,54.4613 236.733,53.7947 240.5,52.5 Z"/></g>
<g><path style="opacity:0.063" fill="#c6b9ee" d="M 244.5,56.5 C 246.027,56.427 247.027,57.0937 247.5,58.5C 245.973,58.573 244.973,57.9063 244.5,56.5 Z"/></g>
<g><path style="opacity:1" fill="#060606" d="M 105.5,58.5 C 120.528,57.7033 128.361,64.7033 129,79.5C 124.502,93.4988 115.336,97.9988 101.5,93C 91.8587,85.4846 90.0254,76.318 96,65.5C 98.7901,62.535 101.957,60.2016 105.5,58.5 Z"/></g>
<g><path style="opacity:1" fill="#e0e0e0" d="M 102.5,68.5 C 103.5,68.5 104.5,68.5 105.5,68.5C 104.964,71.5547 104.131,74.5547 103,77.5C 101.989,78.3366 100.822,78.67 99.5,78.5C 99.3685,74.7794 100.369,71.4461 102.5,68.5 Z"/></g>
<g><path style="opacity:1" fill="#d2d2d2" d="M 102.5,81.5 C 103.5,81.5 104.5,81.5 105.5,81.5C 105.762,82.9778 105.429,84.3112 104.5,85.5C 102.889,84.6798 102.222,83.3464 102.5,81.5 Z"/></g>
<g><path style="opacity:1" fill="#0e0e0e" d="M 135.5,84.5 C 143.233,84.7508 145.4,88.4175 142,95.5C 134.102,98.8665 130.769,96.1998 132,87.5C 133.145,86.3636 134.312,85.3636 135.5,84.5 Z"/></g>
<g><path style="opacity:1" fill="#efb2b5" d="M 185.5,89.5 C 187.735,89.7947 189.735,89.4614 191.5,88.5C 194.5,88.5 197.5,88.5 200.5,88.5C 202.122,92.3219 203.122,96.3219 203.5,100.5C 202.102,102.533 200.102,103.533 197.5,103.5C 195.182,103.003 192.848,102.67 190.5,102.5C 189.167,102.5 187.833,102.5 186.5,102.5C 186.832,145.67 186.499,188.67 185.5,231.5C 185.5,188.167 185.5,144.833 185.5,101.5C 179.429,101.49 173.429,100.823 167.5,99.5C 165.085,101.216 162.418,101.716 159.5,101C 154.679,97.399 154.346,93.399 158.5,89C 167.469,89.3073 176.469,89.4739 185.5,89.5 Z"/></g>
<g><path style="opacity:1" fill="#090909" d="M 118.5,97.5 C 130.362,96.8597 134.529,102.193 131,113.5C 123.892,119.484 117.892,118.484 113,110.5C 112.333,108.5 112.333,106.5 113,104.5C 114.666,102.004 116.5,99.671 118.5,97.5 Z"/></g>
<g><path style="opacity:0.993" fill="#d5ccfd" d="M 271.5,81.5 C 291.822,101.473 304.822,125.473 310.5,153.5C 310.5,162.167 310.5,170.833 310.5,179.5C 305.465,202.237 295.132,222.237 279.5,239.5C 273.173,239.664 267.173,241.164 261.5,244C 260.703,247.745 260.203,251.579 260,255.5C 258.767,252.703 257.267,250.037 255.5,247.5C 251.074,250.921 247.407,254.921 244.5,259.5C 245.246,237.823 247.579,216.323 251.5,195C 251.385,192.958 251.051,190.958 250.5,189C 256.593,175.562 258.593,161.395 256.5,146.5C 257.043,146.44 257.376,146.107 257.5,145.5C 256.794,141.35 255.461,137.517 253.5,134C 255.438,122.203 257.105,110.37 258.5,98.5C 261.985,101.484 265.318,104.651 268.5,108C 269.928,108.579 271.262,108.412 272.5,107.5C 273.946,121.167 274.446,134.834 274,148.5C 277.182,152.057 280.682,152.391 284.5,149.5C 285.351,145.386 285.351,141.219 284.5,137C 285.555,127.669 286.555,118.335 287.5,109C 287.1,106.785 286.1,104.952 284.5,103.5C 284.918,102.778 285.584,102.278 286.5,102C 280.842,95.5294 275.842,88.6961 271.5,81.5 Z"/></g>
<g><path style="opacity:1" fill="#fdb5b6" d="M 284.5,103.5 C 286.1,104.952 287.1,106.785 287.5,109C 286.555,118.335 285.555,127.669 284.5,137C 285.351,141.219 285.351,145.386 284.5,149.5C 280.682,152.391 277.182,152.057 274,148.5C 274.446,134.834 273.946,121.167 272.5,107.5C 276.195,105.568 280.195,104.235 284.5,103.5 Z"/></g>
<g><path style="opacity:1" fill="#151515" d="M 153.5,115.5 C 153.5,114.833 153.833,114.5 154.5,114.5C 158.318,115.799 159.818,118.466 159,122.5C 155.036,127.807 151.202,127.807 147.5,122.5C 147.328,121.508 147.662,120.842 148.5,120.5C 148.56,121.043 148.893,121.376 149.5,121.5C 150.167,118.833 151.833,117.167 154.5,116.5C 154.376,115.893 154.043,115.56 153.5,115.5 Z"/></g>
<g><path style="opacity:1" fill="#e2e2e2" d="M 153.5,115.5 C 154.043,115.56 154.376,115.893 154.5,116.5C 151.833,117.167 150.167,118.833 149.5,121.5C 148.893,121.376 148.56,121.043 148.5,120.5C 148.5,117.167 150.167,115.5 153.5,115.5 Z"/></g>
<g><path style="opacity:1" fill="#4e4e4e" d="M 154.5,114.5 C 153.833,114.5 153.5,114.833 153.5,115.5C 150.167,115.5 148.5,117.167 148.5,120.5C 147.662,120.842 147.328,121.508 147.5,122.5C 146.154,117.888 147.987,114.888 153,113.5C 153.765,113.57 154.265,113.903 154.5,114.5 Z"/></g>
<g><path style="opacity:1" fill="#1c1c1c" d="M 131.5,123.5 C 134.524,123.175 136.191,124.508 136.5,127.5C 134.167,132.833 131.833,132.833 129.5,127.5C 129.752,125.927 130.418,124.594 131.5,123.5 Z"/></g>
<g><path style="opacity:1" fill="#0d0d0d" d="M 173.5,134.5 C 172.5,134.5 171.5,134.5 170.5,134.5C 170.5,135.5 170.5,136.5 170.5,137.5C 174.339,137.668 176.672,139.668 177.5,143.5C 178.107,143.376 178.44,143.043 178.5,142.5C 179.338,142.842 179.672,143.508 179.5,144.5C 177.234,149.796 173.234,151.63 167.5,150C 160.606,144.159 160.939,138.825 168.5,134C 170.387,133.22 172.054,133.387 173.5,134.5 Z"/></g>
<g><path style="opacity:1" fill="#e0e0e0" d="M 173.5,134.5 C 176.666,136.154 178.333,138.821 178.5,142.5C 178.44,143.043 178.107,143.376 177.5,143.5C 176.672,139.668 174.339,137.668 170.5,137.5C 170.5,136.5 170.5,135.5 170.5,134.5C 171.5,134.5 172.5,134.5 173.5,134.5 Z"/></g>
<g><path style="opacity:1" fill="#464646" d="M 173.5,134.5 C 179.15,135.814 181.15,139.147 179.5,144.5C 179.672,143.508 179.338,142.842 178.5,142.5C 178.333,138.821 176.666,136.154 173.5,134.5 Z"/></g>
<g><path style="opacity:1" fill="#070707" d="M 134.5,141.5 C 147.986,140.152 153.82,146.152 152,159.5C 146.688,167.932 139.522,169.765 130.5,165C 124.139,155.708 125.472,147.875 134.5,141.5 Z"/></g>
<g><path style="opacity:1" fill="#6a6880" d="M 205.5,145.5 C 208.738,146.633 212.071,147.467 215.5,148C 229.216,148.738 242.883,148.238 256.5,146.5C 258.593,161.395 256.593,175.562 250.5,189C 251.051,190.958 251.385,192.958 251.5,195C 247.579,216.323 245.246,237.823 244.5,259.5C 244.039,261.55 243.372,263.55 242.5,265.5C 243.85,267.783 243.517,269.783 241.5,271.5C 238.833,271.5 236.167,271.5 233.5,271.5C 232.5,271.5 231.5,271.5 230.5,271.5C 230.661,268.472 229.994,265.639 228.5,263C 228.63,261.941 229.13,261.108 230,260.5C 230.808,247.831 231.641,235.165 232.5,222.5C 231.411,207.985 229.578,193.651 227,179.5C 222.847,192.442 218.847,205.442 215,218.5C 214.667,232.5 214.333,246.5 214,260.5C 211.985,262.478 212.152,264.312 214.5,266C 213.259,267.698 211.926,269.198 210.5,270.5C 208.167,270.5 205.833,270.5 203.5,270.5C 201.549,270.773 200.049,270.107 199,268.5C 198.133,263.773 197.633,258.773 197.5,253.5C 199.856,221.547 201.023,189.547 201,157.5C 202.605,153.515 204.105,149.515 205.5,145.5 Z"/></g>
<g><path style="opacity:1" fill="#e4e4e4" d="M 147.5,155.5 C 148.675,155.281 149.675,155.614 150.5,156.5C 148.775,162.932 144.775,165.598 138.5,164.5C 140.824,163.338 143.158,162.171 145.5,161C 146.861,159.416 147.528,157.582 147.5,155.5 Z"/></g>
<g><path style="opacity:1" fill="#d3cafb" d="M 233.5,271.5 C 233.5,272.5 233.5,273.5 233.5,274.5C 231.416,276.83 228.749,277.997 225.5,278C 223.266,279.638 221.933,281.805 221.5,284.5C 218.5,284.5 215.5,284.5 212.5,284.5C 213.036,281.302 212.369,278.635 210.5,276.5C 210.5,274.5 210.5,272.5 210.5,270.5C 211.926,269.198 213.259,267.698 214.5,266C 212.152,264.312 211.985,262.478 214,260.5C 214.333,246.5 214.667,232.5 215,218.5C 218.847,205.442 222.847,192.442 227,179.5C 229.578,193.651 231.411,207.985 232.5,222.5C 231.641,235.165 230.808,247.831 230,260.5C 229.13,261.108 228.63,261.941 228.5,263C 229.994,265.639 230.661,268.472 230.5,271.5C 231.5,271.5 232.5,271.5 233.5,271.5 Z"/></g>
<g><path style="opacity:1" fill="#080808" d="M 130.5,184.5 C 140.881,183.318 144.714,187.651 142,197.5C 139.176,200.498 135.676,201.832 131.5,201.5C 130.522,197.377 128.856,193.543 126.5,190C 127.65,188.019 128.984,186.186 130.5,184.5 Z"/></g>
<g><path style="opacity:1" fill="#070707" d="M 108.5,187.5 C 124.689,187.177 131.189,194.844 128,210.5C 125.974,214.026 123.141,216.693 119.5,218.5C 117.563,215.489 114.896,213.323 111.5,212C 107.579,211.041 104.412,212.208 102,215.5C 94.3293,203.834 96.496,194.501 108.5,187.5 Z"/></g>
<g><path style="opacity:1" fill="#dadada" d="M 108.5,192.5 C 116.278,192.573 116.278,193.406 108.5,195C 105.36,197.445 103.36,200.612 102.5,204.5C 101.79,199.253 103.79,195.253 108.5,192.5 Z"/></g>
<g><path style="opacity:1" fill="#0e0e0e" d="M 140.5,209.5 C 146.873,209.368 149.373,212.368 148,218.5C 144.171,222.663 140.837,222.329 138,217.5C 137.018,214.225 137.851,211.559 140.5,209.5 Z"/></g>
<g><path style="opacity:1" fill="#090909" d="M 106.5,213.5 C 115.398,213.809 118.065,217.975 114.5,226C 105.763,229.586 101.93,226.752 103,217.5C 104.102,216.051 105.269,214.718 106.5,213.5 Z"/></g>
<g><path style="opacity:0.99" fill="#e5e0fe" d="M 279.5,239.5 C 277.5,241.671 275.666,244.004 274,246.5C 271.763,255.118 268.763,263.451 265,271.5C 260.644,277.429 254.811,280.929 247.5,282C 246.058,282.377 245.058,283.21 244.5,284.5C 244.167,284.5 243.833,284.5 243.5,284.5C 243.663,282.143 243.497,279.81 243,277.5C 242.617,276.944 242.117,276.611 241.5,276.5C 241.5,274.833 241.5,273.167 241.5,271.5C 243.517,269.783 243.85,267.783 242.5,265.5C 243.372,263.55 244.039,261.55 244.5,259.5C 247.407,254.921 251.074,250.921 255.5,247.5C 257.267,250.037 258.767,252.703 260,255.5C 260.203,251.579 260.703,247.745 261.5,244C 267.173,241.164 273.173,239.664 279.5,239.5 Z"/></g>
<g><path style="opacity:1" fill="#f7b1b2" d="M 203.5,270.5 C 205.833,270.5 208.167,270.5 210.5,270.5C 210.5,272.5 210.5,274.5 210.5,276.5C 208.035,276.233 205.701,275.566 203.5,274.5C 203.5,273.167 203.5,271.833 203.5,270.5 Z"/></g>
<g><path style="opacity:1" fill="#f8b5b8" d="M 233.5,271.5 C 236.167,271.5 238.833,271.5 241.5,271.5C 241.5,273.167 241.5,274.833 241.5,276.5C 238.833,275.833 236.167,275.167 233.5,274.5C 233.5,273.5 233.5,272.5 233.5,271.5 Z"/></g>
<g><path style="opacity:1" fill="#333246" d="M 203.5,274.5 C 205.701,275.566 208.035,276.233 210.5,276.5C 212.369,278.635 213.036,281.302 212.5,284.5C 205.5,284.5 198.5,284.5 191.5,284.5C 191.472,282.418 192.139,280.584 193.5,279C 197.184,278.093 200.518,276.593 203.5,274.5 Z"/></g>
<g><path style="opacity:1" fill="#363448" d="M 233.5,274.5 C 236.167,275.167 238.833,275.833 241.5,276.5C 242.117,276.611 242.617,276.944 243,277.5C 243.497,279.81 243.663,282.143 243.5,284.5C 236.167,284.5 228.833,284.5 221.5,284.5C 221.933,281.805 223.266,279.638 225.5,278C 228.749,277.997 231.416,276.83 233.5,274.5 Z"/></g>
<g><path style="opacity:0.644" fill="#140160" d="M 243.5,284.5 C 243.833,284.5 244.167,284.5 244.5,284.5C 260.181,284.167 275.848,284.501 291.5,285.5C 267.176,286.5 242.842,286.833 218.5,286.5C 226.833,285.833 235.167,285.167 243.5,284.5 Z"/></g>
<g><path style="opacity:1" fill="#493b85" d="M 191.5,284.5 C 198.5,284.5 205.5,284.5 212.5,284.5C 215.5,284.5 218.5,284.5 221.5,284.5C 228.833,284.5 236.167,284.5 243.5,284.5C 235.167,285.167 226.833,285.833 218.5,286.5C 218.167,286.5 217.833,286.5 217.5,286.5C 191.165,286.667 164.831,286.5 138.5,286C 156.013,284.515 173.68,284.015 191.5,284.5 Z"/></g>
</svg>
