<svg width="375" height="812" viewBox="0 0 375 812" fill="none" xmlns="http://www.w3.org/2000/svg">
<g clip-path="url(#clip0_693_67)">
<rect width="375" height="812" rx="30" fill="#F9F9F9"/>
<path d="M405.802 685.423C534.556 679.362 391.25 506.086 512.697 653.892L428.773 803.636L-4.1246 831.642L-142.737 759.52L-120.855 613.333L11.4611 511.641C-6.2312 551.178 -66.2476 697.886 116.696 642.783C345.375 573.903 202.678 694.987 405.802 685.423Z" fill="#7551FF" fill-opacity="0.09"/>
<path d="M255 241C92.7213 423.046 102 151.165 -81.5002 241L-68.5015 -4.49913L158.61 -0.51276L363.971 3.09186L472.353 98.2653L425.604 289.695C412.078 227.982 384.823 95.3633 255 241Z" fill="#7551FF" fill-opacity="0.09"/>
</g>
<defs>
<clipPath id="clip0_693_67">
<rect width="375" height="812" rx="30" fill="white"/>
</clipPath>
</defs>
</svg>
