<?xml version="1.0" encoding="UTF-8"?>
<!DOCTYPE svg PUBLIC "-//W3C//DTD SVG 1.1//EN" "http://www.w3.org/Graphics/SVG/1.1/DTD/svg11.dtd">
<svg xmlns="http://www.w3.org/2000/svg" version="1.1" width="300px" height="300px" style="shape-rendering:geometricPrecision; text-rendering:geometricPrecision; image-rendering:optimizeQuality; fill-rule:evenodd; clip-rule:evenodd" xmlns:xlink="http://www.w3.org/1999/xlink">
<g><path style="opacity:0.96" fill="#d5ccfd" d="M 41.5,3.5 C 60.1696,3.33339 78.8363,3.50005 97.5,4C 102.206,5.1045 105.373,7.93783 107,12.5C 107.667,32.1667 107.667,51.8333 107,71.5C 105.108,75.0579 102.275,77.5579 98.5,79C 79.1667,79.6667 59.8333,79.6667 40.5,79C 36.6119,76.7785 33.7786,73.6118 32,69.5C 31.3333,50.8333 31.3333,32.1667 32,13.5C 34.0223,8.98004 37.189,5.6467 41.5,3.5 Z M 46.5,13.5 C 61.837,13.3334 77.1703,13.5001 92.5,14C 93.7659,14.3095 94.9326,14.8095 96,15.5C 97.1229,24.0947 97.6229,32.7614 97.5,41.5C 97.3333,49.1667 97.1667,56.8333 97,64.5C 96.6905,65.7659 96.1905,66.9326 95.5,68C 86.9053,69.1229 78.2386,69.6229 69.5,69.5C 61.8333,69.3333 54.1667,69.1667 46.5,69C 45.2341,68.6905 44.0674,68.1905 43,67.5C 42.3333,50.5 42.3333,33.5 43,16.5C 44.1451,15.3636 45.3117,14.3636 46.5,13.5 Z"/></g>
<g><path style="opacity:0.933" fill="#d6cdfe" d="M 149.5,4.5 C 150.552,4.35055 151.552,4.51722 152.5,5C 154.291,7.41399 155.957,9.91399 157.5,12.5C 153.331,15.8281 148.997,18.9948 144.5,22C 194.949,21.9647 233.449,43.1314 260,85.5C 260.851,87.5921 261.518,89.5921 262,91.5C 259.429,93.3527 256.762,95.0194 254,96.5C 229.565,54.8558 193.065,33.6891 144.5,33C 148.871,36.1786 153.205,39.3453 157.5,42.5C 156.025,45.8146 153.858,48.4813 151,50.5C 139.593,43.5457 128.427,36.2124 117.5,28.5C 116.167,27.8333 116.167,27.1667 117.5,26.5C 128.483,19.4989 139.149,12.1655 149.5,4.5 Z"/></g>
<g><path style="opacity:0.927" fill="#d7cefe" d="M 84.5,23.5 C 86.649,25.0456 88.8156,26.7122 91,28.5C 91.9819,29.7589 92.3152,31.0922 92,32.5C 81.5841,43.2517 70.9174,53.5851 60,63.5C 56,59.5 52,55.5 48,51.5C 48.6422,47.6486 50.8089,44.6486 54.5,42.5C 56.5,44.1667 58.5,45.8333 60.5,47.5C 68.576,39.4848 76.576,31.4848 84.5,23.5 Z"/></g>
<g><path style="opacity:0.945" fill="#d6cdfd" d="M 130.5,88.5 C 143.167,88.5 155.833,88.5 168.5,88.5C 168.334,96.922 171.334,98.7553 177.5,94C 178.833,93.3333 180.167,93.3333 181.5,94C 189.333,101.833 197.167,109.667 205,117.5C 204.043,121.093 203.377,124.76 203,128.5C 205.301,129.867 207.801,130.534 210.5,130.5C 210.5,143.167 210.5,155.833 210.5,168.5C 202.07,168.341 200.237,171.341 205,177.5C 205.667,178.833 205.667,180.167 205,181.5C 197.167,189.333 189.333,197.167 181.5,205C 177.907,204.043 174.24,203.377 170.5,203C 169.446,205.382 168.779,207.882 168.5,210.5C 155.833,210.5 143.167,210.5 130.5,210.5C 130.659,202.07 127.659,200.237 121.5,205C 120.167,205.667 118.833,205.667 117.5,205C 109.667,197.167 101.833,189.333 94,181.5C 94.9568,177.907 95.6235,174.24 96,170.5C 93.6178,169.446 91.1178,168.779 88.5,168.5C 88.5,155.833 88.5,143.167 88.5,130.5C 96.922,130.666 98.7553,127.666 94,121.5C 93.3333,120.167 93.3333,118.833 94,117.5C 101.833,109.667 109.667,101.833 117.5,94C 121.093,94.9568 124.76,95.6235 128.5,96C 129.867,93.6985 130.534,91.1985 130.5,88.5 Z M 139.5,98.5 C 146.175,98.3337 152.842,98.5004 159.5,99C 160.669,101.007 161.335,103.173 161.5,105.5C 164.949,106.639 168.449,107.639 172,108.5C 174.261,108.561 176.261,107.894 178,106.5C 182.833,111.333 187.667,116.167 192.5,121C 189.64,126.826 190.306,132.326 194.5,137.5C 196.382,138.093 198.215,138.76 200,139.5C 200.667,146.167 200.667,152.833 200,159.5C 197.993,160.669 195.827,161.335 193.5,161.5C 192.394,164.904 191.394,168.404 190.5,172C 190.439,174.261 191.106,176.261 192.5,178C 187.667,182.833 182.833,187.667 178,192.5C 172.174,189.64 166.674,190.306 161.5,194.5C 160.907,196.382 160.24,198.215 159.5,200C 152.833,200.667 146.167,200.667 139.5,200C 138.331,197.993 137.665,195.827 137.5,193.5C 134.051,192.361 130.551,191.361 127,190.5C 124.739,190.439 122.739,191.106 121,192.5C 116.167,187.667 111.333,182.833 106.5,178C 108.393,175.083 108.893,171.916 108,168.5C 106.39,166.403 105.223,164.07 104.5,161.5C 102.618,160.907 100.785,160.24 99,159.5C 98.3333,152.833 98.3333,146.167 99,139.5C 101.007,138.331 103.173,137.665 105.5,137.5C 106.639,134.051 107.639,130.551 108.5,127C 108.561,124.739 107.894,122.739 106.5,121C 111.333,116.167 116.167,111.333 121,106.5C 126.826,109.36 132.326,108.694 137.5,104.5C 138.172,102.47 138.838,100.47 139.5,98.5 Z M 142.5,122.5 C 166.801,121.633 177.967,133.3 176,157.5C 167.378,175.265 153.878,180.431 135.5,173C 121.89,163.212 118.723,150.712 126,135.5C 130.166,129.35 135.666,125.017 142.5,122.5 Z M 145.5,141.5 C 154.657,140.489 158.49,144.489 157,153.5C 152,158.833 147,158.833 142,153.5C 140.593,148.643 141.76,144.643 145.5,141.5 Z"/></g>
<g><path style="opacity:0.934" fill="#d6cdfe" d="M 33.5,95.5 C 36.8333,96.5 40.1667,97.5 43.5,98.5C 43.6602,100.199 43.4935,101.866 43,103.5C 34.0866,122.859 31.0866,143.193 34,164.5C 35.238,172.121 37.4047,179.454 40.5,186.5C 42.9272,180.033 44.5939,173.366 45.5,166.5C 49.1667,167.167 52.8333,167.833 56.5,168.5C 53.0423,183.542 49.3757,198.542 45.5,213.5C 34.2931,207.132 22.9598,200.966 11.5,195C 9.37318,193.949 7.70651,192.449 6.5,190.5C 7.3734,187.302 9.04007,184.636 11.5,182.5C 17.8743,185.437 24.041,188.771 30,192.5C 19.1534,159.808 20.3201,127.475 33.5,95.5 Z"/></g>
<g><path style="opacity:0.938" fill="#d6cdfe" d="M 142.5,111.5 C 173.304,110.804 188.138,125.804 187,156.5C 180.873,179.16 166.04,189.327 142.5,187C 119.84,180.873 109.673,166.04 112,142.5C 115.681,125.653 125.847,115.32 142.5,111.5 Z M 142.5,122.5 C 135.666,125.017 130.166,129.35 126,135.5C 118.723,150.712 121.89,163.212 135.5,173C 153.878,180.431 167.378,175.265 176,157.5C 177.967,133.3 166.801,121.633 142.5,122.5 Z M 145.5,141.5 C 141.76,144.643 140.593,148.643 142,153.5C 147,158.833 152,158.833 157,153.5C 158.49,144.489 154.657,140.489 145.5,141.5 Z"/></g>
<g><path style="opacity:0.935" fill="#d5ccfd" d="M 229.5,111.5 C 248.17,111.333 266.836,111.5 285.5,112C 289.982,113.815 293.148,116.982 295,121.5C 295.667,140.167 295.667,158.833 295,177.5C 293.443,180.773 291.276,183.606 288.5,186C 268.898,187.63 249.232,187.963 229.5,187C 225.444,185.609 222.278,183.109 220,179.5C 219.333,159.833 219.333,140.167 220,120.5C 222.075,116.256 225.242,113.256 229.5,111.5 Z M 234.5,121.5 C 249.837,121.333 265.17,121.5 280.5,122C 281.624,122.249 282.624,122.749 283.5,123.5C 284.833,140.833 284.833,158.167 283.5,175.5C 282.624,176.251 281.624,176.751 280.5,177C 265.167,177.667 249.833,177.667 234.5,177C 233.234,176.691 232.067,176.191 231,175.5C 229.378,159.234 229.045,142.9 230,126.5C 230.348,123.658 231.848,121.991 234.5,121.5 Z"/></g>
<g><path style="opacity:0.937" fill="#d6cdfe" d="M 142.5,130.5 C 161.649,128.815 170.149,137.482 168,156.5C 161.231,168.778 151.397,171.945 138.5,166C 130.021,158.263 128.187,149.096 133,138.5C 135.775,135.22 138.942,132.554 142.5,130.5 Z M 145.5,141.5 C 141.76,144.643 140.593,148.643 142,153.5C 147,158.833 152,158.833 157,153.5C 158.49,144.489 154.657,140.489 145.5,141.5 Z"/></g>
<g><path style="opacity:0.937" fill="#d6cdfe" d="M 271.5,131.5 C 274.899,133.388 277.899,135.888 280.5,139C 269.667,149.833 258.833,160.667 248,171.5C 243.667,167.167 239.333,162.833 235,158.5C 236.132,155.018 238.465,152.351 242,150.5C 244.281,151.776 246.281,153.443 248,155.5C 256.036,147.632 263.869,139.632 271.5,131.5 Z"/></g>
<g><path style="opacity:0.937" fill="#d6cdfe" d="M 258.5,199.5 C 259.822,199.33 260.989,199.663 262,200.5C 263.834,214.842 265.667,229.175 267.5,243.5C 263.846,243.942 260.179,244.276 256.5,244.5C 256.249,237.27 255.082,230.27 253,223.5C 219.574,266.653 175.741,283.487 121.5,274C 112.363,272.121 103.697,268.954 95.5,264.5C 96.9416,261.95 98.1083,259.284 99,256.5C 99.5613,255.978 100.228,255.645 101,255.5C 151.516,275.064 196.182,266.064 235,228.5C 238.5,224 242,219.5 245.5,215C 245,214.833 244.5,214.667 244,214.5C 235.876,216.739 227.709,218.739 219.5,220.5C 219.058,216.846 218.724,213.179 218.5,209.5C 232.039,206.531 245.372,203.198 258.5,199.5 Z"/></g>
<g><path style="opacity:0.945" fill="#d6ccfd" d="M 12.5,219.5 C 31.8362,219.333 51.1695,219.5 70.5,220C 74.6667,221.5 77.5,224.333 79,228.5C 79.6667,247.833 79.6667,267.167 79,286.5C 77.2068,289.295 75.0402,291.795 72.5,294C 52.8983,295.63 33.2316,295.963 13.5,295C 10.0976,293.6 7.2643,291.433 5,288.5C 3.37025,268.898 3.03691,249.232 4,229.5C 5.67725,225.122 8.51058,221.788 12.5,219.5 Z M 18.5,229.5 C 33.837,229.333 49.1703,229.5 64.5,230C 65.7659,230.309 66.9326,230.809 68,231.5C 69.1229,240.095 69.6229,248.761 69.5,257.5C 69.3333,265.167 69.1667,272.833 69,280.5C 68.6905,281.766 68.1905,282.933 67.5,284C 50.5,284.667 33.5,284.667 16.5,284C 16,283.5 15.5,283 15,282.5C 13.3644,266.592 13.031,250.592 14,234.5C 14.3477,231.658 15.8477,229.991 18.5,229.5 Z"/></g>
<g><path style="opacity:0.928" fill="#d7cefe" d="M 55.5,239.5 C 58.9594,240.436 61.7928,242.436 64,245.5C 64.6667,246.167 64.6667,246.833 64,247.5C 54.1667,258 44,268.167 33.5,278C 32.5,278.667 31.5,278.667 30.5,278C 26.8491,274.07 23.0157,270.236 19,266.5C 20.1811,262.812 22.6811,260.145 26.5,258.5C 28.7472,259.245 30.5805,260.578 32,262.5C 40.3258,255.341 48.1592,247.674 55.5,239.5 Z"/></g>
</svg>
