<?xml version="1.0" encoding="UTF-8"?>
<!DOCTYPE svg PUBLIC "-//W3C//DTD SVG 1.1//EN" "http://www.w3.org/Graphics/SVG/1.1/DTD/svg11.dtd">
<svg xmlns="http://www.w3.org/2000/svg" version="1.1" width="370px" height="350px" style="shape-rendering:geometricPrecision; text-rendering:geometricPrecision; image-rendering:optimizeQuality; fill-rule:evenodd; clip-rule:evenodd" xmlns:xlink="http://www.w3.org/1999/xlink">
<g><path style="opacity:0.993" fill="#fefefe" d="M 155.5,-0.5 C 176.833,-0.5 198.167,-0.5 219.5,-0.5C 292.616,11.1114 340.783,52.1114 364,122.5C 366.281,131.551 368.115,140.551 369.5,149.5C 369.5,163.833 369.5,178.167 369.5,192.5C 361.006,253.681 330.006,299.514 276.5,330C 256.487,340.08 235.487,346.58 213.5,349.5C 194.5,349.5 175.5,349.5 156.5,349.5C 95.319,341.006 49.4856,310.006 19,256.5C 8.91987,236.487 2.41987,215.487 -0.5,193.5C -0.5,181.167 -0.5,168.833 -0.5,156.5C 7.99364,95.319 38.9936,49.4856 92.5,19C 112.513,8.91987 133.513,2.41987 155.5,-0.5 Z"/></g>
<g><path style="opacity:1" fill="#232323" d="M 204.5,96.5 C 199.349,97.3267 194.016,97.8267 188.5,98C 187.748,98.6708 187.414,99.5041 187.5,100.5C 186.833,101.5 186.167,102.5 185.5,103.5C 175.402,97.5067 164.402,94.3401 152.5,94C 123.169,93.5 93.8352,93.3334 64.5,93.5C 64.5,120.5 64.5,147.5 64.5,174.5C 95.5018,174.667 126.502,174.5 157.5,174C 166.959,172.457 175.959,169.624 184.5,165.5C 185.489,170.975 185.822,176.642 185.5,182.5C 185.5,182.833 185.5,183.167 185.5,183.5C 180.659,185.294 175.659,186.627 170.5,187.5C 164.9,188.686 159.233,189.353 153.5,189.5C 153.5,218.833 153.5,248.167 153.5,277.5C 145.648,277.825 137.982,277.492 130.5,276.5C 130.5,247.833 130.5,219.167 130.5,190.5C 108.5,190.5 86.5,190.5 64.5,190.5C 64.5,218.5 64.5,246.5 64.5,274.5C 64.5,275.167 64.1667,275.5 63.5,275.5C 62.828,274.733 61.9947,274.066 61,273.5C 56.2633,274.469 51.43,274.803 46.5,274.5C 46.8324,211.664 46.4991,148.998 45.5,86.5C 45.5,83.8333 45.5,81.1667 45.5,78.5C 85.1681,78.3333 124.835,78.5 164.5,79C 174.124,81.0731 183.457,84.0731 192.5,88C 197.094,90.1184 201.094,92.9517 204.5,96.5 Z"/></g>
<g><path style="opacity:1" fill="#1b1b1b" d="M 45.5,86.5 C 46.4991,148.998 46.8324,211.664 46.5,274.5C 51.43,274.803 56.2633,274.469 61,273.5C 61.9947,274.066 62.828,274.733 63.5,275.5C 57.7657,276.825 51.9323,276.825 46,275.5C 45.5,212.501 45.3333,149.501 45.5,86.5 Z"/></g>
<g><path style="opacity:1" fill="#fdfdfd" d="M 185.5,103.5 C 186.833,123.833 186.833,144.167 185.5,164.5C 184.833,164.5 184.5,164.833 184.5,165.5C 175.959,169.624 166.959,172.457 157.5,174C 126.502,174.5 95.5018,174.667 64.5,174.5C 64.5,147.5 64.5,120.5 64.5,93.5C 93.8352,93.3334 123.169,93.5 152.5,94C 164.402,94.3401 175.402,97.5067 185.5,103.5 Z"/></g>
<g><path style="opacity:1" fill="#31746f" d="M 204.5,96.5 C 204.833,96.5 205.167,96.5 205.5,96.5C 200.593,98.289 195.26,99.1223 189.5,99C 188.956,99.7172 188.289,100.217 187.5,100.5C 187.414,99.5041 187.748,98.6708 188.5,98C 194.016,97.8267 199.349,97.3267 204.5,96.5 Z"/></g>
<g><path style="opacity:1" fill="#232220" d="M 218.5,117.5 C 218.833,117.5 219.167,117.5 219.5,117.5C 221.744,126.749 222.078,136.082 220.5,145.5C 219.129,147.936 218.129,150.603 217.5,153.5C 214.918,159.067 211.584,164.067 207.5,168.5C 206.503,151.675 206.17,134.675 206.5,117.5C 210.5,117.5 214.5,117.5 218.5,117.5 Z"/></g>
<g><path style="opacity:1" fill="#103734" d="M 205.5,116.5 C 210.032,116.182 214.366,116.515 218.5,117.5C 214.5,117.5 210.5,117.5 206.5,117.5C 206.17,134.675 206.503,151.675 207.5,168.5C 207.5,169.167 207.167,169.5 206.5,169.5C 205.503,152.008 205.17,134.341 205.5,116.5 Z"/></g>
<g><path style="opacity:1" fill="#515151" d="M 152.5,144.5 C 144.799,144.309 137.132,144.642 129.5,145.5C 129.918,144.778 130.584,144.278 131.5,144C 138.679,143.179 145.679,143.345 152.5,144.5 Z"/></g>
<g><path style="opacity:1" fill="#327a75" d="M 205.5,116.5 C 205.17,134.341 205.503,152.008 206.5,169.5C 206.5,169.833 206.5,170.167 206.5,170.5C 206.167,170.5 205.833,170.5 205.5,170.5C 204.167,152.5 204.167,134.5 205.5,116.5 Z"/></g>
<g><path style="opacity:1" fill="#232323" d="M 152.5,144.5 C 155.745,144.97 158.579,146.303 161,148.5C 161.667,150.5 161.667,152.5 161,154.5C 157.425,157.604 153.258,159.271 148.5,159.5C 141.711,159.799 135.044,159.132 128.5,157.5C 123.922,156.118 122.422,153.118 124,148.5C 125.488,146.84 127.321,145.84 129.5,145.5C 137.132,144.642 144.799,144.309 152.5,144.5 Z"/></g>
<g><path style="opacity:1" fill="#b3b1af" d="M 220.5,145.5 C 220.655,148.716 219.655,151.383 217.5,153.5C 218.129,150.603 219.129,147.936 220.5,145.5 Z"/></g>
<g><path style="opacity:1" fill="#939393" d="M 128.5,157.5 C 135.044,159.132 141.711,159.799 148.5,159.5C 144.019,160.648 139.352,160.815 134.5,160C 132.277,159.434 130.277,158.6 128.5,157.5 Z"/></g>
<g><path style="opacity:1" fill="#194a45" d="M 184.5,165.5 C 184.5,164.833 184.833,164.5 185.5,164.5C 186.833,170.5 186.833,176.5 185.5,182.5C 185.822,176.642 185.489,170.975 184.5,165.5 Z"/></g>
<g><path style="opacity:1" fill="#beece9" d="M 205.5,170.5 C 205.833,170.5 206.167,170.5 206.5,170.5C 206.5,173.833 206.5,177.167 206.5,180.5C 229.673,180.169 252.673,180.502 275.5,181.5C 252.167,181.5 228.833,181.5 205.5,181.5C 205.5,177.833 205.5,174.167 205.5,170.5 Z"/></g>
<g><path style="opacity:1" fill="#30b5ad" d="M 205.5,96.5 C 241.762,97.3268 278.095,97.8268 314.5,98C 315.333,98.8333 316.167,99.6667 317,100.5C 317.667,104.5 317.667,108.5 317,112.5C 315.833,113.667 314.667,114.833 313.5,116C 281.997,116.168 250.664,116.668 219.5,117.5C 219.167,117.5 218.833,117.5 218.5,117.5C 214.366,116.515 210.032,116.182 205.5,116.5C 204.167,134.5 204.167,152.5 205.5,170.5C 205.5,174.167 205.5,177.833 205.5,181.5C 228.833,181.5 252.167,181.5 275.5,181.5C 277.972,183.904 278.972,186.904 278.5,190.5C 278.972,194.096 277.972,197.096 275.5,199.5C 252.167,199.5 228.833,199.5 205.5,199.5C 205.5,221.833 205.5,244.167 205.5,266.5C 242.167,266.5 278.833,266.5 315.5,266.5C 318.115,268.903 318.948,271.903 318,275.5C 315.5,278.667 313,281.833 310.5,285C 270.167,285.667 229.833,285.667 189.5,285C 188.667,284.167 187.833,283.333 187,282.5C 186.832,249.331 186.332,216.331 185.5,183.5C 185.5,183.167 185.5,182.833 185.5,182.5C 186.833,176.5 186.833,170.5 185.5,164.5C 186.833,144.167 186.833,123.833 185.5,103.5C 186.167,102.5 186.833,101.5 187.5,100.5C 188.289,100.217 188.956,99.7172 189.5,99C 195.26,99.1223 200.593,98.289 205.5,96.5 Z"/></g>
<g><path style="opacity:1" fill="#9c9c9c" d="M 170.5,187.5 C 170.389,188.117 170.056,188.617 169.5,189C 164.536,189.912 159.536,190.412 154.5,190.5C 154.831,219.671 154.498,248.671 153.5,277.5C 153.5,248.167 153.5,218.833 153.5,189.5C 159.233,189.353 164.9,188.686 170.5,187.5 Z"/></g>
<g><path style="opacity:1" fill="#e1e1e1" d="M 130.5,276.5 C 129.502,248.338 129.169,220.005 129.5,191.5C 108.167,191.5 86.8333,191.5 65.5,191.5C 65.8313,219.338 65.4979,247.005 64.5,274.5C 64.5,246.5 64.5,218.5 64.5,190.5C 86.5,190.5 108.5,190.5 130.5,190.5C 130.5,219.167 130.5,247.833 130.5,276.5 Z"/></g>
<g><path style="opacity:1" fill="#c1f1ed" d="M 275.5,199.5 C 252.673,200.498 229.673,200.831 206.5,200.5C 206.5,222.167 206.5,243.833 206.5,265.5C 243.004,265.168 279.337,265.502 315.5,266.5C 278.833,266.5 242.167,266.5 205.5,266.5C 205.5,244.167 205.5,221.833 205.5,199.5C 228.833,199.5 252.167,199.5 275.5,199.5 Z"/></g>
</svg>
