<?xml version="1.0" encoding="UTF-8"?>
<!DOCTYPE svg PUBLIC "-//W3C//DTD SVG 1.1//EN" "http://www.w3.org/Graphics/SVG/1.1/DTD/svg11.dtd">
<svg xmlns="http://www.w3.org/2000/svg" version="1.1" width="350px" height="360px" style="shape-rendering:geometricPrecision; text-rendering:geometricPrecision; image-rendering:optimizeQuality; fill-rule:evenodd; clip-rule:evenodd" xmlns:xlink="http://www.w3.org/1999/xlink">
<g><path style="opacity:0.993" fill="#fdfdfd" d="M 155.5,-0.5 C 167.833,-0.5 180.167,-0.5 192.5,-0.5C 253.681,7.99364 299.514,38.9936 330,92.5C 340.08,112.513 346.58,133.513 349.5,155.5C 349.5,171.167 349.5,186.833 349.5,202.5C 341.006,263.681 310.006,309.514 256.5,340C 236.487,350.08 215.487,356.58 193.5,359.5C 181.167,359.5 168.833,359.5 156.5,359.5C 95.319,351.006 49.4856,320.006 19,266.5C 8.91987,246.487 2.41987,225.487 -0.5,203.5C -0.5,187.833 -0.5,172.167 -0.5,156.5C 7.99364,95.319 38.9936,49.4856 92.5,19C 112.513,8.91987 133.513,2.41987 155.5,-0.5 Z"/></g>
<g><path style="opacity:1" fill="#242363" d="M 169.5,107.5 C 167.801,107.66 166.134,107.494 164.5,107C 155.837,90.3352 142.504,84.6685 124.5,90C 113.854,98.0732 110.354,108.573 114,121.5C 118.34,134.375 125.173,145.709 134.5,155.5C 130.363,155.854 126.363,155.354 122.5,154C 120.732,151.116 118.732,148.449 116.5,146C 116.833,145.667 117.167,145.333 117.5,145C 113.915,143.397 113.582,141.231 116.5,138.5C 117.396,139.506 118.062,139.506 118.5,138.5C 117.811,136.556 117.311,134.556 117,132.5C 115.326,131.324 113.826,129.99 112.5,128.5C 111.833,129.833 111.167,131.167 110.5,132.5C 110.167,132.167 109.833,131.833 109.5,131.5C 106.851,123.571 104.851,115.571 103.5,107.5C 106.794,90.0402 117.294,80.3736 135,78.5C 151.636,78.4752 163.636,85.8085 171,100.5C 171.833,103.171 171.333,105.504 169.5,107.5 Z"/></g>
<g><path style="opacity:1" fill="#0caceb" d="M 169.5,107.5 C 170.262,109.262 171.596,110.262 173.5,110.5C 173.5,110.833 173.5,111.167 173.5,111.5C 160.378,122.113 157.878,135.113 166,150.5C 167.758,152.765 169.925,154.432 172.5,155.5C 173.347,156.966 174.68,157.8 176.5,158C 179.757,159.043 183.09,159.543 186.5,159.5C 186.167,160.167 185.833,160.833 185.5,161.5C 174.116,160.421 162.783,158.921 151.5,157C 146.177,156.501 140.844,156.334 135.5,156.5C 135.5,155.833 135.167,155.5 134.5,155.5C 125.173,145.709 118.34,134.375 114,121.5C 110.354,108.573 113.854,98.0732 124.5,90C 142.504,84.6685 155.837,90.3352 164.5,107C 166.134,107.494 167.801,107.66 169.5,107.5 Z"/></g>
<g><path style="opacity:1" fill="#262152" d="M 235.5,94.5 C 235.047,95.4584 234.381,96.2917 233.5,97C 231.19,97.4966 228.857,97.6633 226.5,97.5C 226.915,95.0523 225.915,93.7189 223.5,93.5C 216.366,94.4075 209.366,95.5742 202.5,97C 209.524,97.1689 216.524,97.6689 223.5,98.5C 224.602,99.1757 225.602,99.8423 226.5,100.5C 223.167,100.5 219.833,100.5 216.5,100.5C 212.763,98.8406 209.263,99.174 206,101.5C 203.512,98.5032 200.346,97.1699 196.5,97.5C 209.099,92.4795 222.099,91.4795 235.5,94.5 Z"/></g>
<g><path style="opacity:1" fill="#252064" d="M 196.5,97.5 C 200.346,97.1699 203.512,98.5032 206,101.5C 209.263,99.174 212.763,98.8406 216.5,100.5C 211.681,101.566 206.681,102.4 201.5,103C 202.056,103.383 202.389,103.883 202.5,104.5C 197.836,104.819 193.836,103.486 190.5,100.5C 192.033,98.7549 194.033,97.7549 196.5,97.5 Z"/></g>
<g><path style="opacity:1" fill="#2d2142" d="M 243.5,127.5 C 245.65,116.181 241.65,108.014 231.5,103C 221.73,102.05 212.063,102.55 202.5,104.5C 202.389,103.883 202.056,103.383 201.5,103C 206.681,102.4 211.681,101.566 216.5,100.5C 219.833,100.5 223.167,100.5 226.5,100.5C 228.452,100.995 230.452,101.328 232.5,101.5C 235.186,100.63 237.853,100.13 240.5,100C 236.87,103.692 237.536,106.859 242.5,109.5C 243.543,112.796 244.876,115.963 246.5,119C 245.309,121.838 244.309,124.672 243.5,127.5 Z"/></g>
<g><path style="opacity:1" fill="#2a2055" d="M 190.5,100.5 C 193.836,103.486 197.836,104.819 202.5,104.5C 198.039,106.564 193.706,108.898 189.5,111.5C 185.673,113.246 182.007,115.246 178.5,117.5C 178.714,115.856 178.38,114.356 177.5,113C 180.305,113.608 182.638,112.608 184.5,110C 182.729,107.887 181.229,108.053 180,110.5C 179.439,109.978 178.772,109.645 178,109.5C 176.594,110.414 175.094,111.08 173.5,111.5C 173.5,111.167 173.5,110.833 173.5,110.5C 178.663,106.342 184.33,103.009 190.5,100.5 Z"/></g>
<g><path style="opacity:1" fill="#f3cf46" d="M 241.5,130.5 C 241.037,133.221 240.371,135.888 239.5,138.5C 238.441,141.618 237.108,144.618 235.5,147.5C 232.41,148.665 231.076,150.998 231.5,154.5C 225.674,154.95 220.341,156.617 215.5,159.5C 212.615,159.194 209.948,159.527 207.5,160.5C 203.167,160.5 198.833,160.5 194.5,160.5C 194.827,158.512 195.16,156.512 195.5,154.5C 195.469,151.825 194.136,150.491 191.5,150.5C 191.5,149.5 191.5,148.5 191.5,147.5C 187.416,147.957 183.583,147.29 180,145.5C 179.517,144.552 179.351,143.552 179.5,142.5C 176.951,142.559 174.951,141.559 173.5,139.5C 172.341,135.878 172.175,132.211 173,128.5C 174.509,127.91 176.009,127.244 177.5,126.5C 175.995,125.158 175.328,123.492 175.5,121.5C 176.167,120.5 176.833,119.5 177.5,118.5C 178.167,118.5 178.5,118.167 178.5,117.5C 182.007,115.246 185.673,113.246 189.5,111.5C 195.34,109.918 201.007,107.752 206.5,105C 214.833,104.333 223.167,104.333 231.5,105C 232.939,105.991 233.939,107.324 234.5,109C 235.793,109.49 237.127,109.657 238.5,109.5C 238.608,111.783 239.441,113.783 241,115.5C 241.499,120.489 241.666,125.489 241.5,130.5 Z"/></g>
<g><path style="opacity:1" fill="#292263" d="M 235.5,94.5 C 247.327,99.0138 253.327,107.68 253.5,120.5C 252.732,125.509 251.898,130.509 251,135.5C 250.102,138.069 248.935,140.402 247.5,142.5C 247.299,137.29 247.966,132.29 249.5,127.5C 248.167,127.5 246.833,127.5 245.5,127.5C 245.124,133.882 244.291,140.216 243,146.5C 240.803,148.949 239.303,148.783 238.5,146C 239.611,142.676 241.111,139.51 243,136.5C 243.498,133.518 243.665,130.518 243.5,127.5C 244.309,124.672 245.309,121.838 246.5,119C 244.876,115.963 243.543,112.796 242.5,109.5C 237.536,106.859 236.87,103.692 240.5,100C 237.853,100.13 235.186,100.63 232.5,101.5C 230.452,101.328 228.452,100.995 226.5,100.5C 225.602,99.8423 224.602,99.1757 223.5,98.5C 216.524,97.6689 209.524,97.1689 202.5,97C 209.366,95.5742 216.366,94.4075 223.5,93.5C 225.915,93.7189 226.915,95.0523 226.5,97.5C 228.857,97.6633 231.19,97.4966 233.5,97C 234.381,96.2917 235.047,95.4584 235.5,94.5 Z"/></g>
<g><path style="opacity:1" fill="#dac17b" d="M 243.5,127.5 C 242.596,128.209 242.263,129.209 242.5,130.5C 242.167,130.5 241.833,130.5 241.5,130.5C 241.666,125.489 241.499,120.489 241,115.5C 239.441,113.783 238.608,111.783 238.5,109.5C 237.127,109.657 235.793,109.49 234.5,109C 233.939,107.324 232.939,105.991 231.5,105C 223.167,104.333 214.833,104.333 206.5,105C 201.007,107.752 195.34,109.918 189.5,111.5C 193.706,108.898 198.039,106.564 202.5,104.5C 212.063,102.55 221.73,102.05 231.5,103C 241.65,108.014 245.65,116.181 243.5,127.5 Z"/></g>
<g><path style="opacity:1" fill="#211f27" d="M 177.5,118.5 C 176.833,119.5 176.167,120.5 175.5,121.5C 173.32,123.863 171.653,126.53 170.5,129.5C 170.166,126.812 170.832,124.479 172.5,122.5C 172.989,119.676 174.656,118.343 177.5,118.5 Z"/></g>
<g><path style="opacity:1" fill="#232368" d="M 178.5,117.5 C 178.5,118.167 178.167,118.5 177.5,118.5C 174.656,118.343 172.989,119.676 172.5,122.5C 169.905,123.426 167.905,125.093 166.5,127.5C 165.34,131.459 165.173,135.459 166,139.5C 167.117,139.665 168.284,139.998 169.5,140.5C 170.386,141.325 170.719,142.325 170.5,143.5C 169.325,143.281 168.325,143.614 167.5,144.5C 170.841,145.841 173.174,148.174 174.5,151.5C 175.182,150.757 175.849,150.091 176.5,149.5C 177.833,149.5 179.167,149.5 180.5,149.5C 181.301,151.042 181.634,152.708 181.5,154.5C 178.43,154.368 175.43,154.701 172.5,155.5C 169.925,154.432 167.758,152.765 166,150.5C 157.878,135.113 160.378,122.113 173.5,111.5C 175.094,111.08 176.594,110.414 178,109.5C 178.772,109.645 179.439,109.978 180,110.5C 181.229,108.053 182.729,107.887 184.5,110C 182.638,112.608 180.305,113.608 177.5,113C 178.38,114.356 178.714,115.856 178.5,117.5 Z"/></g>
<g><path style="opacity:1" fill="#251f53" d="M 103.5,107.5 C 104.851,115.571 106.851,123.571 109.5,131.5C 109.833,131.833 110.167,132.167 110.5,132.5C 111.167,131.167 111.833,129.833 112.5,128.5C 113.826,129.99 115.326,131.324 117,132.5C 117.311,134.556 117.811,136.556 118.5,138.5C 118.062,139.506 117.396,139.506 116.5,138.5C 113.582,141.231 113.915,143.397 117.5,145C 117.167,145.333 116.833,145.667 116.5,146C 118.732,148.449 120.732,151.116 122.5,154C 126.363,155.354 130.363,155.854 134.5,155.5C 135.167,155.5 135.5,155.833 135.5,156.5C 134.5,156.5 133.5,156.5 132.5,156.5C 129.159,157.005 125.826,157.172 122.5,157C 108.994,143.324 102.661,126.824 103.5,107.5 Z"/></g>
<g><path style="opacity:1" fill="#443636" d="M 241.5,130.5 C 241.833,130.5 242.167,130.5 242.5,130.5C 242.655,133.716 241.655,136.383 239.5,138.5C 240.371,135.888 241.037,133.221 241.5,130.5 Z"/></g>
<g><path style="opacity:1" fill="#e4c36f" d="M 175.5,121.5 C 175.328,123.492 175.995,125.158 177.5,126.5C 176.009,127.244 174.509,127.91 173,128.5C 172.175,132.211 172.341,135.878 173.5,139.5C 174.951,141.559 176.951,142.559 179.5,142.5C 179.351,143.552 179.517,144.552 180,145.5C 183.583,147.29 187.416,147.957 191.5,147.5C 191.5,148.5 191.5,149.5 191.5,150.5C 187.785,150.577 184.119,150.244 180.5,149.5C 176.831,147.155 173.831,144.155 171.5,140.5C 170.656,136.901 170.323,133.234 170.5,129.5C 171.653,126.53 173.32,123.863 175.5,121.5 Z"/></g>
<g><path style="opacity:1" fill="#262351" d="M 172.5,122.5 C 170.832,124.479 170.166,126.812 170.5,129.5C 170.323,133.234 170.656,136.901 171.5,140.5C 172.645,143.681 174.311,146.681 176.5,149.5C 175.849,150.091 175.182,150.757 174.5,151.5C 173.174,148.174 170.841,145.841 167.5,144.5C 168.325,143.614 169.325,143.281 170.5,143.5C 170.719,142.325 170.386,141.325 169.5,140.5C 168.284,139.998 167.117,139.665 166,139.5C 165.173,135.459 165.34,131.459 166.5,127.5C 167.905,125.093 169.905,123.426 172.5,122.5 Z"/></g>
<g><path style="opacity:1" fill="#2b1e4a" d="M 243.5,127.5 C 243.665,130.518 243.498,133.518 243,136.5C 241.111,139.51 239.611,142.676 238.5,146C 239.303,148.783 240.803,148.949 243,146.5C 244.291,140.216 245.124,133.882 245.5,127.5C 246.833,127.5 248.167,127.5 249.5,127.5C 247.966,132.29 247.299,137.29 247.5,142.5C 247.528,144.582 246.861,146.416 245.5,148C 241.598,150.119 237.598,151.952 233.5,153.5C 233.604,151.297 234.27,149.297 235.5,147.5C 237.108,144.618 238.441,141.618 239.5,138.5C 241.655,136.383 242.655,133.716 242.5,130.5C 242.263,129.209 242.596,128.209 243.5,127.5 Z"/></g>
<g><path style="opacity:1" fill="#2f252a" d="M 171.5,140.5 C 173.831,144.155 176.831,147.155 180.5,149.5C 179.167,149.5 177.833,149.5 176.5,149.5C 174.311,146.681 172.645,143.681 171.5,140.5 Z"/></g>
<g><path style="opacity:1" fill="#c2ac73" d="M 235.5,147.5 C 234.27,149.297 233.604,151.297 233.5,153.5C 233.158,154.338 232.492,154.672 231.5,154.5C 231.076,150.998 232.41,148.665 235.5,147.5 Z"/></g>
<g><path style="opacity:1" fill="#272358" d="M 180.5,149.5 C 184.119,150.244 187.785,150.577 191.5,150.5C 194.412,153.923 194.079,156.923 190.5,159.5C 189.167,159.5 187.833,159.5 186.5,159.5C 183.09,159.543 179.757,159.043 176.5,158C 174.68,157.8 173.347,156.966 172.5,155.5C 175.43,154.701 178.43,154.368 181.5,154.5C 181.634,152.708 181.301,151.042 180.5,149.5 Z"/></g>
<g><path style="opacity:1" fill="#d3fcfe" d="M 132.5,156.5 C 133.5,156.5 134.5,156.5 135.5,156.5C 140.844,156.334 146.177,156.501 151.5,157C 162.783,158.921 174.116,160.421 185.5,161.5C 187.027,161.427 188.027,162.094 188.5,163.5C 185.5,163.5 182.5,163.5 179.5,163.5C 164.032,160.596 148.365,158.93 132.5,158.5C 132.5,157.833 132.5,157.167 132.5,156.5 Z"/></g>
<g><path style="opacity:1" fill="#f3efbd" d="M 231.5,154.5 C 229.771,155.236 228.771,156.57 228.5,158.5C 227.5,158.5 226.5,158.5 225.5,158.5C 222.14,158.616 218.807,158.949 215.5,159.5C 220.341,156.617 225.674,154.95 231.5,154.5 Z"/></g>
<g><path style="opacity:1" fill="#e4ce77" d="M 191.5,150.5 C 194.136,150.491 195.469,151.825 195.5,154.5C 195.16,156.512 194.827,158.512 194.5,160.5C 198.833,160.5 203.167,160.5 207.5,160.5C 201.681,161.653 195.681,161.819 189.5,161C 190.056,160.617 190.389,160.117 190.5,159.5C 194.079,156.923 194.412,153.923 191.5,150.5 Z"/></g>
<g><path style="opacity:1" fill="#7dd3f9" d="M 96.5,171.5 C 98.6322,169.045 101.299,167.379 104.5,166.5C 110.799,164.713 117.132,162.879 123.5,161C 135.519,160.301 147.519,160.467 159.5,161.5C 159.5,162.833 159.5,164.167 159.5,165.5C 164.232,165.378 168.898,165.878 173.5,167C 175.872,168.471 175.872,169.637 173.5,170.5C 155.672,166.872 137.672,165.705 119.5,167C 113.2,169.102 107.034,171.602 101,174.5C 99.0188,174.101 97.5188,173.101 96.5,171.5 Z"/></g>
<g><path style="opacity:1" fill="#eaf4e0" d="M 225.5,158.5 C 222.275,159.65 218.942,160.816 215.5,162C 206.523,162.965 197.523,163.465 188.5,163.5C 188.027,162.094 187.027,161.427 185.5,161.5C 185.833,160.833 186.167,160.167 186.5,159.5C 187.833,159.5 189.167,159.5 190.5,159.5C 190.389,160.117 190.056,160.617 189.5,161C 195.681,161.819 201.681,161.653 207.5,160.5C 209.948,159.527 212.615,159.194 215.5,159.5C 218.807,158.949 222.14,158.616 225.5,158.5 Z"/></g>
<g><path style="opacity:1" fill="#83d2f3" d="M 263.5,156.5 C 261.308,158.59 258.641,159.59 255.5,159.5C 255.67,160.822 255.337,161.989 254.5,163C 229.318,175.905 202.985,179.071 175.5,172.5C 183.489,171.546 191.656,170.879 200,170.5C 203.289,170.692 206.456,171.359 209.5,172.5C 212.189,172.455 213.523,171.121 213.5,168.5C 209.205,167.106 204.705,166.439 200,166.5C 191.766,167.794 183.599,167.627 175.5,166C 177.437,165.878 178.77,165.045 179.5,163.5C 182.5,163.5 185.5,163.5 188.5,163.5C 197.523,163.465 206.523,162.965 215.5,162C 218.942,160.816 222.275,159.65 225.5,158.5C 226.5,158.5 227.5,158.5 228.5,158.5C 240.573,154.263 251.573,148.096 261.5,140C 269.689,138.518 272.522,141.685 270,149.5C 267.628,151.703 265.461,154.037 263.5,156.5 Z"/></g>
<g><path style="opacity:1" fill="#dffaf7" d="M 263.5,156.5 C 262.483,159.58 261.316,162.58 260,165.5C 259.667,165.167 259.333,164.833 259,164.5C 255.963,165.709 252.796,166.543 249.5,167C 247.766,169.7 245.432,171.7 242.5,173C 237.08,173.558 231.747,174.391 226.5,175.5C 226.36,177.124 227.027,178.29 228.5,179C 227.095,180.269 225.429,180.769 223.5,180.5C 223.511,178.983 224.177,177.816 225.5,177C 220.457,176.922 215.457,177.422 210.5,178.5C 201.399,178.881 192.399,178.214 183.5,176.5C 173.483,175.296 163.483,173.963 153.5,172.5C 152.508,172.672 151.842,172.338 151.5,171.5C 151.5,170.833 151.5,170.167 151.5,169.5C 159.438,170.934 167.438,171.934 175.5,172.5C 202.985,179.071 229.318,175.905 254.5,163C 255.337,161.989 255.67,160.822 255.5,159.5C 258.641,159.59 261.308,158.59 263.5,156.5 Z"/></g>
<g><path style="opacity:1" fill="#89d2ec" d="M 132.5,158.5 C 148.365,158.93 164.032,160.596 179.5,163.5C 178.77,165.045 177.437,165.878 175.5,166C 183.599,167.627 191.766,167.794 200,166.5C 204.705,166.439 209.205,167.106 213.5,168.5C 213.523,171.121 212.189,172.455 209.5,172.5C 206.456,171.359 203.289,170.692 200,170.5C 191.656,170.879 183.489,171.546 175.5,172.5C 167.438,171.934 159.438,170.934 151.5,169.5C 130.474,165.805 110.974,169.472 93,180.5C 91.3783,180.046 90.2116,179.046 89.5,177.5C 91.2393,174.757 93.5726,172.757 96.5,171.5C 97.5188,173.101 99.0188,174.101 101,174.5C 107.034,171.602 113.2,169.102 119.5,167C 137.672,165.705 155.672,166.872 173.5,170.5C 175.872,169.637 175.872,168.471 173.5,167C 168.898,165.878 164.232,165.378 159.5,165.5C 159.5,164.167 159.5,162.833 159.5,161.5C 147.519,160.467 135.519,160.301 123.5,161C 117.132,162.879 110.799,164.713 104.5,166.5C 112.986,161.295 122.319,158.628 132.5,158.5 Z"/></g>
<g><path style="opacity:1" fill="#262952" d="M 151.5,171.5 C 151.842,172.338 152.508,172.672 153.5,172.5C 155.102,176.095 157.102,179.429 159.5,182.5C 155.421,181.824 153.421,179.491 153.5,175.5C 150.08,175.926 147.247,174.926 145,172.5C 143.393,172.769 142.226,173.603 141.5,175C 145.197,175.738 147.53,177.905 148.5,181.5C 151.5,184 154.5,186.5 157.5,189C 157.167,189.333 156.833,189.667 156.5,190C 158.584,192.044 160.584,194.211 162.5,196.5C 163.429,197.689 163.762,199.022 163.5,200.5C 161.806,199.473 160.473,198.139 159.5,196.5C 156.858,192.225 153.525,188.558 149.5,185.5C 145.037,180.535 140.37,175.702 135.5,171C 140.809,171.096 146.142,171.262 151.5,171.5 Z"/></g>
<g><path style="opacity:1" fill="#212849" d="M 223.5,180.5 C 222.833,180.833 222.167,181.167 221.5,181.5C 220.849,180.909 220.182,180.243 219.5,179.5C 218.158,180.902 217.324,180.569 217,178.5C 216.676,180.569 215.842,180.902 214.5,179.5C 212.664,182.677 209.998,184.677 206.5,185.5C 207.833,183.167 209.167,180.833 210.5,178.5C 215.457,177.422 220.457,176.922 225.5,177C 224.177,177.816 223.511,178.983 223.5,180.5 Z"/></g>
<g><path style="opacity:1" fill="#18ab4f" d="M 153.5,172.5 C 163.483,173.963 173.483,175.296 183.5,176.5C 186.763,178.568 190.43,179.568 194.5,179.5C 192.866,180.161 191.033,180.494 189,180.5C 184.475,179.934 179.975,179.268 175.5,178.5C 175.808,180.924 175.474,183.257 174.5,185.5C 173.914,185.291 173.414,184.957 173,184.5C 172.355,185.646 171.522,186.646 170.5,187.5C 172.173,189.523 172.84,191.856 172.5,194.5C 171.199,192.409 169.699,190.409 168,188.5C 167.184,187.177 166.017,186.511 164.5,186.5C 163.71,185.599 162.71,184.932 161.5,184.5C 161.167,183.5 160.5,182.833 159.5,182.5C 157.102,179.429 155.102,176.095 153.5,172.5 Z"/></g>
<g><path style="opacity:1" fill="#2e9a64" d="M 183.5,176.5 C 192.399,178.214 201.399,178.881 210.5,178.5C 209.167,180.833 207.833,183.167 206.5,185.5C 202.562,188.098 198.895,191.098 195.5,194.5C 197.531,190.289 200.197,186.455 203.5,183C 204.448,182.517 205.448,182.351 206.5,182.5C 206.5,181.5 206.5,180.5 206.5,179.5C 202.5,179.5 198.5,179.5 194.5,179.5C 190.43,179.568 186.763,178.568 183.5,176.5 Z"/></g>
<g><path style="opacity:1" fill="#16344b" d="M 161.5,184.5 C 162.71,184.932 163.71,185.599 164.5,186.5C 168.851,191.204 172.185,196.537 174.5,202.5C 174.248,204.073 173.582,205.406 172.5,206.5C 170.716,207.72 169.05,207.72 167.5,206.5C 168.5,206.5 169.5,206.5 170.5,206.5C 171.509,203.473 171.509,200.473 170.5,197.5C 168.256,193.957 165.423,190.957 162,188.5C 161.51,187.207 161.343,185.873 161.5,184.5 Z"/></g>
<g><path style="opacity:1" fill="#83d2f4" d="M 259.5,196.5 C 259.785,198.288 259.452,199.955 258.5,201.5C 254.754,203.244 251.088,205.077 247.5,207C 251.167,208 254.833,209 258.5,210C 263.29,215.409 262.29,219.076 255.5,221C 249.975,221.52 244.642,222.353 239.5,223.5C 224.992,224.605 210.659,226.438 196.5,229C 192.972,226.419 191.806,222.919 193,218.5C 198.222,216.155 203.722,214.822 209.5,214.5C 209.192,212.076 209.526,209.743 210.5,207.5C 212.833,206.167 215.167,204.833 217.5,203.5C 216.438,200.897 216.272,198.23 217,195.5C 221.223,192.804 225.723,190.804 230.5,189.5C 230.063,183.101 233.063,179.601 239.5,179C 248.537,177.204 257.537,177.204 266.5,179C 267.444,181.719 267.777,184.552 267.5,187.5C 263.671,189.239 259.671,190.739 255.5,192C 257.384,193.049 258.718,194.549 259.5,196.5 Z"/></g>
<g><path style="opacity:1" fill="#10b14d" d="M 194.5,179.5 C 198.5,179.5 202.5,179.5 206.5,179.5C 206.5,180.5 206.5,181.5 206.5,182.5C 205.448,182.351 204.448,182.517 203.5,183C 200.197,186.455 197.531,190.289 195.5,194.5C 195.5,194.833 195.5,195.167 195.5,195.5C 192.984,195.755 190.65,196.589 188.5,198C 183.825,201.825 180.158,206.325 177.5,211.5C 176.5,211.167 175.833,210.5 175.5,209.5C 175.666,205.486 175.499,201.486 175,197.5C 174.148,196.429 173.315,195.429 172.5,194.5C 172.84,191.856 172.173,189.523 170.5,187.5C 171.522,186.646 172.355,185.646 173,184.5C 173.414,184.957 173.914,185.291 174.5,185.5C 175.474,183.257 175.808,180.924 175.5,178.5C 179.975,179.268 184.475,179.934 189,180.5C 191.033,180.494 192.866,180.161 194.5,179.5 Z"/></g>
<g><path style="opacity:1" fill="#0d3c46" d="M 206.5,185.5 C 202.923,188.907 199.923,192.74 197.5,197C 195.512,197.938 193.512,198.772 191.5,199.5C 192.37,197.726 193.703,196.393 195.5,195.5C 195.5,195.167 195.5,194.833 195.5,194.5C 198.895,191.098 202.562,188.098 206.5,185.5 Z"/></g>
<g><path style="opacity:1" fill="#269b62" d="M 195.5,195.5 C 193.703,196.393 192.37,197.726 191.5,199.5C 191.5,200.167 191.5,200.833 191.5,201.5C 190.448,201.351 189.448,201.517 188.5,202C 184.842,205.635 181.508,209.469 178.5,213.5C 178.167,212.833 177.833,212.167 177.5,211.5C 180.158,206.325 183.825,201.825 188.5,198C 190.65,196.589 192.984,195.755 195.5,195.5 Z"/></g>
<g><path style="opacity:1" fill="#38956d" d="M 164.5,186.5 C 166.017,186.511 167.184,187.177 168,188.5C 169.699,190.409 171.199,192.409 172.5,194.5C 173.315,195.429 174.148,196.429 175,197.5C 175.499,201.486 175.666,205.486 175.5,209.5C 174.728,208.306 173.728,207.306 172.5,206.5C 173.582,205.406 174.248,204.073 174.5,202.5C 172.185,196.537 168.851,191.204 164.5,186.5 Z"/></g>
<g><path style="opacity:1" fill="#26215c" d="M 221.5,181.5 C 205.276,197.632 189.943,214.632 175.5,232.5C 170.221,234.858 167.554,233.191 167.5,227.5C 170.791,222.873 174.458,218.54 178.5,214.5C 179.922,214.291 181.255,213.791 182.5,213C 185.708,209.297 188.708,205.463 191.5,201.5C 191.5,200.833 191.5,200.167 191.5,199.5C 193.512,198.772 195.512,197.938 197.5,197C 199.923,192.74 202.923,188.907 206.5,185.5C 209.998,184.677 212.664,182.677 214.5,179.5C 215.842,180.902 216.676,180.569 217,178.5C 217.324,180.569 218.158,180.902 219.5,179.5C 220.182,180.243 220.849,180.909 221.5,181.5 Z"/></g>
<g><path style="opacity:1" fill="#272062" d="M 159.5,182.5 C 160.5,182.833 161.167,183.5 161.5,184.5C 161.343,185.873 161.51,187.207 162,188.5C 165.423,190.957 168.256,193.957 170.5,197.5C 171.509,200.473 171.509,203.473 170.5,206.5C 169.5,206.5 168.5,206.5 167.5,206.5C 165.674,204.853 164.34,202.853 163.5,200.5C 163.762,199.022 163.429,197.689 162.5,196.5C 160.584,194.211 158.584,192.044 156.5,190C 156.833,189.667 157.167,189.333 157.5,189C 154.5,186.5 151.5,184 148.5,181.5C 147.53,177.905 145.197,175.738 141.5,175C 142.226,173.603 143.393,172.769 145,172.5C 147.247,174.926 150.08,175.926 153.5,175.5C 153.421,179.491 155.421,181.824 159.5,182.5 Z"/></g>
<g><path style="opacity:1" fill="#e4fcfe" d="M 259.5,196.5 C 260.622,198.288 260.789,200.288 260,202.5C 253.6,205.907 254.1,207.907 261.5,208.5C 264.384,213.093 264.05,217.426 260.5,221.5C 253.556,222.768 246.556,223.434 239.5,223.5C 244.642,222.353 249.975,221.52 255.5,221C 262.29,219.076 263.29,215.409 258.5,210C 254.833,209 251.167,208 247.5,207C 251.088,205.077 254.754,203.244 258.5,201.5C 259.452,199.955 259.785,198.288 259.5,196.5 Z"/></g>
<g><path style="opacity:1" fill="#f7f8fa" d="M 159.5,196.5 C 160.473,198.139 161.806,199.473 163.5,200.5C 164.34,202.853 165.674,204.853 167.5,206.5C 169.05,207.72 170.716,207.72 172.5,206.5C 173.728,207.306 174.728,208.306 175.5,209.5C 175.833,210.5 176.5,211.167 177.5,211.5C 177.833,212.167 178.167,212.833 178.5,213.5C 178.5,213.833 178.5,214.167 178.5,214.5C 174.458,218.54 170.791,222.873 167.5,227.5C 167.588,220.334 164.588,215.001 158.5,211.5C 157.877,209.034 157.043,206.701 156,204.5C 154.778,200.754 155.944,198.087 159.5,196.5 Z"/></g>
<g><path style="opacity:1" fill="#183051" d="M 191.5,201.5 C 188.708,205.463 185.708,209.297 182.5,213C 181.255,213.791 179.922,214.291 178.5,214.5C 178.5,214.167 178.5,213.833 178.5,213.5C 181.508,209.469 184.842,205.635 188.5,202C 189.448,201.517 190.448,201.351 191.5,201.5 Z"/></g>
<g><path style="opacity:1" fill="#e8fcfe" d="M 149.5,185.5 C 153.525,188.558 156.858,192.225 159.5,196.5C 155.944,198.087 154.778,200.754 156,204.5C 157.043,206.701 157.877,209.034 158.5,211.5C 164.588,215.001 167.588,220.334 167.5,227.5C 165.033,227.858 162.866,229.191 161,231.5C 156.352,231.143 151.852,232.31 147.5,235C 144.183,235.498 140.85,235.665 137.5,235.5C 143.63,232.568 149.963,230.235 156.5,228.5C 160.221,227.943 162.554,225.776 163.5,222C 162.504,217.842 159.837,215.675 155.5,215.5C 158.124,208.918 156.124,204.751 149.5,203C 150.729,201.471 152.229,200.304 154,199.5C 155.477,191.156 151.977,188.156 143.5,190.5C 143.414,189.504 143.748,188.671 144.5,188C 146.249,187.215 147.916,186.382 149.5,185.5 Z"/></g>
<g><path style="opacity:1" fill="#81d2f5" d="M 143.5,190.5 C 151.977,188.156 155.477,191.156 154,199.5C 152.229,200.304 150.729,201.471 149.5,203C 156.124,204.751 158.124,208.918 155.5,215.5C 159.837,215.675 162.504,217.842 163.5,222C 162.554,225.776 160.221,227.943 156.5,228.5C 144.145,230.896 131.812,233.396 119.5,236C 116.307,237.054 113.307,238.554 110.5,240.5C 108.058,239.616 107.225,237.949 108,235.5C 111.481,232.246 115.648,230.412 120.5,230C 122.361,228.972 123.695,227.472 124.5,225.5C 122.728,224.73 121.728,223.397 121.5,221.5C 123.188,219.146 125.188,217.146 127.5,215.5C 128.141,214.518 128.807,213.518 129.5,212.5C 127.771,210.149 127.104,207.482 127.5,204.5C 124.538,204.204 122.871,202.538 122.5,199.5C 122.486,197.407 123.152,195.574 124.5,194C 130.673,192.046 137.006,190.879 143.5,190.5 Z"/></g>
<g><path style="opacity:1" fill="#8dcfe8" d="M 127.5,215.5 C 125.188,217.146 123.188,219.146 121.5,221.5C 121.728,223.397 122.728,224.73 124.5,225.5C 123.695,227.472 122.361,228.972 120.5,230C 115.648,230.412 111.481,232.246 108,235.5C 107.225,237.949 108.058,239.616 110.5,240.5C 113.307,238.554 116.307,237.054 119.5,236C 131.812,233.396 144.145,230.896 156.5,228.5C 149.963,230.235 143.63,232.568 137.5,235.5C 135.473,235.338 133.473,235.505 131.5,236C 125.642,238.301 119.642,240.301 113.5,242C 106.475,242.867 103.975,239.7 106,232.5C 110.611,230.116 115.445,228.116 120.5,226.5C 117.591,219.419 119.924,215.752 127.5,215.5 Z"/></g>
<g><path style="opacity:1" fill="#3f3c3d" d="M 97.5,243.5 C 103.183,242.665 104.683,244.665 102,249.5C 101.087,243.046 99.7538,243.046 98,249.5C 97.5045,247.527 97.3379,245.527 97.5,243.5 Z"/></g>
<g><path style="opacity:1" fill="#f0f0f0" d="M 91.5,244.5 C 92.5,244.5 93.5,244.5 94.5,244.5C 94.5,245.833 94.5,247.167 94.5,248.5C 93.5,248.5 92.5,248.5 91.5,248.5C 91.5,247.167 91.5,245.833 91.5,244.5 Z"/></g>
<g><path style="opacity:1" fill="#2a2a2a" d="M 70.5,241.5 C 70.8333,241.5 71.1667,241.5 71.5,241.5C 70.5168,244.209 70.3502,246.876 71,249.5C 70.1237,247.365 68.6237,246.031 66.5,245.5C 66.5,243.833 66.5,242.167 66.5,240.5C 68.099,240.232 69.4324,240.566 70.5,241.5 Z"/></g>
<g><path style="opacity:1" fill="#ededed" d="M 70.5,241.5 C 69.2458,245.31 68.2458,245.31 67.5,241.5C 68.5,241.5 69.5,241.5 70.5,241.5 Z"/></g>
<g><path style="opacity:1" fill="#373737" d="M 87.5,243.5 C 88.0967,243.735 88.4301,244.235 88.5,245C 88,246.5 87.5,248 87,249.5C 86.5099,247.455 86.6765,245.455 87.5,243.5 Z"/></g>
<g><path style="opacity:1" fill="#4d4e51" d="M 91.5,244.5 C 92.8845,243.199 94.3845,243.199 96,244.5C 96.7726,246.352 96.2726,247.686 94.5,248.5C 94.5,247.167 94.5,245.833 94.5,244.5C 93.5,244.5 92.5,244.5 91.5,244.5 Z"/></g>
<g><path style="opacity:1" fill="#e9e9e9" d="M 71.5,241.5 C 72.1667,242.5 72.8333,243.5 73.5,244.5C 72.9693,248.712 73.9693,249.379 76.5,246.5C 78.0481,246.179 78.7148,245.179 78.5,243.5C 79.1667,243.833 79.8333,244.167 80.5,244.5C 80.7529,246.827 80.0863,248.827 78.5,250.5C 78.8627,251.183 79.1961,251.85 79.5,252.5C 79.6618,253.592 79.3284,254.925 78.5,256.5C 74.2508,252.573 70.0841,252.907 66,257.5C 63.8619,261.682 64.0286,265.682 66.5,269.5C 65.5178,270.141 64.5178,270.807 63.5,271.5C 59.5521,271.169 55.5521,270.502 51.5,269.5C 54.9976,270.045 57.9976,269.212 60.5,267C 57.5716,267.456 54.5716,267.456 51.5,267C 45.1596,262.569 44.8263,257.569 50.5,252C 54.619,250.149 58.9523,248.982 63.5,248.5C 60.9135,247.52 58.2469,247.187 55.5,247.5C 59.0213,246.693 62.688,246.026 66.5,245.5C 68.6237,246.031 70.1237,247.365 71,249.5C 70.3502,246.876 70.5168,244.209 71.5,241.5 Z"/></g>
<g><path style="opacity:1" fill="#1f1f1f" d="M 78.5,243.5 C 78.7148,245.179 78.0481,246.179 76.5,246.5C 76.9321,245.29 77.5987,244.29 78.5,243.5 Z"/></g>
<g><path style="opacity:1" fill="#3d3d3d" d="M 76.5,246.5 C 73.9693,249.379 72.9693,248.712 73.5,244.5C 76.797,243.145 77.1304,243.645 74.5,246C 75.0944,246.464 75.7611,246.631 76.5,246.5 Z"/></g>
<g><path style="opacity:1" fill="#0c0c0c" d="M 239.5,247.5 C 240.5,247.5 241.5,247.5 242.5,247.5C 241.5,254.167 240.5,260.833 239.5,267.5C 242.898,267.18 246.232,267.513 249.5,268.5C 245.217,269.492 240.884,269.826 236.5,269.5C 237.283,262.134 238.283,254.8 239.5,247.5 Z"/></g>
<g><path style="opacity:1" fill="#030303" d="M 274.5,247.5 C 277.957,247.667 278.29,248.667 275.5,250.5C 274.614,249.675 274.281,248.675 274.5,247.5 Z"/></g>
<g><path style="opacity:1" fill="#222222" d="M 91.5,244.5 C 91.5,245.833 91.5,247.167 91.5,248.5C 92.5,248.5 93.5,248.5 94.5,248.5C 93.1155,249.801 91.6155,249.801 90,248.5C 89.2274,246.648 89.7274,245.314 91.5,244.5 Z"/></g>
<g><path style="opacity:1" fill="#4a4a4a" d="M 79.5,252.5 C 79.1961,251.85 78.8627,251.183 78.5,250.5C 80.0863,248.827 80.7529,246.827 80.5,244.5C 81.9641,242.016 83.6308,242.016 85.5,244.5C 84.6364,246.197 83.3031,247.363 81.5,248C 85.5869,251.013 84.9202,252.513 79.5,252.5 Z"/></g>
<g><path style="opacity:1" fill="#fcfcfc" d="M 80.5,249.5 C 82.337,249.639 82.6704,250.306 81.5,251.5C 80.7025,251.043 80.3691,250.376 80.5,249.5 Z"/></g>
<g><path style="opacity:1" fill="#0e0e0e" d="M 55.5,247.5 C 58.2469,247.187 60.9135,247.52 63.5,248.5C 58.9523,248.982 54.619,250.149 50.5,252C 44.8263,257.569 45.1596,262.569 51.5,267C 54.5716,267.456 57.5716,267.456 60.5,267C 57.9976,269.212 54.9976,270.045 51.5,269.5C 45.1982,267.899 42.6982,263.899 44,257.5C 45.512,251.487 49.3453,248.154 55.5,247.5 Z"/></g>
<g><path style="opacity:1" fill="#121212" d="M 273.5,254.5 C 274.5,254.5 275.5,254.5 276.5,254.5C 275.512,258.789 274.679,263.122 274,267.5C 273.275,269.158 272.108,269.658 270.5,269C 271.822,264.251 272.822,259.417 273.5,254.5 Z"/></g>
<g><path style="opacity:1" fill="#111111" d="M 78.5,256.5 C 78.16,258.679 77.16,260.512 75.5,262C 72.6697,262.869 70.003,264.036 67.5,265.5C 69.4503,267.753 71.7837,268.086 74.5,266.5C 75.521,267.002 75.6877,267.668 75,268.5C 72.3756,270.699 69.5422,271.032 66.5,269.5C 64.0286,265.682 63.8619,261.682 66,257.5C 70.0841,252.907 74.2508,252.573 78.5,256.5 Z"/></g>
<g><path style="opacity:1" fill="#131313" d="M 189.5,244.5 C 190.5,244.5 191.5,244.5 192.5,244.5C 191.075,253.144 189.741,261.811 188.5,270.5C 187.914,270.291 187.414,269.957 187,269.5C 186.833,268.167 186.667,266.833 186.5,265.5C 187.61,258.506 188.61,251.506 189.5,244.5 Z"/></g>
<g><path style="opacity:1" fill="#171717" d="M 119.5,253.5 C 121.048,253.821 121.715,254.821 121.5,256.5C 119.097,256.393 117.264,257.393 116,259.5C 114.722,262.721 113.889,266.054 113.5,269.5C 112.5,269.5 111.5,269.5 110.5,269.5C 111.138,264.81 111.971,260.144 113,255.5C 114.395,254.185 115.395,254.519 116,256.5C 117.145,255.364 118.312,254.364 119.5,253.5 Z"/></g>
<g><path style="opacity:1" fill="#161616" d="M 129.5,253.5 C 136.489,253.337 138.155,256.17 134.5,262C 131.5,263 128.5,264 125.5,265C 127.603,267.554 130.103,268.054 133,266.5C 133.483,267.448 133.649,268.448 133.5,269.5C 124.566,271.731 121.066,268.398 123,259.5C 124.494,256.686 126.66,254.686 129.5,253.5 Z"/></g>
<g><path style="opacity:1" fill="#ececec" d="M 128.5,256.5 C 130.167,256.5 131.833,256.5 133.5,256.5C 132.91,260.316 130.577,261.983 126.5,261.5C 126.392,259.486 127.058,257.82 128.5,256.5 Z"/></g>
<g><path style="opacity:1" fill="#141414" d="M 175.5,253.5 C 178.247,253.187 180.914,253.52 183.5,254.5C 182.34,258.958 181.34,263.458 180.5,268C 179.576,269.811 178.743,269.645 178,267.5C 175.503,269.478 172.669,269.978 169.5,269C 167.718,266.757 167.218,264.257 168,261.5C 170.028,258.308 172.528,255.641 175.5,253.5 Z"/></g>
<g><path style="opacity:1" fill="#ececec" d="M 175.5,256.5 C 176.833,256.5 178.167,256.5 179.5,256.5C 180.105,261.749 178.105,265.415 173.5,267.5C 171.261,267.426 170.261,266.259 170.5,264C 171.313,260.858 172.98,258.358 175.5,256.5 Z"/></g>
<g><path style="opacity:1" fill="#e8e8e8" d="M 70.5,256.5 C 72.1667,256.5 73.8333,256.5 75.5,256.5C 74.4205,260.9 71.7538,262.233 67.5,260.5C 68.5244,259.148 69.5244,257.815 70.5,256.5 Z"/></g>
<g><path style="opacity:1" fill="#0f0f0f" d="M 151.5,247.5 C 153.124,247.36 154.29,248.027 155,249.5C 156.317,254.1 157.317,258.766 158,263.5C 160.833,258.5 163.667,253.5 166.5,248.5C 167.5,247.167 168.5,247.167 169.5,248.5C 165.532,255.631 161.366,262.631 157,269.5C 154.857,262.296 153.023,254.963 151.5,247.5 Z"/></g>
<g><path style="opacity:1" fill="#151515" d="M 223.5,253.5 C 230.489,253.337 232.155,256.17 228.5,262C 225.5,263 222.5,264 219.5,265C 221.603,267.554 224.103,268.054 227,266.5C 227.521,269.118 226.354,270.451 223.5,270.5C 216.611,268.89 214.777,264.89 218,258.5C 219.73,256.598 221.563,254.931 223.5,253.5 Z"/></g>
<g><path style="opacity:1" fill="#e9e9e9" d="M 222.5,256.5 C 224.167,256.5 225.833,256.5 227.5,256.5C 226.615,260.784 223.949,262.284 219.5,261C 220.386,259.385 221.386,257.885 222.5,256.5 Z"/></g>
<g><path style="opacity:1" fill="#171717" d="M 212.5,244.5 C 213.5,244.5 214.5,244.5 215.5,244.5C 214.472,252.972 212.806,261.305 210.5,269.5C 209.346,267.144 208.013,266.977 206.5,269C 198.443,270.415 195.943,267.248 199,259.5C 201.885,254.975 206.052,252.975 211.5,253.5C 211.508,250.455 211.841,247.455 212.5,244.5 Z"/></g>
<g><path style="opacity:1" fill="#e9e9e9" d="M 205.5,256.5 C 207.167,256.5 208.833,256.5 210.5,256.5C 210.135,259.625 209.302,262.625 208,265.5C 206.192,267.396 204.025,267.896 201.5,267C 200.121,262.522 201.454,259.022 205.5,256.5 Z"/></g>
<g><path style="opacity:1" fill="#3c3c3c" d="M 139.5,258.5 C 142.5,258.5 145.5,258.5 148.5,258.5C 148.5,259.5 148.5,260.5 148.5,261.5C 145.5,261.5 142.5,261.5 139.5,261.5C 139.5,260.5 139.5,259.5 139.5,258.5 Z"/></g>
<g><path style="opacity:1" fill="#141414" d="M 297.5,253.5 C 306.331,253.492 307.664,256.658 301.5,263C 299.19,263.497 296.857,263.663 294.5,263.5C 294.33,264.822 294.663,265.989 295.5,267C 297.568,267.687 299.568,267.52 301.5,266.5C 302.529,269.308 301.362,270.642 298,270.5C 291.851,269.306 289.851,265.639 292,259.5C 293.36,256.977 295.193,254.977 297.5,253.5 Z"/></g>
<g><path style="opacity:1" fill="#e6e6e6" d="M 297.5,256.5 C 299.167,256.5 300.833,256.5 302.5,256.5C 301.56,260.971 298.893,262.304 294.5,260.5C 295.524,259.148 296.524,257.815 297.5,256.5 Z"/></g>
<g><path style="opacity:1" fill="#111111" d="M 87.5,253.5 C 89.5273,253.338 91.5273,253.505 93.5,254C 94.1258,254.75 94.6258,255.584 95,256.5C 94.729,260.809 94.229,265.142 93.5,269.5C 92.5,269.5 91.5,269.5 90.5,269.5C 91.1667,265.167 91.8333,260.833 92.5,256.5C 89.3484,255.959 86.8484,256.959 85,259.5C 84.1026,262.49 83.2692,265.49 82.5,268.5C 81.635,269.583 80.635,269.749 79.5,269C 80.7107,264.748 81.7107,260.414 82.5,256C 83.4235,254.189 84.2569,254.355 85,256.5C 86.045,255.627 86.8783,254.627 87.5,253.5 Z"/></g>
<g><path style="opacity:1" fill="#181818" d="M 287.5,253.5 C 288.5,253.5 289.5,253.5 290.5,253.5C 290.5,254.5 290.5,255.5 290.5,256.5C 288.097,256.393 286.264,257.393 285,259.5C 283.562,262.993 282.062,266.327 280.5,269.5C 279.341,264.285 280.008,259.285 282.5,254.5C 284.054,257.83 285.721,257.497 287.5,253.5 Z"/></g>
<g><path style="opacity:1" fill="#171717" d="M 103.5,249.5 C 105.176,250.183 105.843,251.517 105.5,253.5C 106.833,253.5 108.167,253.5 109.5,253.5C 109.5,254.5 109.5,255.5 109.5,256.5C 107.5,256.5 105.5,256.5 103.5,256.5C 103.276,260.179 102.942,263.846 102.5,267.5C 105.988,267.899 106.154,268.566 103,269.5C 101.129,269.291 99.9619,268.291 99.5,266.5C 100.167,263.5 100.833,260.5 101.5,257.5C 100.675,256.614 99.675,256.281 98.5,256.5C 98.5,255.5 98.5,254.5 98.5,253.5C 99.8333,253.5 101.167,253.5 102.5,253.5C 102.433,252.041 102.766,250.708 103.5,249.5 Z"/></g>
<g><path style="opacity:1" fill="#101010" d="M 258.5,253.5 C 266.379,253.216 269.212,256.883 267,264.5C 264.103,269.155 259.937,270.655 254.5,269C 250.901,262.511 252.235,257.345 258.5,253.5 Z"/></g>
<g><path style="opacity:1" fill="#ececec" d="M 258.5,256.5 C 264.934,256.093 266.767,258.759 264,264.5C 259.865,268.94 257.032,268.44 255.5,263C 255.391,260.288 256.391,258.122 258.5,256.5 Z"/></g>
</svg>
