<?xml version="1.0" encoding="UTF-8"?>
<!DOCTYPE svg PUBLIC "-//W3C//DTD SVG 1.1//EN" "http://www.w3.org/Graphics/SVG/1.1/DTD/svg11.dtd">
<svg xmlns="http://www.w3.org/2000/svg" version="1.1" width="350px" height="350px" style="shape-rendering:geometricPrecision; text-rendering:geometricPrecision; image-rendering:optimizeQuality; fill-rule:evenodd; clip-rule:evenodd" xmlns:xlink="http://www.w3.org/1999/xlink">
<g><path style="opacity:1" fill="#fefefe" d="M -0.5,-0.5 C 116.167,-0.5 232.833,-0.5 349.5,-0.5C 349.5,116.167 349.5,232.833 349.5,349.5C 232.833,349.5 116.167,349.5 -0.5,349.5C -0.5,232.833 -0.5,116.167 -0.5,-0.5 Z"/></g>
<g><path style="opacity:1" fill="#fdcd0e" d="M 263.5,128.5 C 263.667,132.673 265,136.34 267.5,139.5C 267.833,141.5 268.167,143.5 268.5,145.5C 268.945,149.091 269.945,152.424 271.5,155.5C 271.575,158.206 271.908,160.873 272.5,163.5C 272.565,166.428 273.232,169.095 274.5,171.5C 275.248,176.485 275.915,181.485 276.5,186.5C 276.251,190.458 276.918,194.124 278.5,197.5C 279.074,203.484 279.407,209.484 279.5,215.5C 279.894,222.496 280.227,229.496 280.5,236.5C 280.5,244.833 280.5,253.167 280.5,261.5C 271.915,261.817 263.415,261.483 255,260.5C 254.831,248.659 254.331,236.993 253.5,225.5C 253.227,218.496 252.894,211.496 252.5,204.5C 252.482,196.963 251.815,189.629 250.5,182.5C 248.961,166.777 246.961,151.111 244.5,135.5C 244.279,132.933 243.612,130.599 242.5,128.5C 241.133,123.679 239.966,118.679 239,113.5C 237.322,107.629 235.155,101.963 232.5,96.5C 231.659,94.6208 231.325,92.6208 231.5,90.5C 230.448,90.6495 229.448,90.4828 228.5,90C 226.121,86.3174 222.787,84.984 218.5,86C 217.944,86.3826 217.611,86.8826 217.5,87.5C 214.599,89.1888 212.099,91.5221 210,94.5C 207.938,99.624 205.605,104.624 203,109.5C 200.515,119.456 198.349,129.456 196.5,139.5C 194.862,144.248 193.862,149.248 193.5,154.5C 193.5,154.833 193.5,155.167 193.5,155.5C 191.822,160.568 191.156,165.902 191.5,171.5C 190.185,178.629 189.518,185.963 189.5,193.5C 189.815,197.371 189.482,201.038 188.5,204.5C 187.117,218.979 186.45,233.645 186.5,248.5C 177.827,248.666 169.16,248.5 160.5,248C 159.519,240.587 159.186,233.087 159.5,225.5C 159.484,214.825 159.15,204.158 158.5,193.5C 158.489,189.435 157.822,185.768 156.5,182.5C 156.209,171.623 155.209,160.956 153.5,150.5C 153.59,147.848 152.924,145.515 151.5,143.5C 151.5,142.167 151.5,140.833 151.5,139.5C 149.785,130.227 147.452,121.227 144.5,112.5C 143.278,106.937 141.444,101.604 139,96.5C 136.564,93.7151 134.064,91.0485 131.5,88.5C 130.088,87.4675 128.422,86.8008 126.5,86.5C 124.962,86.4534 123.962,87.1201 123.5,88.5C 121.771,89.1175 120.271,90.1175 119,91.5C 117.032,94.8131 115.032,98.1464 113,101.5C 109.951,110.567 107.118,119.567 104.5,128.5C 103.883,128.611 103.383,128.944 103,129.5C 102.059,133.478 101.226,137.478 100.5,141.5C 100.182,142.647 99.5156,143.481 98.5,144C 99.1311,145.906 99.4644,147.906 99.5,150C 98.8627,157.178 98.196,164.344 97.5,171.5C 97.3473,177.845 97.014,184.178 96.5,190.5C 96.5,191.5 96.5,192.5 96.5,193.5C 95.6981,194.952 95.1981,196.618 95,198.5C 94.5002,207.494 94.3336,216.494 94.5,225.5C 93.5054,236.321 93.1721,247.321 93.5,258.5C 85.1007,260.425 76.434,261.092 67.5,260.5C 67.7778,245.165 68.1112,229.832 68.5,214.5C 68.307,210.434 68.6403,206.434 69.5,202.5C 70.2216,202.918 70.7216,203.584 71,204.5C 71.3459,198.143 71.8459,191.81 72.5,185.5C 72.646,179.106 73.3126,172.773 74.5,166.5C 75.7014,161.222 76.7014,155.888 77.5,150.5C 79.5666,147.073 80.8999,143.406 81.5,139.5C 83.284,138.426 84.4506,136.76 85,134.5C 85.2599,130.75 85.9266,127.084 87,123.5C 90.5451,116.095 94.2117,108.761 98,101.5C 98.2009,98.2472 99.0343,95.2472 100.5,92.5C 100.5,92.1667 100.5,91.8333 100.5,91.5C 101.833,90.1667 103.167,88.8333 104.5,87.5C 109.374,84.1887 114.04,80.522 118.5,76.5C 124.128,75.5046 129.794,75.1712 135.5,75.5C 139.551,77.0169 143.217,79.1836 146.5,82C 150.691,86.9537 154.691,92.1203 158.5,97.5C 164.416,109.859 169.416,122.526 173.5,135.5C 173.639,137.337 174.306,137.67 175.5,136.5C 176.295,133.856 176.962,131.189 177.5,128.5C 179.14,121.382 181.14,114.382 183.5,107.5C 185.433,106.358 186.933,104.692 188,102.5C 190.11,98.5783 191.943,94.5783 193.5,90.5C 211.186,67.8427 229.019,67.8427 247,90.5C 247.346,92.2182 247.846,93.8849 248.5,95.5C 250.923,98.9238 253.256,102.424 255.5,106C 258.579,113.331 261.246,120.831 263.5,128.5 Z"/></g>
<g><path style="opacity:1" fill="#f9d73c" d="M 135.5,75.5 C 129.794,75.1712 124.128,75.5046 118.5,76.5C 114.04,80.522 109.374,84.1887 104.5,87.5C 104.5,87.1667 104.5,86.8333 104.5,86.5C 109.821,78.993 116.988,74.6597 126,73.5C 129.451,73.4205 132.618,74.0872 135.5,75.5 Z"/></g>
<g><path style="opacity:1" fill="#feedaf" d="M 131.5,88.5 C 128.833,88.5 126.167,88.5 123.5,88.5C 123.962,87.1201 124.962,86.4534 126.5,86.5C 128.422,86.8008 130.088,87.4675 131.5,88.5 Z"/></g>
<g><path style="opacity:1" fill="#fef9e5" d="M 193.5,90.5 C 191.943,94.5783 190.11,98.5783 188,102.5C 186.933,104.692 185.433,106.358 183.5,107.5C 183.5,105.833 183.5,104.167 183.5,102.5C 184.822,102.67 185.989,102.337 187,101.5C 187.499,98.4818 187.332,95.4818 186.5,92.5C 187.746,90.1775 189.08,87.8442 190.5,85.5C 191.747,87.0064 191.747,88.5064 190.5,90C 191.448,90.4828 192.448,90.6495 193.5,90.5 Z"/></g>
<g><path style="opacity:1" fill="#fbdd5a" d="M 232.5,96.5 C 230.457,93.9491 228.124,91.4491 225.5,89C 222.937,87.9207 220.271,87.4207 217.5,87.5C 217.611,86.8826 217.944,86.3826 218.5,86C 222.787,84.984 226.121,86.3174 228.5,90C 229.448,90.4828 230.448,90.6495 231.5,90.5C 231.325,92.6208 231.659,94.6208 232.5,96.5 Z"/></g>
<g><path style="opacity:1" fill="#fef3bc" d="M 104.5,86.5 C 104.5,86.8333 104.5,87.1667 104.5,87.5C 103.167,88.8333 101.833,90.1667 100.5,91.5C 100.774,89.0194 102.107,87.3527 104.5,86.5 Z"/></g>
<g><path style="opacity:1" fill="#fce388" d="M 92.5,107.5 C 92.0879,109.887 91.0879,111.887 89.5,113.5C 89.6206,110.895 90.6206,108.895 92.5,107.5 Z"/></g>
<g><path style="opacity:1" fill="#f9d73f" d="M 100.5,92.5 C 99.0343,95.2472 98.2009,98.2472 98,101.5C 94.2117,108.761 90.5451,116.095 87,123.5C 85.9266,127.084 85.2599,130.75 85,134.5C 84.4506,136.76 83.284,138.426 81.5,139.5C 82.2199,134.008 83.5532,128.675 85.5,123.5C 86.3795,119.964 87.7128,116.631 89.5,113.5C 91.0879,111.887 92.0879,109.887 92.5,107.5C 92.687,105.436 93.187,103.436 94,101.5C 95.7219,98.1328 97.8886,95.1328 100.5,92.5 Z"/></g>
<g><path style="opacity:1" fill="#fef5d6" d="M 144.5,112.5 C 147.452,121.227 149.785,130.227 151.5,139.5C 150.115,136.583 148.615,133.583 147,130.5C 147.16,126.193 145.993,122.359 143.5,119C 143.905,118.055 144.572,117.388 145.5,117C 144.62,115.644 144.286,114.144 144.5,112.5 Z"/></g>
<g><path style="opacity:1" fill="#fef6d9" d="M 85.5,123.5 C 83.5532,128.675 82.2199,134.008 81.5,139.5C 80.8999,143.406 79.5666,147.073 77.5,150.5C 78.2667,146.695 78.9334,142.861 79.5,139C 78.8514,136.081 78.8514,133.248 79.5,130.5C 80.325,129.614 81.325,129.281 82.5,129.5C 82.087,126.68 83.087,124.68 85.5,123.5 Z"/></g>
<g><path style="opacity:1" fill="#fce99c" d="M 242.5,128.5 C 243.612,130.599 244.279,132.933 244.5,135.5C 242.837,133.562 242.171,131.228 242.5,128.5 Z"/></g>
<g><path style="opacity:1" fill="#fcd95a" d="M 177.5,128.5 C 176.962,131.189 176.295,133.856 175.5,136.5C 174.306,137.67 173.639,137.337 173.5,135.5C 174.105,132.695 175.438,130.361 177.5,128.5 Z"/></g>
<g><path style="opacity:1" fill="#fbe37b" d="M 263.5,128.5 C 265.642,131.8 266.975,135.467 267.5,139.5C 265,136.34 263.667,132.673 263.5,128.5 Z"/></g>
<g><path style="opacity:1" fill="#f8d535" d="M 104.5,128.5 C 101.994,141.375 100.328,154.375 99.5,167.5C 98.8333,168.833 98.1667,170.167 97.5,171.5C 98.196,164.344 98.8627,157.178 99.5,150C 99.4644,147.906 99.1311,145.906 98.5,144C 99.5156,143.481 100.182,142.647 100.5,141.5C 101.226,137.478 102.059,133.478 103,129.5C 103.383,128.944 103.883,128.611 104.5,128.5 Z"/></g>
<g><path style="opacity:1" fill="#fdf2bf" d="M 268.5,145.5 C 271.024,148.239 272.024,151.572 271.5,155.5C 269.945,152.424 268.945,149.091 268.5,145.5 Z"/></g>
<g><path style="opacity:1" fill="#fdeda8" d="M 151.5,143.5 C 152.924,145.515 153.59,147.848 153.5,150.5C 152.076,148.485 151.41,146.152 151.5,143.5 Z"/></g>
<g><path style="opacity:1" fill="#faf1bf" d="M 196.5,139.5 C 196.322,144.795 195.322,149.795 193.5,154.5C 193.862,149.248 194.862,144.248 196.5,139.5 Z"/></g>
<g><path style="opacity:1" fill="#fde277" d="M 193.5,155.5 C 192.902,160.813 192.569,166.146 192.5,171.5C 192.167,171.5 191.833,171.5 191.5,171.5C 191.156,165.902 191.822,160.568 193.5,155.5 Z"/></g>
<g><path style="opacity:1" fill="#fbeba1" d="M 272.5,163.5 C 274.223,165.78 274.889,168.447 274.5,171.5C 273.232,169.095 272.565,166.428 272.5,163.5 Z"/></g>
<g><path style="opacity:1" fill="#fdf7d9" d="M 74.5,166.5 C 73.3126,172.773 72.646,179.106 72.5,185.5C 70.9016,187.857 69.9016,190.523 69.5,193.5C 69.1471,183.929 70.8137,174.929 74.5,166.5 Z"/></g>
<g><path style="opacity:1" fill="#fcf4ce" d="M 99.5,167.5 C 99.1661,174.507 98.6661,181.507 98,188.5C 97.7216,189.416 97.2216,190.082 96.5,190.5C 97.014,184.178 97.3473,177.845 97.5,171.5C 98.1667,170.167 98.8333,168.833 99.5,167.5 Z"/></g>
<g><path style="opacity:1" fill="#fef6d8" d="M 191.5,171.5 C 191.833,171.5 192.167,171.5 192.5,171.5C 192.412,179.238 191.412,186.571 189.5,193.5C 189.518,185.963 190.185,178.629 191.5,171.5 Z"/></g>
<g><path style="opacity:1" fill="#fef2c5" d="M 276.5,186.5 C 278.414,189.684 279.08,193.351 278.5,197.5C 276.918,194.124 276.251,190.458 276.5,186.5 Z"/></g>
<g><path style="opacity:1" fill="#fef5ce" d="M 250.5,182.5 C 251.815,189.629 252.482,196.963 252.5,204.5C 250.537,197.576 249.87,190.243 250.5,182.5 Z"/></g>
<g><path style="opacity:1" fill="#fbdb4c" d="M 72.5,185.5 C 71.8459,191.81 71.3459,198.143 71,204.5C 70.7216,203.584 70.2216,202.918 69.5,202.5C 69.5,199.5 69.5,196.5 69.5,193.5C 69.9016,190.523 70.9016,187.857 72.5,185.5 Z"/></g>
<g><path style="opacity:1" fill="#fde688" d="M 96.5,193.5 C 96.1765,204.341 95.5099,215.007 94.5,225.5C 94.3336,216.494 94.5002,207.494 95,198.5C 95.1981,196.618 95.6981,194.952 96.5,193.5 Z"/></g>
<g><path style="opacity:1" fill="#fef7db" d="M 156.5,182.5 C 157.822,185.768 158.489,189.435 158.5,193.5C 159.15,204.158 159.484,214.825 159.5,225.5C 158.45,216.267 157.116,206.934 155.5,197.5C 156.255,192.526 156.589,187.526 156.5,182.5 Z"/></g>
<g><path style="opacity:1" fill="#fcf1b3" d="M 279.5,215.5 C 280.268,216.263 280.768,217.263 281,218.5C 281.499,224.491 281.666,230.491 281.5,236.5C 281.167,236.5 280.833,236.5 280.5,236.5C 280.227,229.496 279.894,222.496 279.5,215.5 Z"/></g>
<g><path style="opacity:1" fill="#fdeca1" d="M 188.5,204.5 C 188.176,219.079 188.51,233.579 189.5,248C 188.552,248.483 187.552,248.649 186.5,248.5C 186.45,233.645 187.117,218.979 188.5,204.5 Z"/></g>
<g><path style="opacity:1" fill="#fade63" d="M 68.5,214.5 C 68.1112,229.832 67.7778,245.165 67.5,260.5C 76.434,261.092 85.1007,260.425 93.5,258.5C 93.5,259.833 93.5,261.167 93.5,262.5C 84.5,262.5 75.5,262.5 66.5,262.5C 66.3335,250.162 66.5001,237.829 67,225.5C 67.1773,221.644 67.6773,217.977 68.5,214.5 Z"/></g>
<g><path style="opacity:1" fill="#fce897" d="M 253.5,225.5 C 254.331,236.993 254.831,248.659 255,260.5C 263.415,261.483 271.915,261.817 280.5,261.5C 280.5,253.167 280.5,244.833 280.5,236.5C 280.833,236.5 281.167,236.5 281.5,236.5C 282.828,244.902 282.828,253.402 281.5,262C 272.173,262.5 262.839,262.666 253.5,262.5C 253.5,250.167 253.5,237.833 253.5,225.5 Z"/></g>
</svg>
