<svg width="24" height="24" viewBox="0 0 24 24" fill="none" xmlns="http://www.w3.org/2000/svg">
<path d="M20 10.6667V17C20 19.2091 18.2091 21 16 21H7C4.79086 21 3 19.2091 3 17V8C3 5.79086 4.79086 4 7 4H13.3889" stroke="#D6CDFE" stroke-width="1.5" stroke-linecap="round"/>
<path d="M20.9444 3.2299C21.5898 3.87527 21.5898 4.92161 20.9444 5.56697L13.3019 13.2094C12.9653 13.546 12.5589 13.8046 12.1114 13.9668L9.6273 14.8672C9.42795 14.9395 9.23481 14.7463 9.30707 14.547L10.2075 12.0629C10.3697 11.6154 10.6283 11.2089 10.9649 10.8723L18.6073 3.2299C19.2527 2.58454 20.299 2.58454 20.9444 3.2299Z" stroke="#D6CDFE" stroke-width="1.5"/>
</svg>
