<?xml version="1.0" encoding="UTF-8"?>
<!DOCTYPE svg PUBLIC "-//W3C//DTD SVG 1.1//EN" "http://www.w3.org/Graphics/SVG/1.1/DTD/svg11.dtd">
<svg xmlns="http://www.w3.org/2000/svg" version="1.1" width="300px" height="300px" style="shape-rendering:geometricPrecision; text-rendering:geometricPrecision; image-rendering:optimizeQuality; fill-rule:evenodd; clip-rule:evenodd" xmlns:xlink="http://www.w3.org/1999/xlink">
<g><path style="opacity:0.944" fill="#d6cdfe" d="M 243.5,3.5 C 246.482,3.10445 249.149,3.77111 251.5,5.5C 253.759,10.7066 256.092,15.8733 258.5,21C 264.158,21.7398 269.825,22.4065 275.5,23C 279.124,25.1613 280.291,28.328 279,32.5C 274.303,36.5732 269.803,40.7398 265.5,45C 273.01,68.8091 266.843,72.9758 247,57.5C 227.152,73.1641 220.652,68.9974 227.5,45C 223.697,40.8678 219.531,37.0345 215,33.5C 213.333,30.2918 213.5,27.1251 215.5,24C 222.055,22.3472 228.722,21.5139 235.5,21.5C 236.715,17.0999 238.215,12.7666 240,8.5C 240.697,6.4156 241.864,4.74894 243.5,3.5 Z M 246.5,23.5 C 247.864,25.22 248.864,27.22 249.5,29.5C 250.5,30.3333 251.5,31.1667 252.5,32C 255.5,32.3333 258.5,32.6667 261.5,33C 258.333,34.8333 255.833,37.3333 254,40.5C 254.538,43.7935 254.871,47.1268 255,50.5C 249.38,43.8518 243.713,43.8518 238,50.5C 240.99,42.8077 238.823,36.9744 231.5,33C 239.809,34.8332 244.809,31.6665 246.5,23.5 Z"/></g>
<g><path style="opacity:0.943" fill="#d6cdfe" d="M 189.5,51.5 C 196.755,51.1868 203.921,51.5201 211,52.5C 211.923,54.0344 212.423,55.701 212.5,57.5C 210.925,65.0991 209.758,72.7658 209,80.5C 206.693,85.3343 203.36,86.3343 199,83.5C 198.825,79.789 198.325,76.1224 197.5,72.5C 142.227,119.979 79.8938,155.312 10.5,178.5C 5.16412,176.346 4.16412,172.846 7.5,168C 75.2872,144.638 136.287,109.804 190.5,63.5C 187.667,63.4185 184.667,63.2518 181.5,63C 177.023,60.0562 176.689,56.7229 180.5,53C 183.695,52.8195 186.695,52.3195 189.5,51.5 Z"/></g>
<g><path style="opacity:0.935" fill="#d6cdfe" d="M 228.5,79.5 C 240.505,79.3335 252.505,79.5001 264.5,80C 265,80.5 265.5,81 266,81.5C 266.167,112.505 266.667,143.505 267.5,174.5C 272.096,178.718 276.596,183.052 281,187.5C 281.667,189.833 281.667,192.167 281,194.5C 279.692,196.134 278.858,197.968 278.5,200C 280.267,204.032 281.6,208.199 282.5,212.5C 292.29,213.393 296.29,218.726 294.5,228.5C 294.552,232.587 294.052,236.587 293,240.5C 289.866,242.712 286.366,244.046 282.5,244.5C 281.6,248.801 280.267,252.968 278.5,257C 278.858,259.032 279.692,260.866 281,262.5C 281.667,264.833 281.667,267.167 281,269.5C 276.211,275.132 270.711,279.799 264.5,283.5C 261.302,282.576 258.135,281.576 255,280.5C 251.022,281.604 247.189,283.104 243.5,285C 242.235,288.825 240.235,292.158 237.5,295C 230.167,295.667 222.833,295.667 215.5,295C 213.264,291.965 211.598,288.631 210.5,285C 206.811,283.104 202.978,281.604 199,280.5C 195.186,281.78 191.353,282.613 187.5,283C 182.032,278.533 176.865,273.7 172,268.5C 171.383,265.965 171.883,263.632 173.5,261.5C 173,260.5 172.5,259.5 172,258.5C 171.667,254.167 171.333,249.833 171,245.5C 167.579,244.025 164.246,242.359 161,240.5C 159,232.5 159,224.5 161,216.5C 164.456,215.019 167.789,213.352 171,211.5C 171.333,177.833 171.667,144.167 172,110.5C 173.214,108.951 174.714,107.785 176.5,107C 186.833,106.333 197.167,106.333 207.5,107C 208.966,107.635 210.3,108.469 211.5,109.5C 212.333,128.158 212.833,146.824 213,165.5C 213.956,164.421 214.789,163.255 215.5,162C 219.152,161.501 222.818,161.335 226.5,161.5C 225.871,134.009 226.537,106.675 228.5,79.5 Z M 237.5,90.5 C 243.5,90.5 249.5,90.5 255.5,90.5C 255.833,119.508 255.5,148.508 254.5,177.5C 251.115,175.258 247.448,173.592 243.5,172.5C 242.319,168.776 240.486,165.442 238,162.5C 237.5,138.502 237.333,114.502 237.5,90.5 Z M 182.5,117.5 C 188.833,117.5 195.167,117.5 201.5,117.5C 201.833,137.178 201.5,156.845 200.5,176.5C 199.833,176.833 199.167,177.167 198.5,177.5C 195.506,175.753 192.339,174.42 189,173.5C 186.501,174.083 184.501,175.416 183,177.5C 182.5,157.503 182.333,137.503 182.5,117.5 Z M 222.5,172.5 C 225.518,172.335 228.518,172.502 231.5,173C 232.645,176.29 234.312,179.29 236.5,182C 242.568,183.913 248.402,186.413 254,189.5C 257.251,188.707 260.251,187.374 263,185.5C 265.35,187.683 267.517,190.016 269.5,192.5C 268.436,195.199 267.436,197.866 266.5,200.5C 268.938,206.65 271.271,212.816 273.5,219C 276.019,221.429 279.019,223.095 282.5,224C 284.053,227.565 283.72,230.899 281.5,234C 278.38,234.585 275.713,235.919 273.5,238C 271.249,244.262 268.915,250.429 266.5,256.5C 267.436,259.134 268.436,261.801 269.5,264.5C 267.517,266.984 265.35,269.317 263,271.5C 259.521,269.006 255.687,268.173 251.5,269C 246.739,271.587 241.739,273.587 236.5,275C 234.116,277.379 232.616,280.213 232,283.5C 228.927,284.617 225.76,284.784 222.5,284C 221.144,281.602 219.977,279.102 219,276.5C 213.33,274.374 207.83,271.874 202.5,269C 198.039,268.594 193.706,268.928 189.5,270C 187.493,268.287 185.493,266.621 183.5,265C 185.888,261.836 187.055,258.336 187,254.5C 183.909,249.123 181.576,243.456 180,237.5C 177.808,235.765 175.308,234.598 172.5,234C 170.28,230.899 169.947,227.565 171.5,224C 174.656,223.063 177.489,221.563 180,219.5C 181.827,213.02 184.327,206.853 187.5,201C 186.22,197.848 185.387,194.681 185,191.5C 187.002,188.113 189.835,186.613 193.5,187C 195.274,187.97 197.107,188.804 199,189.5C 204.863,186.321 211.03,183.821 217.5,182C 219.64,179.08 221.306,175.913 222.5,172.5 Z M 220.5,205.5 C 238.124,203.476 248.124,211.143 250.5,228.5C 248.899,242.601 241.066,250.601 227,252.5C 209.922,249.751 202.255,239.751 204,222.5C 206.842,214.068 212.342,208.402 220.5,205.5 Z"/></g>
<g><path style="opacity:0.918" fill="#d5ccfe" d="M 119.5,134.5 C 131.171,134.333 142.838,134.5 154.5,135C 155.333,135.833 156.167,136.667 157,137.5C 157.667,178.167 157.667,218.833 157,259.5C 156.228,260.849 155.061,261.682 153.5,262C 142.833,262.667 132.167,262.667 121.5,262C 119.667,261.5 118.5,260.333 118,258.5C 117.333,218.167 117.333,177.833 118,137.5C 119.039,136.756 119.539,135.756 119.5,134.5 Z M 128.5,145.5 C 134.5,145.5 140.5,145.5 146.5,145.5C 146.5,180.833 146.5,216.167 146.5,251.5C 140.5,251.5 134.5,251.5 128.5,251.5C 128.5,216.167 128.5,180.833 128.5,145.5 Z"/></g>
<g><path style="opacity:0.945" fill="#d5cdfe" d="M 67.5,165.5 C 77.8387,165.334 88.172,165.5 98.5,166C 100.848,166.11 102.348,167.277 103,169.5C 103.667,199.167 103.667,228.833 103,258.5C 102.626,259.416 102.126,260.25 101.5,261C 90.239,262.6 78.9056,262.933 67.5,262C 65.1517,261.89 63.6517,260.723 63,258.5C 62.3333,228.5 62.3333,198.5 63,168.5C 64.4087,167.219 65.9087,166.219 67.5,165.5 Z M 73.5,176.5 C 79.8333,176.5 86.1667,176.5 92.5,176.5C 92.5,201.5 92.5,226.5 92.5,251.5C 86.1667,251.5 79.8333,251.5 73.5,251.5C 73.5,226.5 73.5,201.5 73.5,176.5 Z"/></g>
<g><path style="opacity:0.935" fill="#d6ccfe" d="M 218.5,194.5 C 246.534,192.575 260.701,205.575 261,233.5C 255.891,253.925 242.724,263.758 221.5,263C 198.318,256.455 189.152,241.288 194,217.5C 198.517,205.813 206.683,198.146 218.5,194.5 Z M 220.5,205.5 C 212.342,208.402 206.842,214.068 204,222.5C 202.255,239.751 209.922,249.751 227,252.5C 241.066,250.601 248.899,242.601 250.5,228.5C 248.124,211.143 238.124,203.476 220.5,205.5 Z"/></g>
<g><path style="opacity:0.929" fill="#d6ccfe" d="M 10.5,195.5 C 22.747,195.178 34.9136,195.512 47,196.5C 48.1448,207.073 48.6448,217.74 48.5,228.5C 48.3333,238.5 48.1667,248.5 48,258.5C 47.6258,259.416 47.1258,260.25 46.5,261C 40.6047,262.124 34.6047,262.624 28.5,262.5C 23.1667,262.333 17.8333,262.167 12.5,262C 11.376,261.751 10.376,261.251 9.5,260.5C 8.34527,239.877 8.1786,219.21 9,198.5C 9.51328,197.473 10.0133,196.473 10.5,195.5 Z M 19.5,205.5 C 25.5,205.5 31.5,205.5 37.5,205.5C 37.5,220.833 37.5,236.167 37.5,251.5C 31.5,251.5 25.5,251.5 19.5,251.5C 19.5,236.167 19.5,220.833 19.5,205.5 Z"/></g>
</svg>
