<svg width="300" height="239" viewBox="0 0 300 239" fill="none" xmlns="http://www.w3.org/2000/svg">
<rect x="32.9956" y="15.2285" width="208.125" height="208.125" rx="100" fill="black"/>
<circle cx="115.016" cy="131.747" r="23.0222" transform="rotate(-165 115.016 131.747)" stroke="white" stroke-width="5"/>
<path d="M135.921 118.157L192.684 85.6168" stroke="white" stroke-width="5" stroke-linecap="round"/>
<path d="M182.793 91.3271L189.138 102.317" stroke="white" stroke-width="5" stroke-linecap="round"/>
<path d="M164.109 102.114L170.454 113.105" stroke="white" stroke-width="5" stroke-linecap="round"/>
<rect opacity="0.5" x="12.6907" y="7.61426" width="106.601" height="106.601" rx="53.3003" fill="#4C407B"/>
<rect width="106.601" height="106.601" rx="53.3003" fill="#D6CDFE"/>
<path d="M51.2203 34.0312V33.3086C51.2203 32.8659 51.2822 32.4753 51.4059 32.1367C51.5296 31.7917 51.7281 31.4661 52.0016 31.1602C52.275 30.8477 52.6364 30.5286 53.0856 30.2031C53.4892 29.9167 53.8115 29.6595 54.0524 29.4316C54.2998 29.2038 54.4788 28.9792 54.5895 28.7578C54.7067 28.5299 54.7653 28.2728 54.7653 27.9863C54.7653 27.5632 54.609 27.2409 54.2965 27.0195C53.984 26.7982 53.5478 26.6875 52.9879 26.6875C52.428 26.6875 51.8714 26.7754 51.318 26.9512C50.7711 27.127 50.2145 27.3581 49.6481 27.6445L48.5836 25.5059C49.2347 25.1413 49.941 24.8483 50.7028 24.627C51.4645 24.3991 52.2978 24.2852 53.2028 24.2852C54.596 24.2852 55.6735 24.6204 56.4352 25.291C57.2034 25.9551 57.5875 26.8014 57.5875 27.8301C57.5875 28.377 57.4996 28.8522 57.3239 29.2559C57.1546 29.653 56.8942 30.0241 56.5426 30.3691C56.1975 30.7077 55.7646 31.0658 55.2438 31.4434C54.8531 31.7298 54.5537 31.9707 54.3453 32.166C54.137 32.3613 53.9938 32.5566 53.9156 32.752C53.844 32.9408 53.8082 33.1719 53.8082 33.4453V34.0312H51.2203ZM50.9078 37.3711C50.9078 36.7591 51.0739 36.3294 51.4059 36.082C51.7444 35.8346 52.1513 35.7109 52.6266 35.7109C53.0888 35.7109 53.486 35.8346 53.818 36.082C54.1565 36.3294 54.3258 36.7591 54.3258 37.3711C54.3258 37.957 54.1565 38.3802 53.818 38.6406C53.486 38.901 53.0888 39.0312 52.6266 39.0312C52.1513 39.0312 51.7444 38.901 51.4059 38.6406C51.0739 38.3802 50.9078 37.957 50.9078 37.3711Z" fill="black"/>
<path d="M272.614 211.439L273.091 200.737C278.059 198.085 283.6 196.684 289.234 196.656C281.481 202.987 282.45 215.189 277.193 223.702C275.533 226.344 273.299 228.58 270.657 230.243C268.014 231.906 265.03 232.954 261.927 233.309L255.439 237.276C254.549 232.32 254.745 227.229 256.014 222.356C257.284 217.483 259.596 212.942 262.792 209.047C264.606 206.879 266.687 204.949 268.984 203.3C270.538 207.392 272.614 211.439 272.614 211.439Z" fill="#E6E6E6"/>
<path d="M255.897 231.769L250.022 231.769L247.227 209.139L255.898 209.139L255.897 231.769Z" fill="#FFB6B6"/>
<path d="M257.396 237.454L238.452 237.454V237.214C238.452 235.262 239.229 233.389 240.612 232.008C241.995 230.627 243.87 229.851 245.825 229.851H245.826L249.286 227.229L255.742 229.851L257.396 229.852L257.396 237.454Z" fill="#2F2E41"/>
<path d="M228.603 231.769L222.728 231.769L219.933 209.139L228.604 209.139L228.603 231.769Z" fill="#FFB6B6"/>
<path d="M230.101 237.454L211.158 237.454V237.214C211.158 235.262 211.935 233.389 213.317 232.008C214.7 230.627 216.576 229.851 218.531 229.851H218.532L221.992 227.229L228.448 229.851L230.102 229.852L230.101 237.454Z" fill="#2F2E41"/>
<path d="M226.06 108.049L264.274 109.003C271.531 112.94 271.641 121.46 269.263 131.576C269.263 131.576 270.066 137.588 268.461 139.192C266.855 140.795 266.052 140.795 266.855 143.601C267.658 146.407 263.417 150.99 263.932 151.504C264.447 152.019 265.651 154.825 265.651 154.825L261.637 177.673C261.637 177.673 258.827 217.356 258.025 218.158C257.222 218.96 256.419 218.158 257.222 220.162C258.025 222.166 258.827 221.365 258.025 222.166C257.314 222.932 256.644 223.735 256.018 224.571H246.313C246.313 224.571 245.582 220.563 245.582 220.162C245.582 219.761 244.779 217.356 244.779 216.955C244.779 216.554 245.489 215.846 245.489 215.846C245.734 215.031 245.899 214.194 245.983 213.348C245.983 212.546 248.391 181.681 248.391 181.681L243.575 141.597L231.935 180.879C231.935 180.879 231.935 215.352 231.132 216.154C230.329 216.955 230.329 216.554 230.731 218.158C231.132 219.761 232.738 219.36 231.533 220.563C230.329 221.765 229.928 219.761 230.329 221.765L230.731 223.77L218.689 223.942C218.689 223.942 217.083 220.563 217.886 219.36C218.689 218.158 218.641 218.486 217.661 216.518C216.682 214.55 216.281 214.149 216.682 213.749C217.083 213.348 217.083 211.216 217.083 211.216L219.09 172.863C219.09 172.863 219.492 132.377 219.492 131.175C219.522 130.556 219.408 129.939 219.158 129.372V127.739L220.696 121.956L226.06 108.049Z" fill="#69687F"/>
<path d="M249.015 28.6967C255.573 28.6967 260.888 23.3881 260.888 16.8396C260.888 10.291 255.573 4.98242 249.015 4.98242C242.458 4.98242 237.142 10.291 237.142 16.8396C237.142 23.3881 242.458 28.6967 249.015 28.6967Z" fill="#FFB6B6"/>
<path d="M243.079 36.5325C240.521 38.0511 238.991 40.8414 238.112 43.6808C236.486 48.9375 235.507 54.3725 235.197 59.8657L234.269 76.3113L222.779 111.329C232.737 119.743 270.169 113.241 270.169 113.241C270.169 113.241 271.318 112.859 270.169 111.711C269.02 110.564 267.901 111.58 269.05 110.433C270.199 109.285 269.407 110.564 269.024 109.416C268.641 108.269 269.024 109.034 269.407 108.651C269.79 108.269 266.442 104.826 266.442 104.826L269.506 84.726L273.336 44.1822C268.74 38.4449 259.497 35.0628 259.497 35.0628L257.108 30.7695L245.167 31.7236L243.079 36.5325Z" fill="#130160"/>
<path d="M241.45 9.88051C241.91 9.88409 242.367 9.944 242.812 10.0589C243.689 10.2694 244.579 10.4185 245.477 10.5052C248.225 10.7634 250.808 11.9341 252.813 13.8301C254.817 15.7262 256.127 18.2383 256.534 20.9652C257.224 20.3645 258.794 19.2596 260.081 20.2865C260.1 20.3028 260.112 20.3112 260.157 20.2898C261.011 19.885 262.528 14.9018 262.574 10.5143C262.599 8.18552 262.231 5.21181 260.346 4.2701L260.246 4.22049L260.22 4.11265C260.094 3.58881 258.686 2.69462 256.24 1.99865C251.793 0.733883 245.165 -1.72991 241.433 1.89599C241.15 3.11836 240.232 5.73425 239.303 6.03076C238.275 6.35895 237.388 6.64218 237.248 7.90136C237.131 9.69326 237.139 11.4911 237.273 13.2819C237.621 12.1861 238.305 11.227 239.228 10.5397C239.884 10.0985 240.66 9.86853 241.45 9.88051V9.88051Z" fill="#2F2E41"/>
<path d="M219.351 75.3958L238.746 62.9915L228.977 50.0234L219.331 61.8727L189.277 63.7135C188.486 62.9332 187.486 62.3994 186.397 62.1772C185.308 61.9551 184.177 62.0541 183.144 62.4624C182.11 62.8706 181.218 63.5703 180.576 64.4763C179.933 65.3822 179.569 66.4552 179.527 67.5644C179.484 68.6737 179.766 69.7712 180.338 70.7232C180.91 71.6752 181.746 72.4405 182.746 72.9259C183.745 73.4112 184.865 73.5956 185.968 73.4566C187.07 73.3176 188.109 72.8611 188.956 72.1429L219.351 75.3958Z" fill="#FFB6B6"/>
<path d="M256.747 45.679C257.873 52.4822 236.615 65.4733 236.615 65.4733C236.615 63.8765 223.927 75.9314 223.355 74.6071C221.727 70.8432 220.583 61.9283 218.308 60.5014C217.008 59.6853 226.142 52.0195 226.142 52.0195C226.142 52.0195 230.923 47.2093 237.198 41.1419C238.94 39.3937 241.096 38.114 243.467 37.4221C245.837 36.7301 248.344 36.6484 250.755 37.1844C250.755 37.1844 255.621 38.8759 256.747 45.679Z" fill="#130160"/>
<path d="M296.723 78.6535L283.894 59.5518L271.118 69.5795L283.185 78.9593L285.664 108.927C284.9 109.733 284.387 110.744 284.187 111.836C283.988 112.928 284.111 114.054 284.542 115.077C284.972 116.101 285.692 116.977 286.612 117.599C287.533 118.221 288.615 118.562 289.726 118.581C290.837 118.6 291.93 118.295 292.871 117.704C293.812 117.113 294.561 116.262 295.025 115.253C295.49 114.245 295.651 113.123 295.488 112.025C295.326 110.927 294.847 109.9 294.11 109.069L296.723 78.6535Z" fill="#FFB6B6"/>
<path d="M266.18 41.944C272.967 40.6761 286.423 61.6249 286.423 61.6249C284.824 61.659 297.161 74.0712 295.847 74.671C292.114 76.3758 283.213 77.7071 281.833 80.0081C281.043 81.324 273.175 72.3666 273.175 72.3666C273.175 72.3666 268.258 67.6947 262.051 61.5587C260.264 59.8565 258.938 57.7304 258.195 55.3783C257.452 53.0263 257.317 50.5247 257.802 48.1066C257.802 48.1066 259.393 43.2119 266.18 41.944Z" fill="#130160"/>
<path d="M300 237.552C300 237.627 299.986 237.701 299.957 237.77C299.929 237.839 299.887 237.901 299.834 237.954C299.781 238.007 299.719 238.049 299.649 238.077C299.58 238.105 299.506 238.12 299.432 238.12H165.546C165.395 238.12 165.25 238.06 165.144 237.953C165.037 237.847 164.977 237.703 164.977 237.552C164.977 237.401 165.037 237.257 165.144 237.151C165.25 237.044 165.395 236.984 165.546 236.984H299.432C299.506 236.984 299.58 236.999 299.649 237.027C299.719 237.056 299.781 237.097 299.834 237.15C299.887 237.203 299.929 237.266 299.957 237.335C299.986 237.404 300 237.477 300 237.552Z" fill="#130160"/>
</svg>
