<svg width="28" height="28" viewBox="0 0 28 28" fill="none" xmlns="http://www.w3.org/2000/svg">
<path d="M24.9283 17.4541H24.813C24.3548 17.4541 23.9833 17.8255 23.9833 18.2838V26C23.9833 26.6904 23.4237 27.25 22.7333 27.25H17.0833V21.1361C17.0833 20.1696 16.2998 19.3861 15.3333 19.3861H12.6667C11.7002 19.3861 10.9167 20.1696 10.9167 21.1361V27.25H5.26667C4.57631 27.25 4.01667 26.6904 4.01667 26V18.2838C4.01667 17.8255 3.64521 17.4541 3.18699 17.4541H2.97274C1.74515 17.4541 0.75 16.4589 0.75 15.2313C0.75 14.6418 0.984181 14.0765 1.40102 13.6596L13.1237 1.93696C13.61 1.45066 14.3978 1.44855 14.8867 1.93223L26.5611 13.4819C27.002 13.918 27.25 14.5123 27.25 15.1324C27.25 16.4146 26.2105 17.4541 24.9283 17.4541Z" stroke="#D6CDFE" stroke-width="1.5"/>
</svg>
