<?xml version="1.0" encoding="UTF-8"?>
<!DOCTYPE svg PUBLIC "-//W3C//DTD SVG 1.1//EN" "http://www.w3.org/Graphics/SVG/1.1/DTD/svg11.dtd">
<svg xmlns="http://www.w3.org/2000/svg" version="1.1" width="300px" height="300px" style="shape-rendering:geometricPrecision; text-rendering:geometricPrecision; image-rendering:optimizeQuality; fill-rule:evenodd; clip-rule:evenodd" xmlns:xlink="http://www.w3.org/1999/xlink">
<g><path style="opacity:0.933" fill="#d6cdfe" d="M 255.5,-0.5 C 269.833,-0.5 284.167,-0.5 298.5,-0.5C 298.5,0.166667 298.833,0.5 299.5,0.5C 299.5,2.83333 299.5,5.16667 299.5,7.5C 298.19,9.43456 296.857,11.4346 295.5,13.5C 296.857,15.5654 298.19,17.5654 299.5,19.5C 299.5,21.8333 299.5,24.1667 299.5,26.5C 287.751,28.4474 275.751,29.114 263.5,28.5C 263.169,35.8635 263.503,43.1968 264.5,50.5C 267.805,51.9722 270.305,54.3055 272,57.5C 272.667,74.1667 272.667,90.8333 272,107.5C 270.307,110.772 267.807,113.272 264.5,115C 254.706,115.359 245.039,116.526 235.5,118.5C 233.586,120.202 232.086,122.202 231,124.5C 230.333,134.5 230.333,144.5 231,154.5C 242.498,160.915 253.831,167.581 265,174.5C 265.667,187.833 265.667,201.167 265,214.5C 262.521,217.093 260.021,217.093 257.5,214.5C 256.668,203.181 256.168,191.848 256,180.5C 244.646,173.801 233.313,167.135 222,160.5C 220.063,147.194 220.063,133.86 222,120.5C 224.646,113.857 229.48,109.691 236.5,108C 244.449,106.844 252.449,106.178 260.5,106C 261.308,105.692 261.975,105.192 262.5,104.5C 263.649,90.2117 263.816,75.8783 263,61.5C 260,57.5 257,57.5 254,61.5C 253.667,71.5 253.333,81.5 253,91.5C 252.215,93.286 251.049,94.786 249.5,96C 226.131,96.0628 202.797,96.7295 179.5,98C 170.823,105.011 163.156,113.011 156.5,122C 150.673,124.797 144.673,127.297 138.5,129.5C 138.167,130 137.833,130.5 137.5,131C 138.994,133.639 139.661,136.472 139.5,139.5C 147.062,137.48 154.562,135.147 162,132.5C 166.993,127.673 171.826,122.673 176.5,117.5C 178.998,116.062 181.164,116.396 183,118.5C 183.829,156.071 183.663,193.571 182.5,231C 179.653,231.944 177.153,231.444 175,229.5C 174.667,197.833 174.333,166.167 174,134.5C 170.283,139.281 165.449,142.448 159.5,144C 141.823,148.75 124.489,154.416 107.5,161C 100.218,162.135 92.8847,162.801 85.5,163C 84,164.167 82.5,165.333 81,166.5C 79.42,175.424 79.0867,184.424 80,193.5C 90.9598,199.768 101.96,206.102 113,212.5C 114.592,222.759 114.926,233.093 114,243.5C 112.333,248.5 109.333,249.5 105,246.5C 104.667,237.167 104.333,227.833 104,218.5C 92.6465,211.801 81.3132,205.135 70,198.5C 69.3333,188.167 69.3333,177.833 70,167.5C 72.4524,161.722 76.2857,157.222 81.5,154C 88.4486,152.878 95.4486,152.211 102.5,152C 110.5,149.333 118.5,146.667 126.5,144C 130.653,141.889 131.32,139.055 128.5,135.5C 126.568,134.48 124.568,134.313 122.5,135C 115.548,137.488 108.548,139.821 101.5,142C 77.8333,142.333 54.1667,142.667 30.5,143C 25.043,143.477 20.8763,145.977 18,150.5C 17.3333,168.833 17.3333,187.167 18,205.5C 19.2997,208.432 21.2997,210.766 24,212.5C 24.167,193.824 24.667,175.158 25.5,156.5C 27.8333,155.167 30.1667,155.167 32.5,156.5C 33.6666,191.162 33.8332,225.829 33,260.5C 30.3333,263.167 27.6667,263.167 25,260.5C 24.5001,247.838 24.3334,235.171 24.5,222.5C 15.6785,220.659 10.1785,215.326 8,206.5C 7.33333,187.5 7.33333,168.5 8,149.5C 11.2075,140.957 17.3742,135.79 26.5,134C 30.1667,133.667 33.8333,133.333 37.5,133C 34.8366,131.199 33.0033,128.699 32,125.5C 29.1617,117.603 28.8284,109.603 31,101.5C 37.7116,90.0724 47.545,86.2391 60.5,90C 69.8003,94.4946 74.467,101.995 74.5,112.5C 74.2703,120.368 71.6036,127.201 66.5,133C 78.5578,133.915 90.5578,133.581 102.5,132C 118.211,126.32 133.878,120.653 149.5,115C 156.462,105.704 164.462,97.3703 173.5,90C 179.986,87.9634 186.652,86.9634 193.5,87C 185.474,77.5278 182.974,66.6944 186,54.5C 192.568,42.0003 202.735,37.8336 216.5,42C 222.247,44.0789 226.414,47.9122 229,53.5C 232.296,65.1299 230.462,75.7966 223.5,85.5C 230.134,86.4967 236.8,86.83 243.5,86.5C 243.334,77.8269 243.5,69.1603 244,60.5C 245.207,55.7926 248.04,52.4592 252.5,50.5C 253.333,34.5104 253.833,18.5104 254,2.5C 254.513,1.47344 255.013,0.473444 255.5,-0.5 Z M 263.5,8.5 C 271.507,8.33362 279.507,8.50029 287.5,9C 284.833,12 284.833,15 287.5,18C 279.507,18.4997 271.507,18.6664 263.5,18.5C 263.5,15.1667 263.5,11.8333 263.5,8.5 Z M 202.5,50.5 C 214.062,48.6043 220.395,53.4377 221.5,65C 220.983,71.6369 218.316,77.1369 213.5,81.5C 207.993,84.1725 203.159,83.1725 199,78.5C 194.887,71.9372 193.887,64.9372 196,57.5C 197.425,54.3937 199.592,52.0604 202.5,50.5 Z M 46.5,98.5 C 61.2985,97.1383 67.1318,103.805 64,118.5C 62.283,123.549 59.1163,127.382 54.5,130C 46.9433,130.464 42.11,126.964 40,119.5C 37.2229,110.828 39.3895,103.828 46.5,98.5 Z"/></g>
<g><path style="opacity:0.921" fill="#d6cdfe" d="M 200.5,163.5 C 202.199,163.34 203.866,163.506 205.5,164C 218.277,170.801 230.777,177.968 243,185.5C 243.832,195.184 243.665,204.851 242.5,214.5C 239.959,217.1 237.459,217.1 235,214.5C 234.5,206.507 234.334,198.507 234.5,190.5C 231.984,190.245 229.65,189.411 227.5,188C 221.082,184.041 214.582,180.207 208,176.5C 207.667,194.5 207.333,212.5 207,230.5C 204.534,231.788 202.034,231.788 199.5,230.5C 198.334,208.841 198.167,187.174 199,165.5C 199.717,164.956 200.217,164.289 200.5,163.5 Z"/></g>
<g><path style="opacity:0.914" fill="#d5ccfe" d="M 50.5,201.5 C 64.3295,207.416 77.6628,214.416 90.5,222.5C 91.6649,230.479 91.8316,238.479 91,246.5C 88.6272,248.85 86.1272,249.017 83.5,247C 82.6896,241.249 82.1896,235.416 82,229.5C 74.1318,224.567 66.1318,219.901 58,215.5C 57.6667,229.833 57.3333,244.167 57,258.5C 54.9485,262.928 51.9485,263.595 48,260.5C 47.3333,241.833 47.3333,223.167 48,204.5C 48.6979,203.309 49.5313,202.309 50.5,201.5 Z"/></g>
<g><path style="opacity:0.941" fill="#d5cdfd" d="M 299.5,231.5 C 299.5,253.833 299.5,276.167 299.5,298.5C 298.833,298.5 298.5,298.833 298.5,299.5C 296.5,299.5 294.5,299.5 292.5,299.5C 292.217,298.711 291.717,298.044 291,297.5C 290.5,278.17 290.333,258.836 290.5,239.5C 269.5,239.5 248.5,239.5 227.5,239.5C 227.81,259.546 227.476,279.546 226.5,299.5C 223.833,299.5 221.167,299.5 218.5,299.5C 217.533,284.882 217.2,270.215 217.5,255.5C 196.5,255.5 175.5,255.5 154.5,255.5C 154.667,269.504 154.5,283.504 154,297.5C 153.283,298.044 152.783,298.711 152.5,299.5C 150.5,299.5 148.5,299.5 146.5,299.5C 144.564,289.76 143.898,279.76 144.5,269.5C 123.5,269.5 102.5,269.5 81.5,269.5C 81.7838,279.552 81.4504,289.552 80.5,299.5C 77.8333,299.5 75.1667,299.5 72.5,299.5C 71.6076,294.562 71.2743,289.562 71.5,284.5C 50.5,284.5 29.5,284.5 8.5,284.5C 8.66568,288.846 8.49902,293.179 8,297.5C 7.28281,298.044 6.78281,298.711 6.5,299.5C 4.5,299.5 2.5,299.5 0.5,299.5C 0.5,298.833 0.166667,298.5 -0.5,298.5C -0.5,291.167 -0.5,283.833 -0.5,276.5C 23.4253,275.51 47.4253,275.177 71.5,275.5C 71.3345,271.486 71.5012,267.486 72,263.5C 72.5,261.667 73.6667,260.5 75.5,260C 98.4976,259.5 121.498,259.333 144.5,259.5C 144.003,255.241 144.669,251.241 146.5,247.5C 170.157,246.5 193.824,246.167 217.5,246.5C 217.334,242.154 217.501,237.821 218,233.5C 218.374,232.584 218.874,231.75 219.5,231C 246.239,230.176 272.905,230.343 299.5,231.5 Z"/></g>
</svg>
