<?xml version="1.0" encoding="UTF-8"?>
<!DOCTYPE svg PUBLIC "-//W3C//DTD SVG 1.1//EN" "http://www.w3.org/Graphics/SVG/1.1/DTD/svg11.dtd">
<svg xmlns="http://www.w3.org/2000/svg" version="1.1" width="220px" height="220px" style="shape-rendering:geometricPrecision; text-rendering:geometricPrecision; image-rendering:optimizeQuality; fill-rule:evenodd; clip-rule:evenodd" xmlns:xlink="http://www.w3.org/1999/xlink">
<g><path style="opacity:0.989" fill="#d6cdfd" d="M 51.5,-0.5 C 58.8333,-0.5 66.1667,-0.5 73.5,-0.5C 79.7921,1.47678 85.7921,4.31011 91.5,8C 97.6499,13.3157 103.65,18.8157 109.5,24.5C 115.35,18.8157 121.35,13.3157 127.5,8C 133.441,4.02425 139.774,1.19092 146.5,-0.5C 153.167,-0.5 159.833,-0.5 166.5,-0.5C 189.585,5.07383 205.419,19.0738 214,41.5C 216.295,48.514 218.128,55.514 219.5,62.5C 219.5,71.5 219.5,80.5 219.5,89.5C 216.461,105.581 209.627,119.914 199,132.5C 169.936,161.063 141.436,190.063 113.5,219.5C 110.833,219.5 108.167,219.5 105.5,219.5C 75.8695,188.702 46.0361,158.035 16,127.5C 7.44593,116.068 1.94593,103.402 -0.5,89.5C -0.5,80.1667 -0.5,70.8333 -0.5,61.5C 2.9477,38.7731 13.9477,20.6064 32.5,7C 38.7179,3.87923 45.0512,1.37923 51.5,-0.5 Z"/></g>
<g><path style="opacity:1" fill="#fefefe" d="M 54.5,13.5 C 65.5966,11.9408 75.5966,14.4408 84.5,21C 93.0418,29.3743 101.375,37.8743 109.5,46.5C 118.506,36.4943 128.173,27.1609 138.5,18.5C 159.98,9.74557 178.147,14.4122 193,32.5C 208.855,59.1208 209.522,86.1208 195,113.5C 167.64,143.838 139.14,173.171 109.5,201.5C 81.5129,173.346 53.6796,145.013 26,116.5C 12.064,94.0271 9.73062,70.3604 19,45.5C 26.0255,29.2987 37.8589,18.6321 54.5,13.5 Z"/></g>
</svg>
