<?xml version="1.0" encoding="UTF-8"?>
<!DOCTYPE svg PUBLIC "-//W3C//DTD SVG 1.1//EN" "http://www.w3.org/Graphics/SVG/1.1/DTD/svg11.dtd">
<svg xmlns="http://www.w3.org/2000/svg" version="1.1" width="240px" height="240px" style="shape-rendering:geometricPrecision; text-rendering:geometricPrecision; image-rendering:optimizeQuality; fill-rule:evenodd; clip-rule:evenodd" xmlns:xlink="http://www.w3.org/1999/xlink">
<g><path style="opacity:0.963" fill="#d5ccfd" d="M 72.5,31.5 C 83.8382,31.3335 95.1716,31.5001 106.5,32C 135.172,38.6404 148.339,56.4738 146,85.5C 143.091,88.3939 139.591,89.2272 135.5,88C 133.951,86.786 132.785,85.286 132,83.5C 131.82,65.0118 122.987,53.1784 105.5,48C 94.8333,47.3333 84.1667,47.3333 73.5,48C 59.6399,51.1935 51.1399,59.6935 48,73.5C 47.3333,104.167 47.3333,134.833 48,165.5C 51.1935,179.36 59.6935,187.86 73.5,191C 85.5578,191.915 97.5578,191.581 109.5,190C 124.638,183.573 132.138,172.073 132,155.5C 136.436,147.853 141.436,147.519 147,154.5C 147.935,180.461 136.102,197.628 111.5,206C 98.5481,207.567 85.5481,207.9 72.5,207C 52.3976,202.898 39.2309,191.065 33,171.5C 31.8688,154.209 31.3688,136.875 31.5,119.5C 31.3688,102.125 31.8688,84.7913 33,67.5C 39.4049,47.9224 52.5715,35.9224 72.5,31.5 Z"/></g>
<g><path style="opacity:0.959" fill="#d5ccfd" d="M 168.5,81.5 C 172.803,80.7962 176.303,82.1295 179,85.5C 187.692,96.6919 196.192,108.025 204.5,119.5C 195.009,132.482 185.009,144.982 174.5,157C 164.962,157.772 161.795,153.605 165,144.5C 169.408,139.348 173.575,134.015 177.5,128.5C 147.172,127.667 116.839,127.167 86.5,127C 82.1392,124.774 80.6392,121.274 82,116.5C 82.8333,114.333 84.3333,112.833 86.5,112C 116.839,111.833 147.172,111.333 177.5,110.5C 173.192,104.359 168.692,98.3586 164,92.5C 163.083,87.7317 164.583,84.065 168.5,81.5 Z"/></g>
</svg>
