<?xml version="1.0" encoding="UTF-8"?>
<!DOCTYPE svg PUBLIC "-//W3C//DTD SVG 1.1//EN" "http://www.w3.org/Graphics/SVG/1.1/DTD/svg11.dtd">
<svg xmlns="http://www.w3.org/2000/svg" version="1.1" width="250px" height="250px" style="shape-rendering:geometricPrecision; text-rendering:geometricPrecision; image-rendering:optimizeQuality; fill-rule:evenodd; clip-rule:evenodd" xmlns:xlink="http://www.w3.org/1999/xlink">
<g><path style="opacity:0.977" fill="#d6cdfe" d="M 49.5,-0.5 C 56.8333,-0.5 64.1667,-0.5 71.5,-0.5C 100.097,6.26984 116.93,24.2698 122,53.5C 123.776,73.8435 117.442,91.1768 103,105.5C 102.495,87.6456 94.6615,74.1456 79.5,65C 89.4298,47.786 85.4298,34.786 67.5,26C 52.5165,23.4091 42.3498,29.2425 37,43.5C 35.5758,51.3 37.0758,58.4667 41.5,65C 26.3413,74.1391 18.5079,87.6391 18,105.5C 8.38237,95.9237 2.21571,84.5903 -0.5,71.5C -0.5,63.8333 -0.5,56.1667 -0.5,48.5C 6.28149,22.0516 22.9482,5.71827 49.5,-0.5 Z"/></g>
<g><path style="opacity:0.965" fill="#d6cdfe" d="M 120.5,14.5 C 144.343,13.5834 166.177,19.5834 186,32.5C 202.183,26.0912 213.183,31.0912 219,47.5C 220.101,53.016 219.267,58.1827 216.5,63C 230.037,82.7791 235.703,104.612 233.5,128.5C 228.779,125.271 223.946,122.271 219,119.5C 217.787,102.862 212.787,87.529 204,73.5C 189.941,76.9704 180.274,71.9704 175,58.5C 174.201,53.9132 174.368,49.4132 175.5,45C 161.121,36.1516 145.454,30.9849 128.5,29.5C 126.077,24.3189 123.411,19.3189 120.5,14.5 Z"/></g>
<g><path style="opacity:0.935" fill="#d6cdfe" d="M 56.5,38.5 C 70.5744,38.8167 74.5744,45.3167 68.5,58C 55.2662,63.0943 49.0995,58.5943 50,44.5C 52.0627,42.2659 54.2294,40.2659 56.5,38.5 Z"/></g>
<g><path style="opacity:0.97" fill="#d6cdfe" d="M 57.5,73.5 C 73.536,73.5823 83.7027,81.2489 88,96.5C 88.4996,103.158 88.6663,109.825 88.5,116.5C 69.8413,124.499 51.1746,124.499 32.5,116.5C 29.1312,101.281 33.1312,88.6144 44.5,78.5C 48.725,76.2085 53.0583,74.5419 57.5,73.5 Z"/></g>
<g><path style="opacity:0.962" fill="#d6cdfe" d="M 14.5,120.5 C 19.7258,123.364 24.8924,126.364 30,129.5C 31.213,146.138 36.213,161.471 45,175.5C 59.0595,172.03 68.7261,177.03 74,190.5C 74.7991,195.087 74.6324,199.587 73.5,204C 87.8792,212.848 103.546,218.015 120.5,219.5C 122.647,224.46 125.314,229.127 128.5,233.5C 104.601,235.699 82.768,230.032 63,216.5C 50.1419,222.202 39.8085,219.202 32,207.5C 28.5134,200.194 28.68,193.027 32.5,186C 19.235,166.055 13.235,144.222 14.5,120.5 Z"/></g>
<g><path style="opacity:0.976" fill="#d6cdfe" d="M 249.5,177.5 C 249.5,184.833 249.5,192.167 249.5,199.5C 246.769,212.623 240.603,223.956 231,233.5C 230.377,215.575 222.544,201.908 207.5,192.5C 214.858,180.582 213.858,169.415 204.5,159C 188.906,149.053 176.073,151.886 166,167.5C 164.483,173.08 164.149,178.747 165,184.5C 165.726,187.621 167.226,190.287 169.5,192.5C 154.474,201.869 146.64,215.536 146,233.5C 127.802,214.706 122.469,192.706 130,167.5C 143.819,136.372 167.653,123.205 201.5,128C 227.548,134.879 243.548,151.379 249.5,177.5 Z"/></g>
<g><path style="opacity:0.944" fill="#d6cdfe" d="M 184.5,166.5 C 196.7,166.191 201.2,171.857 198,183.5C 190.497,190.581 183.831,189.914 178,181.5C 175.865,174.45 178.032,169.45 184.5,166.5 Z"/></g>
<g><path style="opacity:0.973" fill="#d6cdfe" d="M 199.5,249.5 C 192.167,249.5 184.833,249.5 177.5,249.5C 171.808,248.221 166.141,246.554 160.5,244.5C 160.334,237.492 160.5,230.492 161,223.5C 164.94,209.734 174.107,202.401 188.5,201.5C 199.024,202.175 207.191,206.842 213,215.5C 216.189,224.87 217.355,234.536 216.5,244.5C 210.859,246.554 205.192,248.221 199.5,249.5 Z"/></g>
</svg>
