<?xml version="1.0" encoding="UTF-8"?>
<!DOCTYPE svg PUBLIC "-//W3C//DTD SVG 1.1//EN" "http://www.w3.org/Graphics/SVG/1.1/DTD/svg11.dtd">
<svg xmlns="http://www.w3.org/2000/svg" version="1.1" width="240px" height="240px" style="shape-rendering:geometricPrecision; text-rendering:geometricPrecision; image-rendering:optimizeQuality; fill-rule:evenodd; clip-rule:evenodd" xmlns:xlink="http://www.w3.org/1999/xlink">
<g><path style="opacity:0.966" fill="#d5ccfd" d="M 109.5,19.5 C 140.714,16.8456 161.547,30.1789 172,59.5C 174.481,75.5355 177.148,91.5355 180,107.5C 184.5,120.835 190.834,133.169 199,144.5C 201.622,153.737 199.122,161.237 191.5,167C 189.913,167.862 188.246,168.529 186.5,169C 141.833,169.667 97.1667,169.667 52.5,169C 42.0595,165.628 37.5595,158.461 39,147.5C 42.1727,140.329 46.1727,133.663 51,127.5C 54.2517,121.411 56.9184,115.078 59,108.5C 61.7969,90.0505 65.1302,71.7172 69,53.5C 76.9639,35.3539 90.4639,24.0206 109.5,19.5 Z M 118.5,34.5 C 138.585,35.9449 151.418,46.2782 157,65.5C 159.073,82.6774 162.073,99.6774 166,116.5C 170.609,129.053 176.775,140.72 184.5,151.5C 184.291,152.086 183.957,152.586 183.5,153C 140.596,153.83 97.7624,153.663 55,152.5C 54.3333,151.5 54.3333,150.5 55,149.5C 64.5516,138.065 71.2182,125.065 75,110.5C 77.5195,95.5304 79.8528,80.5304 82,65.5C 87.1912,46.8373 99.3579,36.504 118.5,34.5 Z"/></g>
<g><path style="opacity:0.971" fill="#d5ccfd" d="M 114.5,179.5 C 127.283,178.136 135.783,183.469 140,195.5C 141.854,208.296 136.687,216.796 124.5,221C 111.692,222.849 103.192,217.682 99,205.5C 97.2697,192.616 102.436,183.949 114.5,179.5 Z M 117.5,195.5 C 122.665,195.162 124.831,197.495 124,202.5C 121,206.5 118,206.5 115,202.5C 114.162,199.519 114.995,197.186 117.5,195.5 Z"/></g>
</svg>
