<?xml version="1.0" encoding="UTF-8"?>
<!DOCTYPE svg PUBLIC "-//W3C//DTD SVG 1.1//EN" "http://www.w3.org/Graphics/SVG/1.1/DTD/svg11.dtd">
<svg xmlns="http://www.w3.org/2000/svg" version="1.1" width="240px" height="240px" style="shape-rendering:geometricPrecision; text-rendering:geometricPrecision; image-rendering:optimizeQuality; fill-rule:evenodd; clip-rule:evenodd" xmlns:xlink="http://www.w3.org/1999/xlink">
<g><path style="opacity:0.978" fill="#d5ccfd" d="M 105.5,19.5 C 149.65,15.8264 183.484,32.4931 207,69.5C 229.116,115.63 222.616,157.13 187.5,194C 154.308,221.309 117.641,226.975 77.5,211C 29.7337,184.951 11.567,145.118 23,91.5C 32.8747,60.5591 52.708,38.7258 82.5,26C 90.1627,23.3384 97.8294,21.1717 105.5,19.5 Z M 116.5,34.5 C 149.979,34.9814 175.479,49.3148 193,77.5C 209.585,110.3 207.252,141.634 186,171.5C 158.668,143.208 126.168,135.042 88.5,147C 74.7611,152.406 62.9278,160.572 53,171.5C 28.0698,135.39 28.7364,99.7233 55,64.5C 71.5711,46.2971 92.0711,36.2971 116.5,34.5 Z M 116.5,68.5 C 132.523,69.0234 141.857,77.19 144.5,93C 141.877,111.614 131.21,119.614 112.5,117C 95.5134,109.042 91.0134,96.5424 99,79.5C 103.578,73.6384 109.411,69.9717 116.5,68.5 Z M 110.5,157.5 C 136.333,155.436 157.666,164.103 174.5,183.5C 147.485,205.071 117.818,209.571 85.5,197C 77.215,193.661 70.3817,188.828 65,182.5C 77.2799,168.779 92.4466,160.446 110.5,157.5 Z"/></g>
<g><path style="opacity:0.978" fill="#d5ccfd" d="M 116.5,52.5 C 147.44,54.9384 161.607,71.6051 159,102.5C 151.62,125.617 135.786,135.784 111.5,133C 87.3403,125.874 76.8403,109.707 80,84.5C 85.2236,65.769 97.3903,55.1023 116.5,52.5 Z M 116.5,68.5 C 109.411,69.9717 103.578,73.6384 99,79.5C 91.0134,96.5424 95.5134,109.042 112.5,117C 131.21,119.614 141.877,111.614 144.5,93C 141.857,77.19 132.523,69.0234 116.5,68.5 Z"/></g>
</svg>
