<?xml version="1.0" encoding="UTF-8"?>
<!DOCTYPE svg PUBLIC "-//W3C//DTD SVG 1.1//EN" "http://www.w3.org/Graphics/SVG/1.1/DTD/svg11.dtd">
<svg xmlns="http://www.w3.org/2000/svg" version="1.1" width="240px" height="240px" style="shape-rendering:geometricPrecision; text-rendering:geometricPrecision; image-rendering:optimizeQuality; fill-rule:evenodd; clip-rule:evenodd" xmlns:xlink="http://www.w3.org/1999/xlink">
<g><path style="opacity:0.979" fill="#d5ccfd" d="M 113.5,19.5 C 132.315,18.1474 140.815,26.814 139,45.5C 136.974,51.2159 133.308,55.5492 128,58.5C 127.175,62.2113 127.341,65.878 128.5,69.5C 135.995,71.0518 142.829,74.0518 149,78.5C 151.333,76.1667 153.667,73.8333 156,71.5C 153.305,59.0651 157.472,49.8984 168.5,44C 180.078,40.7094 188.911,44.2094 195,54.5C 198.467,76.0349 189.3,85.5349 167.5,83C 165.167,85.3333 162.833,87.6667 160.5,90C 164.948,96.1712 167.948,103.005 169.5,110.5C 176.196,113.145 181.196,111.479 184.5,105.5C 192.349,98.953 201.016,97.7863 210.5,102C 219.839,109.741 222.006,119.241 217,130.5C 210.086,139.384 201.253,141.884 190.5,138C 186.167,135.667 182.833,132.333 180.5,128C 176.789,127.175 173.122,127.341 169.5,128.5C 167.948,135.995 164.948,142.829 160.5,149C 162.833,151.333 165.167,153.667 167.5,156C 179.935,153.305 189.102,157.472 195,168.5C 198.124,189.376 189.29,198.21 168.5,195C 157.475,189.107 153.308,179.941 156,167.5C 153.667,165.167 151.333,162.833 149,160.5C 142.829,164.948 135.995,167.948 128.5,169.5C 125.855,176.196 127.521,181.196 133.5,184.5C 140.047,192.349 141.214,201.016 137,210.5C 129.259,219.839 119.759,222.006 108.5,217C 99.6156,210.086 97.1156,201.253 101,190.5C 103.333,186.167 106.667,182.833 111,180.5C 111.825,176.789 111.659,173.122 110.5,169.5C 103.005,167.948 96.1712,164.948 90,160.5C 87.6667,162.833 85.3333,165.167 83,167.5C 85.6951,179.935 81.5284,189.102 70.5,195C 58.922,198.291 50.0887,194.791 44,184.5C 40.5332,162.965 49.6999,153.465 71.5,156C 73.8333,153.667 76.1667,151.333 78.5,149C 74.0518,142.829 71.0518,135.995 69.5,128.5C 62.8045,125.855 57.8045,127.521 54.5,133.5C 46.6511,140.047 37.9845,141.214 28.5,137C 19.161,129.259 16.9944,119.759 22,108.5C 28.9137,99.6156 37.747,97.1156 48.5,101C 52.8333,103.333 56.1667,106.667 58.5,111C 60.3333,111.167 62.1667,111.333 64,111.5C 66.3023,111.4 68.3023,110.733 70,109.5C 71.3408,102.321 74.1742,95.8213 78.5,90C 76.1667,87.6667 73.8333,85.3333 71.5,83C 62.7871,84.9209 54.9538,83.0876 48,77.5C 39.5849,65.224 41.0849,54.3907 52.5,45C 67.1784,39.5932 77.3451,44.0932 83,58.5C 83.245,62.8532 83.245,67.1866 83,71.5C 85.3333,73.8333 87.6667,76.1667 90,78.5C 96.1712,74.0518 103.005,71.0518 110.5,69.5C 111.659,65.878 111.825,62.2113 111,58.5C 99.3527,51.2169 96.3527,41.2169 102,28.5C 105.158,24.4933 108.992,21.4933 113.5,19.5 Z M 119.5,34.5 C 126.099,38.2415 125.932,41.5749 119,44.5C 112.927,40.6659 113.094,37.3325 119.5,34.5 Z M 60.5,58.5 C 64.4589,57.5778 66.7922,59.0778 67.5,63C 65.7147,67.6532 62.8814,68.4865 59,65.5C 58.1668,62.829 58.6668,60.4957 60.5,58.5 Z M 173.5,58.5 C 179.487,57.9773 181.487,60.4773 179.5,66C 175.301,68.4011 172.634,67.2344 171.5,62.5C 171.752,60.9271 172.418,59.5938 173.5,58.5 Z M 117.5,84.5 C 139.227,86.227 151.561,97.8937 154.5,119.5C 154.11,127.416 151.443,134.416 146.5,140.5C 133.957,130.251 119.957,127.751 104.5,133C 100.101,134.906 96.101,137.406 92.5,140.5C 83.3043,128.045 82.471,115.045 90,101.5C 96.65,91.5994 105.817,85.9327 117.5,84.5 Z M 116.5,104.5 C 120.779,103.454 123.445,104.954 124.5,109C 121.167,115 117.833,115 114.5,109C 115.267,107.53 115.933,106.03 116.5,104.5 Z M 39.5,114.5 C 46.0988,118.242 45.9322,121.575 39,124.5C 32.9269,120.666 33.0936,117.333 39.5,114.5 Z M 199.5,114.5 C 206.099,118.242 205.932,121.575 199,124.5C 192.927,120.666 193.094,117.333 199.5,114.5 Z M 113.5,146.5 C 120.799,145.489 127.466,146.989 133.5,151C 124.167,155.667 114.833,155.667 105.5,151C 108.099,149.205 110.766,147.705 113.5,146.5 Z M 61.5,171.5 C 67.3347,172.333 68.6681,175.166 65.5,180C 60,181.167 57.8333,179 59,173.5C 59.9947,172.934 60.828,172.267 61.5,171.5 Z M 174.5,171.5 C 180.643,172.026 181.976,174.86 178.5,180C 173.545,181.376 171.379,179.542 172,174.5C 172.698,173.309 173.531,172.309 174.5,171.5 Z M 119.5,194.5 C 126.099,198.242 125.932,201.575 119,204.5C 112.927,200.666 113.094,197.333 119.5,194.5 Z"/></g>
<g><path style="opacity:0.979" fill="#d5ccfd" d="M 113.5,88.5 C 125.616,86.8042 134.116,91.4708 139,102.5C 140.896,122.272 132.063,130.772 112.5,128C 100.275,122.034 96.442,112.534 101,99.5C 104.148,94.5094 108.314,90.8427 113.5,88.5 Z M 116.5,104.5 C 115.933,106.03 115.267,107.53 114.5,109C 117.833,115 121.167,115 124.5,109C 123.445,104.954 120.779,103.454 116.5,104.5 Z"/></g>
</svg>
