<?xml version="1.0" encoding="UTF-8"?>
<!DOCTYPE svg PUBLIC "-//W3C//DTD SVG 1.1//EN" "http://www.w3.org/Graphics/SVG/1.1/DTD/svg11.dtd">
<svg xmlns="http://www.w3.org/2000/svg" version="1.1" width="300px" height="300px" style="shape-rendering:geometricPrecision; text-rendering:geometricPrecision; image-rendering:optimizeQuality; fill-rule:evenodd; clip-rule:evenodd" xmlns:xlink="http://www.w3.org/1999/xlink">
<g><path style="opacity:0.943" fill="#d6cdfe" d="M 16.5,-0.5 C 21.8333,-0.5 27.1667,-0.5 32.5,-0.5C 49.7305,8.33412 54.2305,21.6675 46,39.5C 44.3163,41.3513 42.4829,43.018 40.5,44.5C 44.7435,53.9862 49.2435,63.3196 54,72.5C 85.6753,63.6827 110.342,73.016 128,100.5C 145.717,92.7544 163.55,85.0877 181.5,77.5C 177.935,66.2628 177.602,54.9295 180.5,43.5C 175.712,41.7371 170.878,40.0704 166,38.5C 155.879,50.8577 143.712,53.3577 129.5,46C 115.494,32.3118 115.161,18.3118 128.5,4C 131.099,2.20496 133.766,0.704964 136.5,-0.5C 141.833,-0.5 147.167,-0.5 152.5,-0.5C 164.532,4.57566 170.198,13.5757 169.5,26.5C 174.153,29.2051 178.987,31.5384 184,33.5C 193.445,15.5399 207.945,4.20656 227.5,-0.5C 235.5,-0.5 243.5,-0.5 251.5,-0.5C 277.063,6.58762 293.063,22.921 299.5,48.5C 299.5,56.1667 299.5,63.8333 299.5,71.5C 288.614,107.755 264.281,123.422 226.5,118.5C 225.558,118.608 224.725,118.941 224,119.5C 216.645,141.07 208.812,162.403 200.5,183.5C 208.539,188.439 215.706,194.439 222,201.5C 231.5,195.333 241,189.167 250.5,183C 246.92,171.657 249.587,161.991 258.5,154C 276.602,144.448 290.268,148.615 299.5,166.5C 299.5,171.833 299.5,177.167 299.5,182.5C 293.063,196.827 282.063,202.327 266.5,199C 263.006,197.421 259.673,195.587 256.5,193.5C 247.752,199.291 238.918,204.958 230,210.5C 232.78,219.905 234.614,229.572 235.5,239.5C 232.953,271.024 216.619,291.024 186.5,299.5C 178.5,299.5 170.5,299.5 162.5,299.5C 146.454,295.717 133.621,287.051 124,273.5C 121.307,268.773 118.64,264.106 116,259.5C 108.97,260.704 102.136,262.538 95.5,265C 92.299,284.283 80.9657,292.283 61.5,289C 46.5555,282.61 41.0555,271.443 45,255.5C 54.0881,238.677 67.2548,234.51 84.5,243C 87.4303,246.768 90.7636,249.935 94.5,252.5C 101.139,250.952 107.805,249.619 114.5,248.5C 111.827,229.519 116.827,212.852 129.5,198.5C 123.139,191.807 116.806,185.14 110.5,178.5C 91.7681,191.174 71.7681,193.508 50.5,185.5C 47.556,190.15 44.8893,194.984 42.5,200C 54.6119,216.764 52.2786,231.098 35.5,243C 18.7828,248.383 6.78281,243.216 -0.5,227.5C -0.5,222.167 -0.5,216.833 -0.5,211.5C 5.6029,197.611 16.2696,191.777 31.5,194C 34.2678,189.118 37.2678,184.451 40.5,180C 18.9164,164.278 10.4164,143.111 15,116.5C 18.8235,99.0422 28.3235,85.8756 43.5,77C 38.7508,68.3355 34.4175,59.5021 30.5,50.5C 15.8469,51.9482 5.51352,45.9482 -0.5,32.5C -0.5,27.1667 -0.5,21.8333 -0.5,16.5C 2.83333,8.5 8.5,2.83333 16.5,-0.5 Z M 237.5,9.5 C 268.632,12.1325 285.632,28.9658 288.5,60C 288.533,70.8863 285.2,80.553 278.5,89C 277.833,89.6667 277.167,89.6667 276.5,89C 272.554,81.387 266.887,75.387 259.5,71C 266.226,61.6901 267.06,51.8567 262,41.5C 253.385,29.8875 242.218,26.3875 228.5,31C 214.644,38.9325 210.478,50.4325 216,65.5C 217.419,67.3359 218.586,69.3359 219.5,71.5C 211.833,75.8333 205.833,81.8333 201.5,89.5C 193.797,80.8914 190.13,70.7247 190.5,59C 193.356,30.3116 209.022,13.8116 237.5,9.5 Z M 20.5,10.5 C 33.2963,9.77099 39.1296,15.771 38,28.5C 34.6412,36.9622 28.4746,40.1289 19.5,38C 9.86228,32.1593 8.02895,24.3259 14,14.5C 16.0948,12.8753 18.2615,11.5419 20.5,10.5 Z M 141.5,10.5 C 155.924,11.3376 160.924,18.6709 156.5,32.5C 148.468,40.4318 140.468,40.4318 132.5,32.5C 129.759,26.7545 129.926,21.0878 133,15.5C 135.398,12.8916 138.231,11.2249 141.5,10.5 Z M 234.5,40.5 C 249.751,39.6728 255.584,46.6728 252,61.5C 243.634,70.7652 235.301,70.7652 227,61.5C 223.951,55.5601 224.617,49.8934 229,44.5C 231.167,43.5119 233,42.1786 234.5,40.5 Z M 65.5,80.5 C 95.9559,78.4696 115.123,92.1363 123,121.5C 125.381,136.293 121.714,149.293 112,160.5C 108.5,151.667 102.333,145.5 93.5,142C 103.34,128.529 102.34,115.862 90.5,104C 74.2085,94.8461 61.0419,98.0128 51,113.5C 46.6934,123.951 48.1934,133.451 55.5,142C 47.1095,145.555 40.7762,151.389 36.5,159.5C 31.7955,154.764 28.6289,149.097 27,142.5C 22.2084,119.866 29.0417,101.699 47.5,88C 53.3443,84.7841 59.3443,82.2841 65.5,80.5 Z M 228.5,80.5 C 236.917,80.0943 245.251,80.5943 253.5,82C 260.812,85.6227 265.812,91.2894 268.5,99C 253.656,109.283 237.656,111.283 220.5,105C 216.835,103.503 213.502,101.503 210.5,99C 214.055,90.2808 220.055,84.1141 228.5,80.5 Z M 183.5,88.5 C 184.822,88.33 185.989,88.6634 187,89.5C 193.522,100.355 202.356,108.855 213.5,115C 205.134,136.655 197.467,158.488 190.5,180.5C 171.737,176.519 154.403,179.853 138.5,190.5C 131.983,183.817 125.65,176.984 119.5,170C 134.318,152.879 138.818,133.379 133,111.5C 144.986,105.948 157.153,100.781 169.5,96C 174.387,93.7258 179.054,91.2258 183.5,88.5 Z M 70.5,110.5 C 82.9501,110.116 88.7835,116.116 88,128.5C 83.7107,137.376 76.8774,140.209 67.5,137C 59.3931,130.266 58.3931,122.599 64.5,114C 66.4319,112.541 68.4319,111.375 70.5,110.5 Z M 69.5,149.5 C 82.9775,147.807 93.4775,152.474 101,163.5C 102.345,165.83 102.512,168.163 101.5,170.5C 83.5,181.167 65.5,181.167 47.5,170.5C 46.7681,164.714 48.7681,159.88 53.5,156C 58.4445,152.611 63.7778,150.445 69.5,149.5 Z M 271.5,160.5 C 283.647,160.482 289.147,166.482 288,178.5C 283.888,187.762 277.055,190.596 267.5,187C 259.051,179.625 258.384,171.625 265.5,163C 267.611,162.155 269.611,161.322 271.5,160.5 Z M 165.5,190.5 C 200.415,188.924 219.749,205.424 223.5,240C 223.54,250.88 220.207,260.547 213.5,269C 212.551,269.617 211.718,269.451 211,268.5C 207.414,260.579 201.58,255.079 193.5,252C 202.095,241.207 202.595,230.041 195,218.5C 180.695,204.953 166.695,205.286 153,219.5C 146.941,230.412 147.441,241.078 154.5,251.5C 146.833,255.833 140.833,261.833 136.5,269.5C 124.824,254.715 122.324,238.382 129,220.5C 136.309,204.449 148.475,194.449 165.5,190.5 Z M 20.5,205.5 C 29.1721,204.095 35.0054,207.428 38,215.5C 39.2027,225.808 34.7027,232.141 24.5,234.5C 11.8018,230.77 7.96846,222.77 13,210.5C 15.1699,208.177 17.6699,206.51 20.5,205.5 Z M 169.5,220.5 C 184.32,220.176 190.153,227.176 187,241.5C 178.591,250.773 170.258,250.773 162,241.5C 158.238,232.342 160.738,225.342 169.5,220.5 Z M 65.5,250.5 C 76.0135,249.846 82.3468,254.679 84.5,265C 80.3483,277.58 72.3483,281.08 60.5,275.5C 52.6676,265.098 54.3342,256.765 65.5,250.5 Z M 163.5,260.5 C 171.903,260.13 180.236,260.63 188.5,262C 196.14,265.614 200.64,271.447 202,279.5C 190.042,287.832 176.875,290.332 162.5,287C 156.348,285.287 150.682,282.62 145.5,279C 149.046,270.289 155.046,264.122 163.5,260.5 Z"/></g>
</svg>
