<?xml version="1.0" encoding="UTF-8"?>
<!DOCTYPE svg PUBLIC "-//W3C//DTD SVG 1.1//EN" "http://www.w3.org/Graphics/SVG/1.1/DTD/svg11.dtd">
<svg xmlns="http://www.w3.org/2000/svg" version="1.1" width="75px" height="75px" style="shape-rendering:geometricPrecision; text-rendering:geometricPrecision; image-rendering:optimizeQuality; fill-rule:evenodd; clip-rule:evenodd" xmlns:xlink="http://www.w3.org/1999/xlink">
<g><path style="opacity:0.96" fill="#824641" d="M 7.5,-0.5 C 11.1667,-0.5 14.8333,-0.5 18.5,-0.5C 21.578,2.58795 24.9113,5.25462 28.5,7.5C 10.9465,23.4911 8.11317,41.8244 20,62.5C 24.1492,67.4968 28.9825,71.4968 34.5,74.5C 32.5,74.5 30.5,74.5 28.5,74.5C 4.24602,65.8211 -3.42065,49.3211 5.5,25C 3.26589,22.9373 1.26589,20.7706 -0.5,18.5C -0.5,14.8333 -0.5,11.1667 -0.5,7.5C 1.16667,3.83333 3.83333,1.16667 7.5,-0.5 Z"/></g>
<g><path style="opacity:0.925" fill="#824641" d="M 55.5,-0.5 C 59.1667,-0.5 62.8333,-0.5 66.5,-0.5C 70.1667,1.16667 72.8333,3.83333 74.5,7.5C 74.5,11.1667 74.5,14.8333 74.5,18.5C 72.8606,20.8061 70.8606,22.8061 68.5,24.5C 66.9373,23.0552 65.604,21.3885 64.5,19.5C 69.183,17.7905 70.683,14.4571 69,9.5C 66.4586,4.93146 62.6253,3.43146 57.5,5C 55.5359,6.45095 54.2026,8.28428 53.5,10.5C 51.4348,10.047 49.7682,9.04698 48.5,7.5C 50.1236,4.20994 52.4569,1.54327 55.5,-0.5 Z"/></g>
<g><path style="opacity:1" fill="#643c3c" d="M 9.5,4.5 C 14.4891,3.39097 18.1557,5.05764 20.5,9.5C 16.4887,13.012 12.6553,16.6787 9,20.5C 2.9677,14.918 3.13436,9.58465 9.5,4.5 Z"/></g>
<g><path style="opacity:1" fill="#653c3c" d="M 64.5,19.5 C 61.1733,16.1819 57.5066,13.1819 53.5,10.5C 54.2026,8.28428 55.5359,6.45095 57.5,5C 62.6253,3.43146 66.4586,4.93146 69,9.5C 70.683,14.4571 69.183,17.7905 64.5,19.5 Z"/></g>
<g><path style="opacity:0.991" fill="#965a50" d="M 48.5,7.5 C 49.7682,9.04698 51.4348,10.047 53.5,10.5C 57.5066,13.1819 61.1733,16.1819 64.5,19.5C 65.604,21.3885 66.9373,23.0552 68.5,24.5C 75.8645,40.5222 73.1979,54.6889 60.5,67C 55.8484,70.3724 50.8484,72.8724 45.5,74.5C 41.8333,74.5 38.1667,74.5 34.5,74.5C 28.9825,71.4968 24.1492,67.4968 20,62.5C 8.11317,41.8244 10.9465,23.4911 28.5,7.5C 35.1156,6.29323 41.7823,6.29323 48.5,7.5 Z"/></g>
<g><path style="opacity:1" fill="#5c4954" d="M 20.5,35.5 C 26.6426,36.0262 27.9759,38.8595 24.5,44C 19.5036,44.6643 17.6703,42.4977 19,37.5C 19.7172,36.9558 20.2172,36.2891 20.5,35.5 Z"/></g>
<g><path style="opacity:1" fill="#5b4853" d="M 49.5,35.5 C 55.6426,36.0262 56.9759,38.8595 53.5,44C 48.5036,44.6643 46.6703,42.4977 48,37.5C 48.7172,36.9558 49.2172,36.2891 49.5,35.5 Z"/></g>
<g><path style="opacity:1" fill="#e1e0e2" d="M 21.5,37.5 C 23.337,37.6395 23.6704,38.3061 22.5,39.5C 21.7025,39.0431 21.3691,38.3764 21.5,37.5 Z"/></g>
<g><path style="opacity:1" fill="#e2e0e2" d="M 50.5,37.5 C 52.337,37.6395 52.6704,38.3061 51.5,39.5C 50.7025,39.0431 50.3691,38.3764 50.5,37.5 Z"/></g>
<g><path style="opacity:1" fill="#5d515d" d="M 42.5,54.5 C 42.1667,56.8333 40.8333,58.1667 38.5,58.5C 37.5,58.5 36.5,58.5 35.5,58.5C 33.1667,58.1667 31.8333,56.8333 31.5,54.5C 31.8739,51.3798 33.7072,50.0465 37,50.5C 40.2928,50.0465 42.1261,51.3798 42.5,54.5 Z"/></g>
<g><path style="opacity:1" fill="#f2d9b2" d="M 31.5,54.5 C 31.8333,56.8333 33.1667,58.1667 35.5,58.5C 35.5,59.5 35.5,60.5 35.5,61.5C 33.1432,61.6633 30.8098,61.4966 28.5,61C 28.0257,59.2714 27.0257,58.1047 25.5,57.5C 26.6874,55.0246 28.6874,54.0246 31.5,54.5 Z"/></g>
<g><path style="opacity:1" fill="#f2d9b2" d="M 42.5,54.5 C 45.3126,54.0246 47.3126,55.0246 48.5,57.5C 46.9743,58.1047 45.9743,59.2714 45.5,61C 43.1902,61.4966 40.8568,61.6633 38.5,61.5C 38.5,60.5 38.5,59.5 38.5,58.5C 40.8333,58.1667 42.1667,56.8333 42.5,54.5 Z"/></g>
<g><path style="opacity:1" fill="#d1ac8f" d="M 25.5,57.5 C 27.0257,58.1047 28.0257,59.2714 28.5,61C 30.8098,61.4966 33.1432,61.6633 35.5,61.5C 35.5,60.5 35.5,59.5 35.5,58.5C 36.5,58.5 37.5,58.5 38.5,58.5C 38.5,59.5 38.5,60.5 38.5,61.5C 40.8568,61.6633 43.1902,61.4966 45.5,61C 45.9743,59.2714 46.9743,58.1047 48.5,57.5C 49.5735,58.2506 49.7401,59.2506 49,60.5C 48.5776,62.4257 47.4109,63.4257 45.5,63.5C 39.642,63.1778 33.9753,63.5111 28.5,64.5C 25.4649,62.7906 24.4649,60.4573 25.5,57.5 Z"/></g>
<g><path style="opacity:1" fill="#e6c39c" d="M 45.5,63.5 C 44.1211,67.7036 41.1211,69.7036 36.5,69.5C 32.7935,69.454 30.1268,67.7874 28.5,64.5C 33.9753,63.5111 39.642,63.1778 45.5,63.5 Z"/></g>
</svg>
