<?xml version="1.0" encoding="UTF-8"?>
<!DOCTYPE svg PUBLIC "-//W3C//DTD SVG 1.1//EN" "http://www.w3.org/Graphics/SVG/1.1/DTD/svg11.dtd">
<svg xmlns="http://www.w3.org/2000/svg" version="1.1" width="75px" height="75px" style="shape-rendering:geometricPrecision; text-rendering:geometricPrecision; image-rendering:optimizeQuality; fill-rule:evenodd; clip-rule:evenodd" xmlns:xlink="http://www.w3.org/1999/xlink">
<g><path style="opacity:0.972" fill="#fec850" d="M 5.5,-0.5 C 7.16667,-0.5 8.83333,-0.5 10.5,-0.5C 15.1566,4.4852 20.49,8.4852 26.5,11.5C 26.9382,11.4346 27.2716,11.6012 27.5,12C 13.8302,21.1794 9.16354,33.6794 13.5,49.5C 16.3056,50.1676 18.9723,50.8343 21.5,51.5C 15.5,51.5 9.5,51.5 3.5,51.5C 3.00233,48.5327 2.669,45.5327 2.5,42.5C 3.99346,28.1911 4.99346,13.8578 5.5,-0.5 Z"/></g>
<g><path style="opacity:0.956" fill="#fec850" d="M 63.5,-0.5 C 65.1667,-0.5 66.8333,-0.5 68.5,-0.5C 69.4522,9.78151 69.7855,20.1148 69.5,30.5C 67.7497,29.3406 66.7497,27.674 66.5,25.5C 66.6661,19.8236 66.4994,14.1569 66,8.5C 65.2825,7.54943 64.4491,7.38277 63.5,8C 61.0343,10.4786 58.701,12.9786 56.5,15.5C 53.8997,14.5324 51.5664,13.1991 49.5,11.5C 54.4863,7.84508 59.153,3.84508 63.5,-0.5 Z"/></g>
<g><path style="opacity:1" fill="#ecb14b" d="M 8.5,7.5 C 12.2663,9.4304 15.2663,12.2637 17.5,16C 13.6667,18.5 10.5,21.6667 8,25.5C 7.21238,19.418 7.37905,13.418 8.5,7.5 Z"/></g>
<g><path style="opacity:1" fill="#ecb14b" d="M 66.5,25.5 C 63.5,21.8333 60.1667,18.5 56.5,15.5C 58.701,12.9786 61.0343,10.4786 63.5,8C 64.4491,7.38277 65.2825,7.54943 66,8.5C 66.4994,14.1569 66.6661,19.8236 66.5,25.5 Z"/></g>
<g><path style="opacity:0.993" fill="#feda63" d="M 49.5,11.5 C 51.5664,13.1991 53.8997,14.5324 56.5,15.5C 60.1667,18.5 63.5,21.8333 66.5,25.5C 66.7497,27.674 67.7497,29.3406 69.5,30.5C 71.6587,37.4067 71.992,44.4067 70.5,51.5C 64.1318,51.1703 57.7985,51.5037 51.5,52.5C 56.4671,53.329 61.4671,53.829 66.5,54C 67.4158,54.2784 68.0825,54.7784 68.5,55.5C 67.8333,56.8333 67.1667,58.1667 66.5,59.5C 61.7682,57.8682 56.9349,56.5349 52,55.5C 51.1667,55.8333 50.3333,56.1667 49.5,56.5C 54.0449,58.3044 58.7116,59.8044 63.5,61C 64.056,61.3826 64.3893,61.8826 64.5,62.5C 60.7163,66.9324 56.0497,70.2658 50.5,72.5C 39.5994,73.397 29.9327,70.2304 21.5,63C 19.8588,61.871 18.8588,60.371 18.5,58.5C 20.6957,58.4348 22.6957,57.7681 24.5,56.5C 23.6667,56.1667 22.8333,55.8333 22,55.5C 17.1322,56.4401 12.2988,57.4401 7.5,58.5C 6.09368,58.0269 5.42702,57.0269 5.5,55.5C 10.7742,53.8632 16.4408,52.8632 22.5,52.5C 22.3764,51.8933 22.0431,51.56 21.5,51.5C 18.9723,50.8343 16.3056,50.1676 13.5,49.5C 9.16354,33.6794 13.8302,21.1794 27.5,12C 27.2716,11.6012 26.9382,11.4346 26.5,11.5C 34.0336,8.93082 41.7003,8.93082 49.5,11.5 Z"/></g>
<g><path style="opacity:1" fill="#61555d" d="M 21.5,35.5 C 26.8504,36.1837 28.6837,39.1837 27,44.5C 20.5343,48.0556 17.8676,46.0556 19,38.5C 20.045,37.6266 20.8783,36.6266 21.5,35.5 Z"/></g>
<g><path style="opacity:1" fill="#f1f0f1" d="M 21.5,37.5 C 22.5,37.5 23.5,37.5 24.5,37.5C 24.5,38.5 24.5,39.5 24.5,40.5C 23.5,40.5 22.5,40.5 21.5,40.5C 21.5,39.5 21.5,38.5 21.5,37.5 Z"/></g>
<g><path style="opacity:1" fill="#66595e" d="M 49.5,35.5 C 55.0388,36.2386 56.7054,39.2386 54.5,44.5C 50.1616,47.7526 47.4949,46.7526 46.5,41.5C 46.4672,38.8984 47.4672,36.8984 49.5,35.5 Z"/></g>
<g><path style="opacity:1" fill="#f1f0f1" d="M 49.5,37.5 C 50.5,37.5 51.5,37.5 52.5,37.5C 52.5,38.5 52.5,39.5 52.5,40.5C 51.5,40.5 50.5,40.5 49.5,40.5C 49.5,39.5 49.5,38.5 49.5,37.5 Z"/></g>
<g><path style="opacity:1" fill="#675a5b" d="M 33.5,49.5 C 35.8333,49.5 38.1667,49.5 40.5,49.5C 40.4753,55.0778 38.3086,56.4111 34,53.5C 33.51,52.2068 33.3433,50.8734 33.5,49.5 Z"/></g>
<g><path style="opacity:0.937" fill="#e1a545" d="M 3.5,51.5 C 9.5,51.5 15.5,51.5 21.5,51.5C 22.0431,51.56 22.3764,51.8933 22.5,52.5C 16.4408,52.8632 10.7742,53.8632 5.5,55.5C 3.83333,55.5 2.16667,55.5 0.5,55.5C 0.0882357,53.0274 1.08824,51.6941 3.5,51.5 Z"/></g>
<g><path style="opacity:0.918" fill="#e1a746" d="M 70.5,51.5 C 72.9118,51.6941 73.9118,53.0274 73.5,55.5C 71.8333,55.5 70.1667,55.5 68.5,55.5C 68.0825,54.7784 67.4158,54.2784 66.5,54C 61.4671,53.829 56.4671,53.329 51.5,52.5C 57.7985,51.5037 64.1318,51.1703 70.5,51.5 Z"/></g>
<g><path style="opacity:0.929" fill="#e3a846" d="M 18.5,58.5 C 15.1803,59.3932 12.1803,60.7265 9.5,62.5C 7.74203,62.8769 6.07536,63.5435 4.5,64.5C 2.51038,63.5373 2.17705,62.204 3.5,60.5C 5.02552,60.0057 6.35885,59.339 7.5,58.5C 12.2988,57.4401 17.1322,56.4401 22,55.5C 22.8333,55.8333 23.6667,56.1667 24.5,56.5C 22.6957,57.7681 20.6957,58.4348 18.5,58.5 Z"/></g>
<g><path style="opacity:0.915" fill="#e3a846" d="M 66.5,59.5 C 69.7572,59.174 71.2572,60.5073 71,63.5C 70.586,63.9574 70.086,64.2907 69.5,64.5C 67.9246,63.5435 66.258,62.8769 64.5,62.5C 64.3893,61.8826 64.056,61.3826 63.5,61C 58.7116,59.8044 54.0449,58.3044 49.5,56.5C 50.3333,56.1667 51.1667,55.8333 52,55.5C 56.9349,56.5349 61.7682,57.8682 66.5,59.5 Z"/></g>
<g><path style="opacity:0.954" fill="#fec851" d="M 18.5,58.5 C 18.8588,60.371 19.8588,61.871 21.5,63C 29.9327,70.2304 39.5994,73.397 50.5,72.5C 48.6943,73.0241 47.0276,73.6908 45.5,74.5C 39.8333,74.5 34.1667,74.5 28.5,74.5C 21.0589,72.2781 14.7255,68.2781 9.5,62.5C 12.1803,60.7265 15.1803,59.3932 18.5,58.5 Z"/></g>
<g><path style="opacity:1" fill="#edb04f" d="M 41.5,66.5 C 40.1436,61.4364 37.3103,60.4364 33,63.5C 32.5172,64.448 32.3505,65.448 32.5,66.5C 31.596,65.791 31.2627,64.791 31.5,63.5C 28.7224,63.9783 26.7224,62.9783 25.5,60.5C 25.8333,60.1667 26.1667,59.8333 26.5,59.5C 27.6113,60.6113 28.9446,61.278 30.5,61.5C 34.6772,58.8961 38.8438,58.8961 43,61.5C 44.5589,60.9706 46.0589,60.304 47.5,59.5C 48.7112,60.2739 48.7112,61.1072 47.5,62C 45.9751,63.0086 44.3084,63.5086 42.5,63.5C 42.7373,64.791 42.404,65.791 41.5,66.5 Z"/></g>
<g><path style="opacity:1" fill="#f67a7c" d="M 41.5,66.5 C 38.5,70.5 35.5,70.5 32.5,66.5C 32.3505,65.448 32.5172,64.448 33,63.5C 37.3103,60.4364 40.1436,61.4364 41.5,66.5 Z"/></g>
</svg>
