<?xml version="1.0" encoding="UTF-8"?>
<!DOCTYPE svg PUBLIC "-//W3C//DTD SVG 1.1//EN" "http://www.w3.org/Graphics/SVG/1.1/DTD/svg11.dtd">
<svg xmlns="http://www.w3.org/2000/svg" version="1.1" width="75px" height="75px" style="shape-rendering:geometricPrecision; text-rendering:geometricPrecision; image-rendering:optimizeQuality; fill-rule:evenodd; clip-rule:evenodd" xmlns:xlink="http://www.w3.org/1999/xlink">
<g><path style="opacity:0.782" fill="#8b534f" d="M 8.5,-0.5 C 9.5,-0.5 10.5,-0.5 11.5,-0.5C 11.85,4.51463 11.1834,9.34796 9.5,14C 11.2955,15.4876 13.2955,16.1542 15.5,16C 14.5495,12.9433 14.2161,9.77659 14.5,6.5C 15.8333,6.5 17.1667,6.5 18.5,6.5C 16.8733,13.6223 18.3733,14.289 23,8.5C 25.0394,11.4033 24.3727,13.7366 21,15.5C 20.3333,16.5 20.3333,17.5 21,18.5C 25.2843,21.3869 29.4509,24.3869 33.5,27.5C 32.0813,28.4511 30.4147,28.7845 28.5,28.5C 21.1484,23.8229 13.4817,19.6563 5.5,16C 2.87922,13.8859 0.879222,11.3859 -0.5,8.5C -0.5,5.83333 -0.5,3.16667 -0.5,0.5C 0.495904,0.414228 1.32924,0.747561 2,1.5C 2.168,5.49786 3.668,8.83119 6.5,11.5C 8.00326,7.6447 8.66992,3.6447 8.5,-0.5 Z"/></g>
<g><path style="opacity:0.784" fill="#8b534f" d="M 62.5,-0.5 C 63.5,-0.5 64.5,-0.5 65.5,-0.5C 65.3301,3.6447 65.9967,7.6447 67.5,11.5C 70.332,8.83119 71.832,5.49786 72,1.5C 72.6708,0.747561 73.5041,0.414228 74.5,0.5C 74.5,3.16667 74.5,5.83333 74.5,8.5C 73.1208,11.3859 71.1208,13.8859 68.5,16C 60.5183,19.6563 52.8516,23.8229 45.5,28.5C 43.5853,28.7845 41.9187,28.4511 40.5,27.5C 44.5491,24.3869 48.7157,21.3869 53,18.5C 53.6667,17.5 53.6667,16.5 53,15.5C 49.6273,13.7366 48.9606,11.4033 51,8.5C 55.6267,14.289 57.1267,13.6223 55.5,6.5C 56.8333,6.5 58.1667,6.5 59.5,6.5C 59.7839,9.77659 59.4505,12.9433 58.5,16C 60.7045,16.1542 62.7045,15.4876 64.5,14C 62.8166,9.34796 62.15,4.51463 62.5,-0.5 Z"/></g>
<g><path style="opacity:0.972" fill="#b2725d" d="M 28.5,28.5 C 30.4147,28.7845 32.0813,28.4511 33.5,27.5C 34.8333,27.5 36.1667,27.5 37.5,27.5C 31.7291,35.6158 30.0625,44.6158 32.5,54.5C 31.2248,57.6038 31.2248,60.6038 32.5,63.5C 33.5,64.1667 34.5,64.8333 35.5,65.5C 35.5,66.8333 35.5,68.1667 35.5,69.5C 33.2972,69.3964 31.2972,68.7298 29.5,67.5C 27.1107,62.414 23.944,57.7474 20,53.5C 18.1724,48.2087 18.0057,42.8753 19.5,37.5C 12.0798,36.4105 8.07977,32.0772 7.5,24.5C 14.2108,24.7924 20.3774,26.7924 26,30.5C 26.9947,29.9341 27.828,29.2674 28.5,28.5 Z"/></g>
<g><path style="opacity:0.974" fill="#bd7e69" d="M 47.5,61.5 C 44.5902,55.2157 39.5902,52.8824 32.5,54.5C 30.0625,44.6158 31.7291,35.6158 37.5,27.5C 38.5,27.5 39.5,27.5 40.5,27.5C 41.9187,28.4511 43.5853,28.7845 45.5,28.5C 46.172,29.2674 47.0053,29.9341 48,30.5C 53.6226,26.7924 59.7892,24.7924 66.5,24.5C 65.9202,32.0772 61.9202,36.4105 54.5,37.5C 57.1079,47.0884 54.7746,55.0884 47.5,61.5 Z"/></g>
<g><path style="opacity:1" fill="#5b4b56" d="M 24.5,43.5 C 25.8333,43.5 27.1667,43.5 28.5,43.5C 28.9492,45.9775 28.2825,47.9775 26.5,49.5C 24.7175,47.9775 24.0508,45.9775 24.5,43.5 Z"/></g>
<g><path style="opacity:1" fill="#eae9eb" d="M 25.5,44.5 C 27.337,44.6395 27.6704,45.3061 26.5,46.5C 25.7025,46.0431 25.3691,45.3764 25.5,44.5 Z"/></g>
<g><path style="opacity:1" fill="#584955" d="M 46.5,44.5 C 47.209,43.596 48.209,43.2627 49.5,43.5C 49.9492,45.9775 49.2825,47.9775 47.5,49.5C 45.3929,48.0866 45.0595,46.4199 46.5,44.5 Z"/></g>
<g><path style="opacity:1" fill="#ebeaeb" d="M 46.5,44.5 C 48.337,44.6395 48.6704,45.3061 47.5,46.5C 46.7025,46.0431 46.3691,45.3764 46.5,44.5 Z"/></g>
<g><path style="opacity:0.981" fill="#cf9877" d="M 32.5,54.5 C 39.5902,52.8824 44.5902,55.2157 47.5,61.5C 47.539,64.089 46.539,66.089 44.5,67.5C 42.6208,68.3414 40.6208,68.6747 38.5,68.5C 38.585,66.0712 39.585,64.0712 41.5,62.5C 39.9124,59.7429 37.579,58.9096 34.5,60C 33.1772,60.8159 32.5106,61.9826 32.5,63.5C 31.2248,60.6038 31.2248,57.6038 32.5,54.5 Z"/></g>
<g><path style="opacity:1" fill="#61525c" d="M 38.5,68.5 C 38.44,69.0431 38.1067,69.3764 37.5,69.5C 36.8281,68.0508 36.1614,66.7175 35.5,65.5C 34.5,64.8333 33.5,64.1667 32.5,63.5C 32.5106,61.9826 33.1772,60.8159 34.5,60C 37.579,58.9096 39.9124,59.7429 41.5,62.5C 39.585,64.0712 38.585,66.0712 38.5,68.5 Z"/></g>
<g><path style="opacity:0.906" fill="#8b5450" d="M 35.5,65.5 C 36.1614,66.7175 36.8281,68.0508 37.5,69.5C 38.1067,69.3764 38.44,69.0431 38.5,68.5C 40.6208,68.6747 42.6208,68.3414 44.5,67.5C 44.4287,70.6523 43.0954,72.9856 40.5,74.5C 38.1667,74.5 35.8333,74.5 33.5,74.5C 30.9046,72.9856 29.5713,70.6523 29.5,67.5C 31.2972,68.7298 33.2972,69.3964 35.5,69.5C 35.5,68.1667 35.5,66.8333 35.5,65.5 Z"/></g>
</svg>
