<?xml version="1.0" encoding="UTF-8"?>
<!DOCTYPE svg PUBLIC "-//W3C//DTD SVG 1.1//EN" "http://www.w3.org/Graphics/SVG/1.1/DTD/svg11.dtd">
<svg xmlns="http://www.w3.org/2000/svg" version="1.1" width="75px" height="75px" style="shape-rendering:geometricPrecision; text-rendering:geometricPrecision; image-rendering:optimizeQuality; fill-rule:evenodd; clip-rule:evenodd" xmlns:xlink="http://www.w3.org/1999/xlink">
<g><path style="opacity:0.918" fill="#814641" d="M 21.5,5.5 C 16.6527,4.84042 12.8194,6.50709 10,10.5C 6.59336,15.9799 3.76003,21.6465 1.5,27.5C 1.74061,25.1016 1.07394,23.1016 -0.5,21.5C -0.5,19.8333 -0.5,18.1667 -0.5,16.5C 1.49416,12.3155 4.16083,8.48212 7.5,5C 12.3511,2.93475 17.0178,3.10142 21.5,5.5 Z"/></g>
<g><path style="opacity:0.936" fill="#955a4f" d="M 74.5,16.5 C 74.5,18.1667 74.5,19.8333 74.5,21.5C 73.7784,21.9175 73.2784,22.5842 73,23.5C 72.8238,27.6877 72.3238,31.6877 71.5,35.5C 70.588,33.4048 69.4213,31.4048 68,29.5C 66.5273,22.9854 64.5273,16.652 62,10.5C 60.8333,9.33333 59.6667,8.16667 58.5,7C 56.9343,6.23502 55.6009,6.40168 54.5,7.5C 53.2905,7.06795 52.2905,6.40128 51.5,5.5C 58.4713,2.03059 64.6379,3.03059 70,8.5C 71.2742,11.3911 72.7742,14.0578 74.5,16.5 Z"/></g>
<g><path style="opacity:0.992" fill="#f3dab2" d="M 51.5,5.5 C 52.2905,6.40128 53.2905,7.06795 54.5,7.5C 57.0507,9.57771 58.884,12.2444 60,15.5C 60.6406,24.1324 62.4739,32.4657 65.5,40.5C 63.9073,47.7044 59.9073,53.0378 53.5,56.5C 53.8818,50.215 50.8818,47.215 44.5,47.5C 43.3514,43.9972 40.8514,42.3305 37,42.5C 33.1486,42.3305 30.6486,43.9972 29.5,47.5C 26.812,47.1658 24.4786,47.8325 22.5,49.5C 20.0414,47.948 18.5414,45.6146 18,42.5C 16.4947,33.887 16.1614,25.2203 17,16.5C 18.3051,12.2027 20.8051,8.86936 24.5,6.5C 32.501,3.88446 40.501,3.88446 48.5,6.5C 49.4168,5.87277 50.4168,5.53944 51.5,5.5 Z"/></g>
<g><path style="opacity:0.986" fill="#965b50" d="M 21.5,5.5 C 21.8333,5.5 22.1667,5.5 22.5,5.5C 18.1225,7.38754 15.2892,10.7209 14,15.5C 13.3594,24.1324 11.5261,32.4657 8.5,40.5C 6.83398,41.6664 5.16732,41.6664 3.5,40.5C 1.93475,36.3132 1.26808,31.9798 1.5,27.5C 3.76003,21.6465 6.59336,15.9799 10,10.5C 12.8194,6.50709 16.6527,4.84042 21.5,5.5 Z"/></g>
<g><path style="opacity:0.99" fill="#834842" d="M 54.5,7.5 C 55.6009,6.40168 56.9343,6.23502 58.5,7C 59.6667,8.16667 60.8333,9.33333 62,10.5C 64.5273,16.652 66.5273,22.9854 68,29.5C 69.4213,31.4048 70.588,33.4048 71.5,35.5C 72.0422,40.5407 70.0422,42.2074 65.5,40.5C 62.4739,32.4657 60.6406,24.1324 60,15.5C 58.884,12.2444 57.0507,9.57771 54.5,7.5 Z"/></g>
<g><path style="opacity:0.992" fill="#e5c6a3" d="M 22.5,5.5 C 23.4916,5.32842 24.1583,5.66175 24.5,6.5C 20.8051,8.86936 18.3051,12.2027 17,16.5C 16.1614,25.2203 16.4947,33.887 18,42.5C 18.5414,45.6146 20.0414,47.948 22.5,49.5C 20.8516,51.4559 20.1849,53.7892 20.5,56.5C 14.1025,53.0687 10.1025,47.7354 8.5,40.5C 11.5261,32.4657 13.3594,24.1324 14,15.5C 15.2892,10.7209 18.1225,7.38754 22.5,5.5 Z"/></g>
<g><path style="opacity:1" fill="#625761" d="M 22.5,26.5 C 28.1558,26.8674 29.9891,29.8674 28,35.5C 25.6667,38.1667 23.3333,38.1667 21,35.5C 20.068,32.1769 20.568,29.1769 22.5,26.5 Z"/></g>
<g><path style="opacity:1" fill="#ebeaec" d="M 22.5,28.5 C 23.9778,28.238 25.3112,28.5713 26.5,29.5C 24.5365,32.1939 23.2032,31.8606 22.5,28.5 Z"/></g>
<g><path style="opacity:1" fill="#584d59" d="M 47.5,26.5 C 53.1558,26.8674 54.9891,29.8674 53,35.5C 50.6667,38.1667 48.3333,38.1667 46,35.5C 45.068,32.1769 45.568,29.1769 47.5,26.5 Z"/></g>
<g><path style="opacity:1" fill="#ebeaeb" d="M 47.5,28.5 C 48.9778,28.238 50.3112,28.5713 51.5,29.5C 49.5365,32.1939 48.2032,31.8606 47.5,28.5 Z"/></g>
<g><path style="opacity:1" fill="#5e535e" d="M 44.5,47.5 C 39.5,54.1667 34.5,54.1667 29.5,47.5C 30.6486,43.9972 33.1486,42.3305 37,42.5C 40.8514,42.3305 43.3514,43.9972 44.5,47.5 Z"/></g>
<g><path style="opacity:0.991" fill="#cea78b" d="M 29.5,47.5 C 34.5,54.1667 39.5,54.1667 44.5,47.5C 50.8818,47.215 53.8818,50.215 53.5,56.5C 51.5366,58.3993 50.0366,60.7326 49,63.5C 47.3621,65.7337 45.1955,67.067 42.5,67.5C 43.2186,65.2362 43.552,62.9029 43.5,60.5C 41.2532,60.0847 39.0865,59.4181 37,58.5C 31.1439,59.0608 29.3105,62.0608 31.5,67.5C 30.0783,67.2914 28.745,66.7914 27.5,66C 25.0143,62.8251 22.681,59.6584 20.5,56.5C 20.1849,53.7892 20.8516,51.4559 22.5,49.5C 24.4786,47.8325 26.812,47.1658 29.5,47.5 Z"/></g>
<g><path style="opacity:0.919" fill="#f67a80" d="M 42.5,67.5 C 41.488,69.876 39.6546,70.876 37,70.5C 34.3454,70.876 32.512,69.876 31.5,67.5C 29.3105,62.0608 31.1439,59.0608 37,58.5C 39.0865,59.4181 41.2532,60.0847 43.5,60.5C 43.552,62.9029 43.2186,65.2362 42.5,67.5 Z"/></g>
</svg>
