<?xml version="1.0" encoding="UTF-8"?>
<!DOCTYPE svg PUBLIC "-//W3C//DTD SVG 1.1//EN" "http://www.w3.org/Graphics/SVG/1.1/DTD/svg11.dtd">
<svg xmlns="http://www.w3.org/2000/svg" version="1.1" width="75px" height="75px" style="shape-rendering:geometricPrecision; text-rendering:geometricPrecision; image-rendering:optimizeQuality; fill-rule:evenodd; clip-rule:evenodd" xmlns:xlink="http://www.w3.org/1999/xlink">
<g><path style="opacity:0.966" fill="#d16437" d="M 7.5,-0.5 C 8.83333,-0.5 10.1667,-0.5 11.5,-0.5C 17.8252,3.01754 23.4919,7.51754 28.5,13C 30.4727,13.4955 32.4727,13.6621 34.5,13.5C 21.6924,21.4354 15.3591,33.1021 15.5,48.5C 13.2646,48.2053 11.2646,48.5386 9.5,49.5C 5.72755,49.8838 2.72755,51.5505 0.5,54.5C 0.5,55.1667 0.166667,55.5 -0.5,55.5C -0.5,53.5 -0.5,51.5 -0.5,49.5C 2.33582,41.493 6.00248,33.8263 10.5,26.5C 7.40627,17.6357 6.40627,8.63571 7.5,-0.5 Z"/></g>
<g><path style="opacity:0.918" fill="#d16236" d="M 62.5,-0.5 C 63.8333,-0.5 65.1667,-0.5 66.5,-0.5C 67.5896,8.65442 66.5896,17.6544 63.5,26.5C 62.209,26.7373 61.209,26.404 60.5,25.5C 62.4264,20.7639 63.9264,15.7639 65,10.5C 66.46,3.69411 64.7934,2.36078 60,6.5C 56.9514,10.0426 54.1181,13.7093 51.5,17.5C 48.8684,16.528 46.5351,15.1947 44.5,13.5C 49.8153,7.85533 55.8153,3.18867 62.5,-0.5 Z"/></g>
<g><path style="opacity:1" fill="#b54732" d="M 8.5,3.5 C 13.8839,7.04667 18.5505,11.5467 22.5,17C 19.0507,19.4816 15.884,22.315 13,25.5C 10.794,18.303 9.29397,10.9697 8.5,3.5 Z"/></g>
<g><path style="opacity:1" fill="#b54732" d="M 60.5,25.5 C 58.0639,22.1285 55.0639,19.4619 51.5,17.5C 54.1181,13.7093 56.9514,10.0426 60,6.5C 64.7934,2.36078 66.46,3.69411 65,10.5C 63.9264,15.7639 62.4264,20.7639 60.5,25.5 Z"/></g>
<g><path style="opacity:0.994" fill="#e9864b" d="M 34.5,13.5 C 37.8333,13.5 41.1667,13.5 44.5,13.5C 46.5351,15.1947 48.8684,16.528 51.5,17.5C 55.0639,19.4619 58.0639,22.1285 60.5,25.5C 61.209,26.404 62.209,26.7373 63.5,26.5C 67.9888,33.8096 71.6554,41.4763 74.5,49.5C 74.5,51.5 74.5,53.5 74.5,55.5C 73.8333,55.5 73.5,55.1667 73.5,54.5C 71.8802,52.0158 69.5469,50.5158 66.5,50C 59.2636,47.701 54.0969,49.8677 51,56.5C 50.5448,59.8536 50.0448,63.1869 49.5,66.5C 48.4206,68.543 46.754,69.8763 44.5,70.5C 39.5,69.1667 34.5,69.1667 29.5,70.5C 27.246,69.8763 25.5794,68.543 24.5,66.5C 24.2062,61.5979 23.0395,56.9312 21,52.5C 17.6727,49.8461 13.8394,48.8461 9.5,49.5C 11.2646,48.5386 13.2646,48.2053 15.5,48.5C 15.3591,33.1021 21.6924,21.4354 34.5,13.5 Z"/></g>
<g><path style="opacity:1" fill="#574854" d="M 22.5,36.5 C 28.1558,36.8674 29.9891,39.8674 28,45.5C 25.6667,48.1667 23.3333,48.1667 21,45.5C 20.068,42.1769 20.568,39.1769 22.5,36.5 Z"/></g>
<g><path style="opacity:1" fill="#e1dfe2" d="M 23.5,37.5 C 26.8606,38.2032 27.1939,39.5365 24.5,41.5C 22.3576,40.5629 22.0243,39.2296 23.5,37.5 Z"/></g>
<g><path style="opacity:1" fill="#584954" d="M 47.5,36.5 C 53.1558,36.8674 54.9891,39.8674 53,45.5C 50.6667,48.1667 48.3333,48.1667 46,45.5C 45.068,42.1769 45.568,39.1769 47.5,36.5 Z"/></g>
<g><path style="opacity:1" fill="#e2e0e2" d="M 48.5,37.5 C 51.8606,38.2032 52.1939,39.5365 49.5,41.5C 47.3576,40.5629 47.0243,39.2296 48.5,37.5 Z"/></g>
<g><path style="opacity:0.95" fill="#eac69d" d="M 9.5,49.5 C 13.8394,48.8461 17.6727,49.8461 21,52.5C 23.0395,56.9312 24.2062,61.5979 24.5,66.5C 18.526,63.8478 12.526,61.1812 6.5,58.5C 5.41043,57.6086 5.41043,56.6086 6.5,55.5C 4.60395,54.5344 2.60395,54.2011 0.5,54.5C 2.72755,51.5505 5.72755,49.8838 9.5,49.5 Z"/></g>
<g><path style="opacity:0.95" fill="#e9c69d" d="M 73.5,54.5 C 71.396,54.2011 69.396,54.5344 67.5,55.5C 68.5896,56.6086 68.5896,57.6086 67.5,58.5C 61.474,61.1812 55.474,63.8478 49.5,66.5C 50.0448,63.1869 50.5448,59.8536 51,56.5C 54.0969,49.8677 59.2636,47.701 66.5,50C 69.5469,50.5158 71.8802,52.0158 73.5,54.5 Z"/></g>
<g><path style="opacity:1" fill="#5d4f5a" d="M 33.5,57.5 C 35.9201,57.2924 38.2534,57.6258 40.5,58.5C 42.4249,62.3686 41.2583,64.7019 37,65.5C 32.5886,64.3085 31.4219,61.6419 33.5,57.5 Z"/></g>
<g><path style="opacity:0.868" fill="#eac59b" d="M 44.5,70.5 C 43.4726,72.1942 42.1392,73.5275 40.5,74.5C 38.1667,74.5 35.8333,74.5 33.5,74.5C 31.8608,73.5275 30.5274,72.1942 29.5,70.5C 34.5,69.1667 39.5,69.1667 44.5,70.5 Z"/></g>
</svg>
