<?xml version="1.0" encoding="UTF-8"?>
<!DOCTYPE svg PUBLIC "-//W3C//DTD SVG 1.1//EN" "http://www.w3.org/Graphics/SVG/1.1/DTD/svg11.dtd">
<svg xmlns="http://www.w3.org/2000/svg" version="1.1" width="75px" height="75px" style="shape-rendering:geometricPrecision; text-rendering:geometricPrecision; image-rendering:optimizeQuality; fill-rule:evenodd; clip-rule:evenodd" xmlns:xlink="http://www.w3.org/1999/xlink">
<g><path style="opacity:0.989" fill="#bce56d" d="M 65.5,12.5 C 56.6074,11.6819 52.4407,15.6819 53,24.5C 55.4252,30.7952 59.9252,32.9618 66.5,31C 68.7024,29.6122 70.7024,28.1122 72.5,26.5C 72.9321,27.7095 73.5987,28.7095 74.5,29.5C 74.5,30.8333 74.5,32.1667 74.5,33.5C 56.1616,41.2039 37.1616,43.2039 17.5,39.5C 16.2083,36.3036 16.7083,33.3036 19,30.5C 22.6972,25.6377 26.8639,21.3043 31.5,17.5C 39.9668,19.0241 47.3001,16.8575 53.5,11C 56.8333,10.3333 60.1667,10.3333 63.5,11C 64.4158,11.2784 65.0825,11.7784 65.5,12.5 Z"/></g>
<g><path style="opacity:1" fill="#f9d35d" d="M 8.5,12.5 C 19.8173,12.8126 23.3173,18.1459 19,28.5C 15.6621,31.3181 11.8288,32.1515 7.5,31C 4.97739,29.6403 2.97739,27.807 1.5,25.5C 0.467894,19.2243 2.80123,14.8909 8.5,12.5 Z"/></g>
<g><path style="opacity:0.946" fill="#fad25d" d="M 65.5,12.5 C 71.5029,15.1714 73.8362,19.8381 72.5,26.5C 70.7024,28.1122 68.7024,29.6122 66.5,31C 59.9252,32.9618 55.4252,30.7952 53,24.5C 52.4407,15.6819 56.6074,11.6819 65.5,12.5 Z"/></g>
<g><path style="opacity:1" fill="#5e515a" d="M 6.5,16.5 C 8.4672,16.2606 10.3005,16.5939 12,17.5C 12.7772,20.4294 12.6105,23.2628 11.5,26C 9.55942,26.7429 7.72609,26.5762 6,25.5C 5.26423,22.408 5.43089,19.408 6.5,16.5 Z"/></g>
<g><path style="opacity:1" fill="#5a4e58" d="M 62.5,16.5 C 64.4672,16.2606 66.3005,16.5939 68,17.5C 68.7772,20.4294 68.6105,23.2628 67.5,26C 65.5594,26.7429 63.7261,26.5762 62,25.5C 61.2642,22.408 61.4309,19.408 62.5,16.5 Z"/></g>
<g><path style="opacity:0.985" fill="#b3d85d" d="M 31.5,17.5 C 26.8639,21.3043 22.6972,25.6377 19,30.5C 16.7083,33.3036 16.2083,36.3036 17.5,39.5C 12.3026,38.9505 7.30258,37.6171 2.5,35.5C 2.16667,35.8333 1.83333,36.1667 1.5,36.5C 7.37879,41.5976 13.7121,45.9309 20.5,49.5C 22.317,53.8006 24.6503,57.8006 27.5,61.5C 15.1592,57.4924 5.82592,49.8257 -0.5,38.5C -0.5,35.5 -0.5,32.5 -0.5,29.5C 0.673734,28.4863 1.3404,27.153 1.5,25.5C 2.97739,27.807 4.97739,29.6403 7.5,31C 11.8288,32.1515 15.6621,31.3181 19,28.5C 23.3173,18.1459 19.8173,12.8126 8.5,12.5C 8.91753,11.7784 9.5842,11.2784 10.5,11C 13.8333,10.3333 17.1667,10.3333 20.5,11C 23.8647,13.6822 27.5313,15.8488 31.5,17.5 Z"/></g>
<g><path style="opacity:0.944" fill="#dafa91" d="M 74.5,35.5 C 74.5,36.5 74.5,37.5 74.5,38.5C 66.1551,53.0029 53.6551,61.3362 37,63.5C 33.5226,63.6725 30.356,63.0058 27.5,61.5C 24.6503,57.8006 22.317,53.8006 20.5,49.5C 21.5,49.5 22.5,49.5 23.5,49.5C 32.4876,54.8312 41.4876,54.8312 50.5,49.5C 59.4247,46.3726 67.4247,41.706 74.5,35.5 Z"/></g>
<g><path style="opacity:1" fill="#50454f" d="M 74.5,33.5 C 74.5,34.1667 74.5,34.8333 74.5,35.5C 67.4247,41.706 59.4247,46.3726 50.5,49.5C 41.4734,45.544 32.4734,45.544 23.5,49.5C 22.5,49.5 21.5,49.5 20.5,49.5C 13.7121,45.9309 7.37879,41.5976 1.5,36.5C 1.83333,36.1667 2.16667,35.8333 2.5,35.5C 7.30258,37.6171 12.3026,38.9505 17.5,39.5C 37.1616,43.2039 56.1616,41.2039 74.5,33.5 Z"/></g>
<g><path style="opacity:1" fill="#f37a7e" d="M 50.5,49.5 C 41.4876,54.8312 32.4876,54.8312 23.5,49.5C 32.4734,45.544 41.4734,45.544 50.5,49.5 Z"/></g>
</svg>
