<?xml version="1.0" encoding="UTF-8"?>
<!DOCTYPE svg PUBLIC "-//W3C//DTD SVG 1.1//EN" "http://www.w3.org/Graphics/SVG/1.1/DTD/svg11.dtd">
<svg xmlns="http://www.w3.org/2000/svg" version="1.1" width="75px" height="75px" style="shape-rendering:geometricPrecision; text-rendering:geometricPrecision; image-rendering:optimizeQuality; fill-rule:evenodd; clip-rule:evenodd" xmlns:xlink="http://www.w3.org/1999/xlink">
<g><path style="opacity:0.962" fill="#b54732" d="M 23.5,-0.5 C 27.5,-0.5 31.5,-0.5 35.5,-0.5C 35.5,0.166667 35.8333,0.5 36.5,0.5C 32.706,3.95302 29.706,7.95302 27.5,12.5C 23.4612,10.4806 19.4612,8.48062 15.5,6.5C 17.2774,5.39953 19.2774,4.56619 21.5,4C 20.8333,3.33333 20.1667,2.66667 19.5,2C 20.8584,1.06564 22.1917,0.232305 23.5,-0.5 Z"/></g>
<g><path style="opacity:0.976" fill="#d26437" d="M 38.5,-0.5 C 42.5,-0.5 46.5,-0.5 50.5,-0.5C 51.8083,0.232305 53.1416,1.06564 54.5,2C 53.8333,2.66667 53.1667,3.33333 52.5,4C 54.7226,4.56619 56.7226,5.39953 58.5,6.5C 53.8071,8.87919 49.1405,11.2125 44.5,13.5C 41.7354,13.7976 39.2354,14.7976 37,16.5C 34.6922,15.0087 32.1922,14.0087 29.5,13.5C 29.1583,12.6618 28.4916,12.3284 27.5,12.5C 29.706,7.95302 32.706,3.95302 36.5,0.5C 37.4916,0.67158 38.1583,0.338246 38.5,-0.5 Z"/></g>
<g><path style="opacity:0.994" fill="#eaad4a" d="M 15.5,6.5 C 19.4612,8.48062 23.4612,10.4806 27.5,12.5C 28.4916,12.3284 29.1583,12.6618 29.5,13.5C 28.1779,13.33 27.0113,13.6634 26,14.5C 20.6797,26.6001 17.8464,39.2668 17.5,52.5C 14.5268,51.1897 12.1935,49.1897 10.5,46.5C 10.4862,39.0826 11.8196,31.9159 14.5,25C 12.3125,20.4689 10.3125,15.9689 8.5,11.5C 8.81526,7.19963 11.1486,5.53296 15.5,6.5 Z"/></g>
<g><path style="opacity:0.961" fill="#eaac49" d="M 58.5,6.5 C 62.8514,5.53296 65.1847,7.19963 65.5,11.5C 63.5392,16.0986 61.5392,20.7653 59.5,25.5C 58.6554,24.3285 57.9887,22.9952 57.5,21.5C 59.8881,20.7813 61.3881,19.1146 62,16.5C 62.4955,14.5273 62.6621,12.5273 62.5,10.5C 58.5933,10.4084 55.2599,11.7417 52.5,14.5C 49.9455,13.612 47.2788,13.2786 44.5,13.5C 49.1405,11.2125 53.8071,8.87919 58.5,6.5 Z"/></g>
<g><path style="opacity:1" fill="#e18e46" d="M 11.5,10.5 C 15.4383,10.6355 18.7717,12.1355 21.5,15C 19.3799,17.4087 17.3799,19.9087 15.5,22.5C 12.4533,19.0728 11.12,15.0728 11.5,10.5 Z"/></g>
<g><path style="opacity:1" fill="#e18e46" d="M 57.5,21.5 C 56.0787,18.9906 54.4121,16.6572 52.5,14.5C 55.2599,11.7417 58.5933,10.4084 62.5,10.5C 62.6621,12.5273 62.4955,14.5273 62,16.5C 61.3881,19.1146 59.8881,20.7813 57.5,21.5 Z"/></g>
<g><path style="opacity:0.965" fill="#d26537" d="M 65.5,11.5 C 69.4348,15.033 72.1015,19.3664 73.5,24.5C 72.1266,24.3433 70.7932,24.51 69.5,25C 71.8818,28.9985 73.5485,33.1652 74.5,37.5C 74.5,40.8333 74.5,44.1667 74.5,47.5C 73.8501,47.1961 73.1835,46.8627 72.5,46.5C 71.5128,52.9594 69.3461,58.9594 66,64.5C 65,63.8333 64,63.1667 63,62.5C 59.9416,66.0617 56.4416,69.0617 52.5,71.5C 51.5224,71.0233 50.6891,70.3567 50,69.5C 47.0212,71.067 44.1879,72.7337 41.5,74.5C 39.8333,74.5 38.1667,74.5 36.5,74.5C 35.5,72.5 34.5,70.5 33.5,68.5C 36.1873,68.6641 38.854,68.4974 41.5,68C 43.3237,67.34 44.657,66.1733 45.5,64.5C 46.7095,64.0679 47.7095,63.4013 48.5,62.5C 53.6427,61.0084 58.1427,58.3418 62,54.5C 63.2525,51.9865 63.7525,49.3198 63.5,46.5C 63.5615,39.197 62.2281,32.197 59.5,25.5C 61.5392,20.7653 63.5392,16.0986 65.5,11.5 Z"/></g>
<g><path style="opacity:0.976" fill="#b54832" d="M 8.5,11.5 C 10.3125,15.9689 12.3125,20.4689 14.5,25C 11.8196,31.9159 10.4862,39.0826 10.5,46.5C 11.1588,55.1687 15.8254,60.502 24.5,62.5C 25.6715,63.3446 27.0048,64.0113 28.5,64.5C 29.5846,66.5869 31.2512,67.9202 33.5,68.5C 34.5,70.5 35.5,72.5 36.5,74.5C 35.1667,74.5 33.8333,74.5 32.5,74.5C 29.5798,73.1221 26.7465,71.4554 24,69.5C 22.4117,71.9677 20.5784,72.1343 18.5,70C 16,67.5 13.5,65 11,62.5C 7.76558,65.0306 5.76558,64.0306 5,59.5C 3.89597,55.1449 2.7293,50.8116 1.5,46.5C 0.816537,46.8627 0.14987,47.1961 -0.5,47.5C -0.5,44.1667 -0.5,40.8333 -0.5,37.5C 0.594262,33.5504 1.9276,29.5504 3.5,25.5C 2.67504,24.6143 1.67504,24.281 0.5,24.5C 1.89854,19.3664 4.56521,15.033 8.5,11.5 Z"/></g>
<g><path style="opacity:1" fill="#fdc750" d="M 29.5,13.5 C 32.1922,14.0087 34.6922,15.0087 37,16.5C 39.2354,14.7976 41.7354,13.7976 44.5,13.5C 47.2788,13.2786 49.9455,13.612 52.5,14.5C 54.4121,16.6572 56.0787,18.9906 57.5,21.5C 57.9887,22.9952 58.6554,24.3285 59.5,25.5C 62.2281,32.197 63.5615,39.197 63.5,46.5C 60.7663,50.3745 57.0997,53.0412 52.5,54.5C 51.7095,53.5987 50.7095,52.9321 49.5,52.5C 47.8984,50.9261 45.8984,50.2594 43.5,50.5C 39.1667,49.1667 34.8333,49.1667 30.5,50.5C 28.1016,50.2594 26.1016,50.9261 24.5,52.5C 23.1667,53.1667 21.8333,53.8333 20.5,54.5C 19.2905,54.0679 18.2905,53.4013 17.5,52.5C 17.8464,39.2668 20.6797,26.6001 26,14.5C 27.0113,13.6634 28.1779,13.33 29.5,13.5 Z"/></g>
<g><path style="opacity:1" fill="#5f535c" d="M 47.5,34.5 C 52.2624,35.0925 53.5957,37.5925 51.5,42C 45.2016,42.4954 43.8682,39.9954 47.5,34.5 Z"/></g>
<g><path style="opacity:1" fill="#5f525a" d="M 23.5,34.5 C 28.2624,35.0925 29.5957,37.5925 27.5,42C 21.2016,42.4954 19.8682,39.9954 23.5,34.5 Z"/></g>
<g><path style="opacity:1" fill="#d7d5d8" d="M 24.5,35.5 C 26.7602,36.2376 26.9269,37.2376 25,38.5C 23.2716,37.6477 23.105,36.6477 24.5,35.5 Z"/></g>
<g><path style="opacity:1" fill="#f8e5bf" d="M 63.5,46.5 C 63.7525,49.3198 63.2525,51.9865 62,54.5C 58.1427,58.3418 53.6427,61.0084 48.5,62.5C 50.8907,60.3852 52.2241,57.7186 52.5,54.5C 57.0997,53.0412 60.7663,50.3745 63.5,46.5 Z"/></g>
<g><path style="opacity:1" fill="#f4e4c1" d="M 30.5,50.5 C 32.2095,55.183 35.5429,56.683 40.5,55C 42.1412,53.871 43.1412,52.371 43.5,50.5C 45.8984,50.2594 47.8984,50.9261 49.5,52.5C 48.8639,60.953 44.6973,63.2864 37,59.5C 29.3027,63.2864 25.1361,60.953 24.5,52.5C 26.1016,50.9261 28.1016,50.2594 30.5,50.5 Z"/></g>
<g><path style="opacity:1" fill="#5d515b" d="M 43.5,50.5 C 43.1412,52.371 42.1412,53.871 40.5,55C 35.5429,56.683 32.2095,55.183 30.5,50.5C 34.8333,49.1667 39.1667,49.1667 43.5,50.5 Z"/></g>
<g><path style="opacity:1" fill="#f5deb8" d="M 10.5,46.5 C 12.1935,49.1897 14.5268,51.1897 17.5,52.5C 18.2905,53.4013 19.2905,54.0679 20.5,54.5C 21.5361,57.4013 23.2028,59.9013 25.5,62C 25.2716,62.3988 24.9382,62.5654 24.5,62.5C 15.8254,60.502 11.1588,55.1687 10.5,46.5 Z"/></g>
<g><path style="opacity:1" fill="#d9b595" d="M 24.5,52.5 C 25.1361,60.953 29.3027,63.2864 37,59.5C 44.6973,63.2864 48.8639,60.953 49.5,52.5C 50.7095,52.9321 51.7095,53.5987 52.5,54.5C 52.2241,57.7186 50.8907,60.3852 48.5,62.5C 47.7095,63.4013 46.7095,64.0679 45.5,64.5C 42.6195,63.8675 39.7862,62.8675 37,61.5C 34.1116,62.6943 31.2783,63.6943 28.5,64.5C 27.0048,64.0113 25.6715,63.3446 24.5,62.5C 24.9382,62.5654 25.2716,62.3988 25.5,62C 23.2028,59.9013 21.5361,57.4013 20.5,54.5C 21.8333,53.8333 23.1667,53.1667 24.5,52.5 Z"/></g>
<g><path style="opacity:1" fill="#f3d8b0" d="M 45.5,64.5 C 44.657,66.1733 43.3237,67.34 41.5,68C 38.854,68.4974 36.1873,68.6641 33.5,68.5C 31.2512,67.9202 29.5846,66.5869 28.5,64.5C 31.2783,63.6943 34.1116,62.6943 37,61.5C 39.7862,62.8675 42.6195,63.8675 45.5,64.5 Z"/></g>
</svg>
