<?xml version="1.0" encoding="UTF-8"?>
<!DOCTYPE svg PUBLIC "-//W3C//DTD SVG 1.1//EN" "http://www.w3.org/Graphics/SVG/1.1/DTD/svg11.dtd">
<svg xmlns="http://www.w3.org/2000/svg" version="1.1" width="75px" height="75px" style="shape-rendering:geometricPrecision; text-rendering:geometricPrecision; image-rendering:optimizeQuality; fill-rule:evenodd; clip-rule:evenodd" xmlns:xlink="http://www.w3.org/1999/xlink">
<g><path style="opacity:0.963" fill="#965b50" d="M 40.5,4.5 C 32.8876,9.04311 28.2209,15.7098 26.5,24.5C 20.5754,25.5901 17.242,29.0901 16.5,35C 16.9477,39.178 18.2811,43.0113 20.5,46.5C 17.5655,52.5658 18.2322,58.2325 22.5,63.5C 23.7375,66.7378 25.4042,69.7378 27.5,72.5C 12.2517,68.349 5.08501,58.349 6,42.5C 3.30982,40.9731 1.14316,38.9731 -0.5,36.5C -0.5,33.5 -0.5,30.5 -0.5,27.5C 2.39505,23.1129 6.39505,21.4462 11.5,22.5C 14.2202,17.2748 17.8868,12.7748 22.5,9C 27.7862,7.35869 32.4528,4.69202 36.5,1C 37.7932,0.50999 39.1266,0.343323 40.5,0.5C 40.5,1.83333 40.5,3.16667 40.5,4.5 Z"/></g>
<g><path style="opacity:0.975" fill="#ad6d59" d="M 74.5,27.5 C 74.5,30.5 74.5,33.5 74.5,36.5C 72.8568,38.9731 70.6902,40.9731 68,42.5C 68.908,58.8451 61.408,69.0118 45.5,73C 39.418,73.7876 33.418,73.621 27.5,72.5C 25.4042,69.7378 23.7375,66.7378 22.5,63.5C 31.7089,69.9273 41.0422,70.094 50.5,64C 55.665,58.8428 56.665,53.0095 53.5,46.5C 55.7189,43.0113 57.0523,39.178 57.5,35C 56.0534,27.2689 51.3867,23.9356 43.5,25C 41.4404,26.6965 39.1071,27.8631 36.5,28.5C 33.6033,26.1983 30.27,24.865 26.5,24.5C 28.2209,15.7098 32.8876,9.04311 40.5,4.5C 42.5504,4.03876 44.5504,3.37209 46.5,2.5C 50.0011,7.51583 54.1678,12.1825 59,16.5C 59.9143,18.6641 61.081,20.6641 62.5,22.5C 67.605,21.4462 71.605,23.1129 74.5,27.5 Z"/></g>
<g><path style="opacity:1" fill="#f5e4c1" d="M 26.5,24.5 C 30.27,24.865 33.6033,26.1983 36.5,28.5C 39.1071,27.8631 41.4404,26.6965 43.5,25C 51.3867,23.9356 56.0534,27.2689 57.5,35C 57.0523,39.178 55.7189,43.0113 53.5,46.5C 56.665,53.0095 55.665,58.8428 50.5,64C 41.0422,70.094 31.7089,69.9273 22.5,63.5C 18.2322,58.2325 17.5655,52.5658 20.5,46.5C 18.2811,43.0113 16.9477,39.178 16.5,35C 17.242,29.0901 20.5754,25.5901 26.5,24.5 Z"/></g>
<g><path style="opacity:1" fill="#e6c39b" d="M 5.5,26.5 C 7.5,26.5 9.5,26.5 11.5,26.5C 11.6646,29.5184 11.498,32.5184 11,35.5C 9.00302,39.0823 6.66969,39.0823 4,35.5C 3.06799,32.1769 3.56799,29.1769 5.5,26.5 Z"/></g>
<g><path style="opacity:1" fill="#e7c49c" d="M 62.5,26.5 C 69.1623,25.9973 71.6623,28.9973 70,35.5C 67.3303,39.0823 64.997,39.0823 63,35.5C 62.502,32.5184 62.3354,29.5184 62.5,26.5 Z"/></g>
<g><path style="opacity:1" fill="#695e6a" d="M 23.5,31.5 C 29.704,31.3137 31.0374,33.8137 27.5,39C 22.6325,38.7108 21.2991,36.2108 23.5,31.5 Z"/></g>
<g><path style="opacity:1" fill="#675c67" d="M 46.5,30.5 C 50.9757,30.8222 52.4757,33.1556 51,37.5C 47.5089,40.4456 45.3422,39.6122 44.5,35C 44.5186,33.167 45.1852,31.667 46.5,30.5 Z"/></g>
<g><path style="opacity:1" fill="#635964" d="M 31.5,44.5 C 33.0898,44.6282 34.4231,45.2949 35.5,46.5C 33.1671,47.9415 31.8338,47.2748 31.5,44.5 Z"/></g>
<g><path style="opacity:1" fill="#635964" d="M 40.5,44.5 C 43.0279,45.5179 42.8612,46.5179 40,47.5C 39.5,47.1667 39,46.8333 38.5,46.5C 39.2427,45.8182 39.9094,45.1515 40.5,44.5 Z"/></g>
<g><path style="opacity:1" fill="#544653" d="M 43.5,61.5 C 41.6408,57.0744 38.3075,55.5744 33.5,57C 31.8588,58.129 30.8588,59.629 30.5,61.5C 26.6892,59.6896 25.0225,56.6896 25.5,52.5C 33.1667,52.5 40.8333,52.5 48.5,52.5C 48.9775,56.6896 47.3108,59.6896 43.5,61.5 Z"/></g>
<g><path style="opacity:1" fill="#e46871" d="M 43.5,61.5 C 39.1375,64.0901 34.8041,64.0901 30.5,61.5C 30.8588,59.629 31.8588,58.129 33.5,57C 38.3075,55.5744 41.6408,57.0744 43.5,61.5 Z"/></g>
</svg>
