<?xml version="1.0" encoding="UTF-8"?>
<!DOCTYPE svg PUBLIC "-//W3C//DTD SVG 1.1//EN" "http://www.w3.org/Graphics/SVG/1.1/DTD/svg11.dtd">
<svg xmlns="http://www.w3.org/2000/svg" version="1.1" width="75px" height="75px" style="shape-rendering:geometricPrecision; text-rendering:geometricPrecision; image-rendering:optimizeQuality; fill-rule:evenodd; clip-rule:evenodd" xmlns:xlink="http://www.w3.org/1999/xlink">
<g><path style="opacity:0.98" fill="#af6e59" d="M 2.5,-0.5 C 3.5,-0.5 4.5,-0.5 5.5,-0.5C 10.6161,0.806286 15.9494,1.47295 21.5,1.5C 27.8495,3.32694 33.0162,6.9936 37,12.5C 40.9838,6.9936 46.1505,3.32694 52.5,1.5C 58.0506,1.47295 63.3839,0.806286 68.5,-0.5C 69.5,-0.5 70.5,-0.5 71.5,-0.5C 71.45,4.06413 69.45,7.56413 65.5,10C 68.9495,13.8459 70.9495,18.3459 71.5,23.5C 69.2663,32.7339 63.5997,38.7339 54.5,41.5C 48.6529,42.0032 43.9863,40.0032 40.5,35.5C 38.1667,30.1667 35.8333,30.1667 33.5,35.5C 29.8707,39.6087 25.204,41.6087 19.5,41.5C 10.4403,38.772 4.77367,32.772 2.5,23.5C 3.05049,18.3459 5.05049,13.8459 8.5,10C 4.54999,7.56413 2.54999,4.06413 2.5,-0.5 Z"/></g>
<g><path style="opacity:0.977" fill="#965b4f" d="M 27.5,-0.5 C 33.8333,-0.5 40.1667,-0.5 46.5,-0.5C 48.2143,0.738379 50.2143,1.40505 52.5,1.5C 46.1505,3.32694 40.9838,6.9936 37,12.5C 33.0162,6.9936 27.8495,3.32694 21.5,1.5C 23.7857,1.40505 25.7857,0.738379 27.5,-0.5 Z"/></g>
<g><path style="opacity:1" fill="#e8ac4b" d="M 17.5,11.5 C 28.5132,10.6815 33.6798,15.6815 33,26.5C 29.0197,35.0793 22.8531,37.2459 14.5,33C 7.15236,24.6006 8.15236,17.4339 17.5,11.5 Z"/></g>
<g><path style="opacity:1" fill="#e8ac4b" d="M 48.5,11.5 C 59.5132,10.6815 64.6798,15.6815 64,26.5C 60.0197,35.0793 53.8531,37.2459 45.5,33C 38.1524,24.6006 39.1524,17.4339 48.5,11.5 Z"/></g>
<g><path style="opacity:1" fill="#f9c24f" d="M 19.5,14.5 C 27.4932,15.3245 30.6598,19.6578 29,27.5C 23.9244,32.756 18.9244,32.756 14,27.5C 13.3333,24.8333 13.3333,22.1667 14,19.5C 15.7297,17.5981 17.563,15.9314 19.5,14.5 Z"/></g>
<g><path style="opacity:1" fill="#f9c34f" d="M 50.5,14.5 C 58.4932,15.3245 61.6598,19.6578 60,27.5C 55,32.8333 50,32.8333 45,27.5C 44.3333,24.8333 44.3333,22.1667 45,19.5C 46.7297,17.5981 48.563,15.9314 50.5,14.5 Z"/></g>
<g><path style="opacity:1" fill="#594a51" d="M 19.5,17.5 C 25.3034,17.81 27.4701,20.81 26,26.5C 23,30.5 20,30.5 17,26.5C 15.9271,22.9003 16.7605,19.9003 19.5,17.5 Z"/></g>
<g><path style="opacity:1" fill="#59494f" d="M 50.5,17.5 C 56.3034,17.81 58.4701,20.81 57,26.5C 54,30.5 51,30.5 48,26.5C 46.9302,22.8579 47.7636,19.8579 50.5,17.5 Z"/></g>
<g><path style="opacity:1" fill="#e3e1e4" d="M 21.5,19.5 C 22.5862,19.62 23.2528,20.2867 23.5,21.5C 22.6964,23.9573 21.6964,23.9573 20.5,21.5C 20.8627,20.8165 21.1961,20.1499 21.5,19.5 Z"/></g>
<g><path style="opacity:1" fill="#dedcdf" d="M 51.5,19.5 C 52.5,19.5 53.5,19.5 54.5,19.5C 54.5,20.8333 54.5,22.1667 54.5,23.5C 53.5,23.5 52.5,23.5 51.5,23.5C 51.5,22.1667 51.5,20.8333 51.5,19.5 Z"/></g>
<g><path style="opacity:0.938" fill="#985a4f" d="M 2.5,23.5 C 4.77367,32.772 10.4403,38.772 19.5,41.5C 18.5655,42.5676 18.2322,43.901 18.5,45.5C 17.596,44.791 17.2627,43.791 17.5,42.5C 14.2869,42.19 11.2869,42.5233 8.5,43.5C 5.05044,44.2436 3.38377,42.9103 3.5,39.5C 2.16667,39.5 0.833333,39.5 -0.5,39.5C -0.5,37.8333 -0.5,36.1667 -0.5,34.5C 0.632154,30.981 1.63215,27.3143 2.5,23.5 Z"/></g>
<g><path style="opacity:0.95" fill="#985a4f" d="M 71.5,23.5 C 72.3678,27.3143 73.3678,30.981 74.5,34.5C 74.5,36.1667 74.5,37.8333 74.5,39.5C 73.1667,39.5 71.8333,39.5 70.5,39.5C 70.6162,42.9103 68.9496,44.2436 65.5,43.5C 62.7131,42.5233 59.7131,42.19 56.5,42.5C 56.7373,43.791 56.404,44.791 55.5,45.5C 55.7678,43.901 55.4345,42.5676 54.5,41.5C 63.5997,38.7339 69.2663,32.7339 71.5,23.5 Z"/></g>
<g><path style="opacity:1" fill="#e7ab4c" d="M 40.5,35.5 C 39.2488,37.3819 38.0821,39.3819 37,41.5C 35.9179,39.3819 34.7512,37.3819 33.5,35.5C 35.8333,30.1667 38.1667,30.1667 40.5,35.5 Z"/></g>
<g><path style="opacity:1" fill="#bf816b" d="M 33.5,35.5 C 34.7512,37.3819 35.9179,39.3819 37,41.5C 38.0821,39.3819 39.2488,37.3819 40.5,35.5C 43.9863,40.0032 48.6529,42.0032 54.5,41.5C 55.4345,42.5676 55.7678,43.901 55.5,45.5C 54.8526,57.636 48.6859,64.9694 37,67.5C 25.3141,64.9694 19.1474,57.636 18.5,45.5C 18.2322,43.901 18.5655,42.5676 19.5,41.5C 25.204,41.6087 29.8707,39.6087 33.5,35.5 Z"/></g>
<g><path style="opacity:0.965" fill="#824d51" d="M 18.5,45.5 C 19.1474,57.636 25.3141,64.9694 37,67.5C 48.6859,64.9694 54.8526,57.636 55.5,45.5C 56.404,44.791 56.7373,43.791 56.5,42.5C 59.7131,42.19 62.7131,42.5233 65.5,43.5C 64.5673,54.0884 59.5673,62.0884 50.5,67.5C 48.1016,67.2594 46.1016,67.9261 44.5,69.5C 39.5,70.8333 34.5,70.8333 29.5,69.5C 27.8984,67.9261 25.8984,67.2594 23.5,67.5C 14.4327,62.0884 9.43272,54.0884 8.5,43.5C 11.2869,42.5233 14.2869,42.19 17.5,42.5C 17.2627,43.791 17.596,44.791 18.5,45.5 Z"/></g>
<g><path style="opacity:0.806" fill="#eaae4a" d="M 23.5,67.5 C 25.8984,67.2594 27.8984,67.9261 29.5,69.5C 27.5856,70.1847 25.5856,70.6847 23.5,71C 24.3366,72.0113 24.67,73.1779 24.5,74.5C 23.1667,74.5 21.8333,74.5 20.5,74.5C 20.1667,70.5 19.8333,70.5 19.5,74.5C 18.5,74.5 17.5,74.5 16.5,74.5C 16.362,70.7139 15.6953,70.7139 14.5,74.5C 13.5,74.5 12.5,74.5 11.5,74.5C 11.5494,71.9009 12.5494,69.7342 14.5,68C 17.4816,67.502 20.4816,67.3354 23.5,67.5 Z"/></g>
<g><path style="opacity:0.813" fill="#ebae4a" d="M 50.5,67.5 C 53.5184,67.3354 56.5184,67.502 59.5,68C 61.4506,69.7342 62.4506,71.9009 62.5,74.5C 61.5,74.5 60.5,74.5 59.5,74.5C 58.3047,70.7139 57.638,70.7139 57.5,74.5C 56.5,74.5 55.5,74.5 54.5,74.5C 54.1667,70.5 53.8333,70.5 53.5,74.5C 52.1667,74.5 50.8333,74.5 49.5,74.5C 49.33,73.1779 49.6634,72.0113 50.5,71C 48.4144,70.6847 46.4144,70.1847 44.5,69.5C 46.1016,67.9261 48.1016,67.2594 50.5,67.5 Z"/></g>
</svg>
