<?xml version="1.0" encoding="UTF-8"?>
<!DOCTYPE svg PUBLIC "-//W3C//DTD SVG 1.1//EN" "http://www.w3.org/Graphics/SVG/1.1/DTD/svg11.dtd">
<svg xmlns="http://www.w3.org/2000/svg" version="1.1" width="75px" height="75px" style="shape-rendering:geometricPrecision; text-rendering:geometricPrecision; image-rendering:optimizeQuality; fill-rule:evenodd; clip-rule:evenodd" xmlns:xlink="http://www.w3.org/1999/xlink">
<g><path style="opacity:0.943" fill="#4b404e" d="M 7.5,-0.5 C 11.1667,-0.5 14.8333,-0.5 18.5,-0.5C 21.5431,1.54327 23.8764,4.20994 25.5,7.5C 24.7095,8.40128 23.7095,9.06795 22.5,9.5C 20.1137,8.62669 18.1137,7.12669 16.5,5C 7.33333,3.5 3.5,7.33333 5,16.5C 6.37561,17.7051 7.54227,19.0384 8.5,20.5C 7.48837,21.8717 6.48837,23.205 5.5,24.5C 3.13942,22.8061 1.13942,20.8061 -0.5,18.5C -0.5,14.8333 -0.5,11.1667 -0.5,7.5C 1.16667,3.83333 3.83333,1.16667 7.5,-0.5 Z"/></g>
<g><path style="opacity:0.945" fill="#4c404e" d="M 55.5,-0.5 C 59.1667,-0.5 62.8333,-0.5 66.5,-0.5C 70.1667,1.16667 72.8333,3.83333 74.5,7.5C 74.5,11.1667 74.5,14.8333 74.5,18.5C 72.8606,20.8061 70.8606,22.8061 68.5,24.5C 67.5116,23.205 66.5116,21.8717 65.5,20.5C 70.3991,16.0246 70.7324,11.1913 66.5,6C 63.634,4.54321 60.634,4.20988 57.5,5C 55.8863,7.12669 53.8863,8.62669 51.5,9.5C 49.9731,9.57298 48.9731,8.90632 48.5,7.5C 50.1236,4.20994 52.4569,1.54327 55.5,-0.5 Z"/></g>
<g><path style="opacity:1" fill="#6f6571" d="M 22.5,9.5 C 17.2572,12.4067 12.5905,16.0734 8.5,20.5C 7.54227,19.0384 6.37561,17.7051 5,16.5C 3.5,7.33333 7.33333,3.5 16.5,5C 18.1137,7.12669 20.1137,8.62669 22.5,9.5 Z"/></g>
<g><path style="opacity:1" fill="#6f6571" d="M 65.5,20.5 C 61.4317,16.1014 56.765,12.4347 51.5,9.5C 53.8863,8.62669 55.8863,7.12669 57.5,5C 60.634,4.20988 63.634,4.54321 66.5,6C 70.7324,11.1913 70.3991,16.0246 65.5,20.5 Z"/></g>
<g><path style="opacity:0.986" fill="#eceaec" d="M 48.5,7.5 C 48.9731,8.90632 49.9731,9.57298 51.5,9.5C 56.765,12.4347 61.4317,16.1014 65.5,20.5C 66.5116,21.8717 67.5116,23.205 68.5,24.5C 75.8645,40.5222 73.1979,54.6889 60.5,67C 55.8484,70.3724 50.8484,72.8724 45.5,74.5C 41.8333,74.5 38.1667,74.5 34.5,74.5C 25.9433,69.7749 19.6099,62.9415 15.5,54C 17.7078,53.8091 19.7078,53.3091 21.5,52.5C 29.0651,49.3708 31.8984,43.7041 30,35.5C 26.501,29.3334 21.6676,28.0001 15.5,31.5C 14.5222,31.189 13.8555,30.5223 13.5,29.5C 16.547,20.709 21.547,13.3757 28.5,7.5C 35.1156,6.29323 41.7823,6.29323 48.5,7.5 Z"/></g>
<g><path style="opacity:0.969" fill="#d9d7da" d="M 25.5,7.5 C 26.5,7.5 27.5,7.5 28.5,7.5C 21.547,13.3757 16.547,20.709 13.5,29.5C 13.8555,30.5223 14.5222,31.189 15.5,31.5C 8.78203,37.0191 7.78203,43.5191 12.5,51C 15.3508,52.2886 18.3508,52.7886 21.5,52.5C 19.7078,53.3091 17.7078,53.8091 15.5,54C 19.6099,62.9415 25.9433,69.7749 34.5,74.5C 32.5,74.5 30.5,74.5 28.5,74.5C 4.09051,65.6751 -3.57616,49.0084 5.5,24.5C 6.48837,23.205 7.48837,21.8717 8.5,20.5C 12.5905,16.0734 17.2572,12.4067 22.5,9.5C 23.7095,9.06795 24.7095,8.40128 25.5,7.5 Z"/></g>
<g><path style="opacity:1" fill="#504553" d="M 21.5,52.5 C 18.3508,52.7886 15.3508,52.2886 12.5,51C 7.78203,43.5191 8.78203,37.0191 15.5,31.5C 21.6676,28.0001 26.501,29.3334 30,35.5C 31.8984,43.7041 29.0651,49.3708 21.5,52.5 Z"/></g>
<g><path style="opacity:1" fill="#514554" d="M 49.5,29.5 C 58.0966,29.4526 63.0966,33.6193 64.5,42C 64.1382,51.1906 59.4715,54.524 50.5,52C 44.333,48.1548 42.1663,42.6548 44,35.5C 45.3597,32.9774 47.193,30.9774 49.5,29.5 Z"/></g>
<g><path style="opacity:1" fill="#e4e2e4" d="M 21.5,37.5 C 23.337,37.6395 23.6704,38.3061 22.5,39.5C 21.7025,39.0431 21.3691,38.3764 21.5,37.5 Z"/></g>
<g><path style="opacity:1" fill="#e5e3e5" d="M 50.5,37.5 C 52.337,37.6395 52.6704,38.3061 51.5,39.5C 50.7025,39.0431 50.3691,38.3764 50.5,37.5 Z"/></g>
<g><path style="opacity:1" fill="#5e5461" d="M 38.5,58.5 C 37.5,58.5 36.5,58.5 35.5,58.5C 31.6828,57.4665 30.6828,55.1332 32.5,51.5C 35.5,50.1667 38.5,50.1667 41.5,51.5C 43.3172,55.1332 42.3172,57.4665 38.5,58.5 Z"/></g>
<g><path style="opacity:1" fill="#7e7580" d="M 35.5,58.5 C 36.5,58.5 37.5,58.5 38.5,58.5C 38.5,59.5 38.5,60.5 38.5,61.5C 40.8568,61.6633 43.1902,61.4966 45.5,61C 46.0712,59.7949 46.7379,58.6283 47.5,57.5C 49.9572,59.0009 49.9572,60.6676 47.5,62.5C 40.5505,63.6301 33.5505,63.7968 26.5,63C 24.1642,60.9517 24.1642,59.1183 26.5,57.5C 27.2621,58.6283 27.9288,59.7949 28.5,61C 30.8098,61.4966 33.1432,61.6633 35.5,61.5C 35.5,60.5 35.5,59.5 35.5,58.5 Z"/></g>
</svg>
