<?xml version="1.0" encoding="UTF-8"?>
<!DOCTYPE svg PUBLIC "-//W3C//DTD SVG 1.1//EN" "http://www.w3.org/Graphics/SVG/1.1/DTD/svg11.dtd">
<svg xmlns="http://www.w3.org/2000/svg" version="1.1" width="75px" height="75px" style="shape-rendering:geometricPrecision; text-rendering:geometricPrecision; image-rendering:optimizeQuality; fill-rule:evenodd; clip-rule:evenodd" xmlns:xlink="http://www.w3.org/1999/xlink">
<g><path style="opacity:0.979" fill="#e9ae4c" d="M 5.5,-0.5 C 8.16667,-0.5 10.8333,-0.5 13.5,-0.5C 17.2996,1.56981 20.9662,3.90315 24.5,6.5C 13.4948,17.5204 10.1615,30.5204 14.5,45.5C 15.404,46.209 15.7373,47.209 15.5,48.5C 15.1667,51.5 16.5,52.8333 19.5,52.5C 19.427,54.0269 20.0937,55.0269 21.5,55.5C 21.5,55.8333 21.5,56.1667 21.5,56.5C 19.6921,57.9179 19.0254,59.9179 19.5,62.5C 8.2207,53.6002 3.2207,41.9335 4.5,27.5C 5.2122,25.0721 6.2122,22.7388 7.5,20.5C 4.83406,15.8355 3.16739,10.8355 2.5,5.5C 2.46719,2.89835 3.46719,0.898353 5.5,-0.5 Z"/></g>
<g><path style="opacity:0.927" fill="#ebaf4a" d="M 60.5,-0.5 C 63.1667,-0.5 65.8333,-0.5 68.5,-0.5C 70.5328,0.898353 71.5328,2.89835 71.5,5.5C 70.8231,10.864 69.1565,15.864 66.5,20.5C 65.0937,20.0269 64.427,19.0269 64.5,17.5C 68.0936,13.2153 69.0936,8.38193 67.5,3C 62.5333,3.31768 58.5333,5.48435 55.5,9.5C 53.0326,9.24512 51.0326,8.24512 49.5,6.5C 53.0338,3.90315 56.7004,1.56981 60.5,-0.5 Z"/></g>
<g><path style="opacity:1" fill="#e19c46" d="M 6.5,2.5 C 11.4216,3.29282 15.4216,5.62615 18.5,9.5C 15.5,12.1667 12.5,14.8333 9.5,17.5C 5.80971,12.9833 4.80971,7.98331 6.5,2.5 Z"/></g>
<g><path style="opacity:1" fill="#e19d46" d="M 64.5,17.5 C 61.4744,14.8046 58.4744,12.1379 55.5,9.5C 58.5333,5.48435 62.5333,3.31768 67.5,3C 69.0936,8.38193 68.0936,13.2153 64.5,17.5 Z"/></g>
<g><path style="opacity:0.994" fill="#fcc550" d="M 49.5,6.5 C 51.0326,8.24512 53.0326,9.24512 55.5,9.5C 58.4744,12.1379 61.4744,14.8046 64.5,17.5C 64.427,19.0269 65.0937,20.0269 66.5,20.5C 67.8333,23.1667 69.1667,25.8333 70.5,28.5C 70.5907,42.3214 65.2574,53.6548 54.5,62.5C 55.1495,60.5648 55.4828,58.5648 55.5,56.5C 54.5,56.5 53.5,56.5 52.5,56.5C 50.6644,54.412 48.3311,53.0787 45.5,52.5C 39.8333,52.5 34.1667,52.5 28.5,52.5C 25.7939,52.6878 23.4605,53.6878 21.5,55.5C 20.0937,55.0269 19.427,54.0269 19.5,52.5C 20.525,52.1034 20.6917,51.4368 20,50.5C 18.6703,49.4178 17.1703,48.7512 15.5,48.5C 15.7373,47.209 15.404,46.209 14.5,45.5C 10.1615,30.5204 13.4948,17.5204 24.5,6.5C 32.8333,5.16667 41.1667,5.16667 49.5,6.5 Z"/></g>
<g><path style="opacity:1" fill="#66595f" d="M 28.5,11.5 C 34.1764,11.3339 39.8431,11.5006 45.5,12C 46.9733,12.7096 47.6399,13.8762 47.5,15.5C 40.4905,14.2862 33.4905,14.2862 26.5,15.5C 26.5271,13.8007 27.1938,12.4674 28.5,11.5 Z"/></g>
<g><path style="opacity:1" fill="#71615e" d="M 22.5,14.5 C 23.675,14.281 24.675,14.6143 25.5,15.5C 23.978,17.9407 21.978,18.6073 19.5,17.5C 20.3398,16.265 21.3398,15.265 22.5,14.5 Z"/></g>
<g><path style="opacity:1" fill="#72615e" d="M 48.5,14.5 C 51.0606,14.4469 53.0606,15.4469 54.5,17.5C 51.4739,18.6537 49.4739,17.6537 48.5,14.5 Z"/></g>
<g><path style="opacity:1" fill="#65585f" d="M 30.5,17.5 C 34.5138,17.3345 38.5138,17.5012 42.5,18C 44.2861,18.1962 45.6195,19.0295 46.5,20.5C 40.8938,20.3069 35.2272,20.6403 29.5,21.5C 28.8333,21.1667 28.1667,20.8333 27.5,20.5C 28.3398,19.265 29.3398,18.265 30.5,17.5 Z"/></g>
<g><path style="opacity:1" fill="#64555a" d="M 19.5,33.5 C 25.1778,33.1572 27.3445,35.8238 26,41.5C 23.3333,45.5 20.6667,45.5 18,41.5C 17.1093,38.5024 17.6093,35.8357 19.5,33.5 Z"/></g>
<g><path style="opacity:1" fill="#e4e2e4" d="M 20.5,34.5 C 21.5,34.5 22.5,34.5 23.5,34.5C 23.5,35.8333 23.5,37.1667 23.5,38.5C 22.5,38.5 21.5,38.5 20.5,38.5C 20.5,37.1667 20.5,35.8333 20.5,34.5 Z"/></g>
<g><path style="opacity:1" fill="#63555b" d="M 49.5,33.5 C 55.4992,33.002 57.6659,35.6687 56,41.5C 53.3333,45.5 50.6667,45.5 48,41.5C 47.2815,38.5929 47.7815,35.9262 49.5,33.5 Z"/></g>
<g><path style="opacity:1" fill="#e9e7e9" d="M 51.5,34.5 C 52.5862,34.62 53.2528,35.2867 53.5,36.5C 52.6964,38.9573 51.6964,38.9573 50.5,36.5C 50.8627,35.8165 51.1961,35.1499 51.5,34.5 Z"/></g>
<g><path style="opacity:0.991" fill="#f4d9ae" d="M 4.5,27.5 C 3.2207,41.9335 8.2207,53.6002 19.5,62.5C 24.127,68.6922 29.9603,70.0255 37,66.5C 41.0146,68.7526 45.1813,69.0859 49.5,67.5C 49.5,67.8333 49.5,68.1667 49.5,68.5C 47.863,70.4752 46.1964,72.4752 44.5,74.5C 39.5,74.5 34.5,74.5 29.5,74.5C 27.832,72.66 26.332,70.66 25,68.5C 23.647,69.6853 22.4803,71.0186 21.5,72.5C 18.4782,70.3119 15.9782,67.6452 14,64.5C 10.756,68.6495 8.75599,67.9828 8,62.5C 7.00707,58.5577 6.34041,54.5577 6,50.5C 4.66667,51.1667 3.33333,51.8333 2,52.5C 0.8907,43.8326 1.72403,35.4992 4.5,27.5 Z"/></g>
<g><path style="opacity:1" fill="#685a5e" d="M 14.5,45.5 C 14.5,46.5 14.5,47.5 14.5,48.5C 9.65903,46.8183 7.99237,43.485 9.5,38.5C 9.83333,38.6667 10.1667,38.8333 10.5,39C 11.7332,41.3143 13.0666,43.4809 14.5,45.5 Z"/></g>
<g><path style="opacity:1" fill="#63575f" d="M 61.5,39.5 C 62.5,39.5 63.5,39.5 64.5,39.5C 64.1289,43.2441 62.4623,46.2441 59.5,48.5C 59.1667,47.8333 58.8333,47.1667 58.5,46.5C 59.7674,44.2967 60.7674,41.9633 61.5,39.5 Z"/></g>
<g><path style="opacity:1" fill="#76645d" d="M 15.5,48.5 C 17.1703,48.7512 18.6703,49.4178 20,50.5C 20.6917,51.4368 20.525,52.1034 19.5,52.5C 16.5,52.8333 15.1667,51.5 15.5,48.5 Z"/></g>
<g><path style="opacity:1" fill="#73625e" d="M 55.5,48.5 C 57.0847,49.0024 57.5847,50.0024 57,51.5C 51.7716,52.6471 51.2716,51.6471 55.5,48.5 Z"/></g>
<g><path style="opacity:1" fill="#fae9c3" d="M 70.5,28.5 C 72.138,36.0647 72.8047,43.7314 72.5,51.5C 70.8561,51.7135 69.3561,51.3802 68,50.5C 67.8954,56.5881 66.3954,62.2548 63.5,67.5C 62.1861,66.6872 61.0195,65.6872 60,64.5C 58.0218,67.6452 55.5218,70.3119 52.5,72.5C 51.4756,71.1482 50.4756,69.8149 49.5,68.5C 49.5,68.1667 49.5,67.8333 49.5,67.5C 51.4727,66.194 53.1394,64.5273 54.5,62.5C 65.2574,53.6548 70.5907,42.3214 70.5,28.5 Z"/></g>
<g><path style="opacity:1" fill="#f9e9c5" d="M 28.5,52.5 C 32.0489,60.3797 37.3823,61.5463 44.5,56C 45.3366,54.9887 45.67,53.8221 45.5,52.5C 48.3311,53.0787 50.6644,54.412 52.5,56.5C 52.6025,62.0601 49.9359,65.0601 44.5,65.5C 41.8125,65.5188 39.3125,64.8522 37,63.5C 33.351,65.352 29.5177,65.852 25.5,65C 22.6792,62.8587 21.3459,60.0254 21.5,56.5C 21.5,56.1667 21.5,55.8333 21.5,55.5C 23.4605,53.6878 25.7939,52.6878 28.5,52.5 Z"/></g>
<g><path style="opacity:1" fill="#f87c82" d="M 28.5,52.5 C 34.1667,52.5 39.8333,52.5 45.5,52.5C 45.67,53.8221 45.3366,54.9887 44.5,56C 37.3823,61.5463 32.0489,60.3797 28.5,52.5 Z"/></g>
<g><path style="opacity:1" fill="#d9b695" d="M 21.5,56.5 C 21.3459,60.0254 22.6792,62.8587 25.5,65C 29.5177,65.852 33.351,65.352 37,63.5C 39.3125,64.8522 41.8125,65.5188 44.5,65.5C 49.9359,65.0601 52.6025,62.0601 52.5,56.5C 53.5,56.5 54.5,56.5 55.5,56.5C 55.4828,58.5648 55.1495,60.5648 54.5,62.5C 53.1394,64.5273 51.4727,66.194 49.5,67.5C 45.1813,69.0859 41.0146,68.7526 37,66.5C 29.9603,70.0255 24.127,68.6922 19.5,62.5C 19.0254,59.9179 19.6921,57.9179 21.5,56.5 Z"/></g>
</svg>
