<?xml version="1.0" encoding="UTF-8"?>
<!DOCTYPE svg PUBLIC "-//W3C//DTD SVG 1.1//EN" "http://www.w3.org/Graphics/SVG/1.1/DTD/svg11.dtd">
<svg xmlns="http://www.w3.org/2000/svg" version="1.1" width="75px" height="75px" style="shape-rendering:geometricPrecision; text-rendering:geometricPrecision; image-rendering:optimizeQuality; fill-rule:evenodd; clip-rule:evenodd" xmlns:xlink="http://www.w3.org/1999/xlink">
<g><path style="opacity:0.95" fill="#706672" d="M 4.5,-0.5 C 6.16667,-0.5 7.83333,-0.5 9.5,-0.5C 16.2378,3.64202 22.4045,8.64202 28,14.5C 30.0408,13.5769 32.2075,13.2436 34.5,13.5C 26.7842,17.5496 21.1175,23.5496 17.5,31.5C 17.5,32.1667 17.1667,32.5 16.5,32.5C 9.52049,36.4807 3.85382,41.814 -0.5,48.5C -0.5,47.5 -0.5,46.5 -0.5,45.5C 1.51859,38.9605 4.51859,32.7938 8.5,27C 5.14989,18.0481 3.81656,8.88144 4.5,-0.5 Z"/></g>
<g><path style="opacity:0.912" fill="#6f6671" d="M 64.5,-0.5 C 66.1667,-0.5 67.8333,-0.5 69.5,-0.5C 70.1295,9.03951 68.7962,18.3728 65.5,27.5C 64.596,26.791 64.2627,25.791 64.5,24.5C 66.0173,17.913 67.0173,11.2463 67.5,4.5C 61.336,7.10118 56.6693,11.4345 53.5,17.5C 50.9823,16.7362 48.649,15.7362 46.5,14.5C 51.7612,8.54685 57.7612,3.54685 64.5,-0.5 Z"/></g>
<g><path style="opacity:1" fill="#bdb9be" d="M 6.5,4.5 C 12.3741,7.36829 17.0408,11.7016 20.5,17.5C 16.8781,19.7867 13.5448,22.4534 10.5,25.5C 8.14066,18.703 6.80733,11.703 6.5,4.5 Z"/></g>
<g><path style="opacity:1" fill="#bdb9be" d="M 64.5,24.5 C 63.8826,24.6107 63.3826,24.944 63,25.5C 60.228,22.2166 57.0614,19.5499 53.5,17.5C 56.6693,11.4345 61.336,7.10118 67.5,4.5C 67.0173,11.2463 66.0173,17.913 64.5,24.5 Z"/></g>
<g><path style="opacity:0.989" fill="#867e88" d="M 34.5,13.5 C 38.6002,13.2367 42.6002,13.5701 46.5,14.5C 48.649,15.7362 50.9823,16.7362 53.5,17.5C 57.0614,19.5499 60.228,22.2166 63,25.5C 63.3826,24.944 63.8826,24.6107 64.5,24.5C 64.2627,25.791 64.596,26.791 65.5,27.5C 69.5753,32.9839 72.5753,38.9839 74.5,45.5C 74.5,46.5 74.5,47.5 74.5,48.5C 71.1082,43.5995 67.1082,39.0995 62.5,35C 48.0635,28.2706 42.0635,32.7706 44.5,48.5C 39.4346,45.9012 34.4346,45.9012 29.5,48.5C 33.2308,37.244 29.2308,31.5773 17.5,31.5C 21.1175,23.5496 26.7842,17.5496 34.5,13.5 Z"/></g>
<g><path style="opacity:1" fill="#bdb9be" d="M 17.5,31.5 C 29.2308,31.5773 33.2308,37.244 29.5,48.5C 26.0793,53.9916 24.7459,59.9916 25.5,66.5C 21.9523,64.5593 18.2857,62.8926 14.5,61.5C 12.8023,51.662 13.469,41.9954 16.5,32.5C 17.1667,32.5 17.5,32.1667 17.5,31.5 Z"/></g>
<g><path style="opacity:1" fill="#bebabf" d="M 74.5,48.5 C 74.5,49.1667 74.5,49.8333 74.5,50.5C 72.4496,50.9612 70.4496,51.6279 68.5,52.5C 68.1667,54.5 67.8333,56.5 67.5,58.5C 60.9747,60.7839 54.6414,63.4506 48.5,66.5C 49.0167,60.0591 47.6834,54.0591 44.5,48.5C 42.0635,32.7706 48.0635,28.2706 62.5,35C 67.1082,39.0995 71.1082,43.5995 74.5,48.5 Z"/></g>
<g><path style="opacity:1" fill="#ada7ae" d="M 16.5,32.5 C 13.469,41.9954 12.8023,51.662 14.5,61.5C 11.8619,60.5084 9.19522,59.5084 6.5,58.5C 6.16667,56.5 5.83333,54.5 5.5,52.5C 3.5504,51.6279 1.5504,50.9612 -0.5,50.5C -0.5,49.8333 -0.5,49.1667 -0.5,48.5C 3.85382,41.814 9.52049,36.4807 16.5,32.5 Z"/></g>
<g><path style="opacity:1" fill="#5f5562" d="M 50.5,36.5 C 56.1558,36.8674 57.9891,39.8674 56,45.5C 53.0337,48.2652 50.367,47.9318 48,44.5C 47.0182,41.2253 47.8515,38.5586 50.5,36.5 Z"/></g>
<g><path style="opacity:1" fill="#e6e5e7" d="M 51.5,37.5 C 53.1765,38.1834 53.8432,39.5168 53.5,41.5C 52.5,41.5 51.5,41.5 50.5,41.5C 50.4326,40.0413 50.7659,38.7079 51.5,37.5 Z"/></g>
<g><path style="opacity:1" fill="#605663" d="M 19.5,36.5 C 25.1573,36.3244 27.324,38.991 26,44.5C 23.1923,48.3863 20.5257,48.3863 18,44.5C 17.1093,41.5024 17.6093,38.8357 19.5,36.5 Z"/></g>
<g><path style="opacity:1" fill="#e8e7e9" d="M 20.5,37.5 C 22.9118,37.6941 23.9118,39.0274 23.5,41.5C 22.5,41.5 21.5,41.5 20.5,41.5C 20.5,40.1667 20.5,38.8333 20.5,37.5 Z"/></g>
<g><path style="opacity:0.997" fill="#6f6571" d="M 44.5,48.5 C 47.6834,54.0591 49.0167,60.0591 48.5,66.5C 47.7377,68.2624 46.4044,69.2624 44.5,69.5C 42.5,69.5 40.5,69.5 38.5,69.5C 38.5,68.1667 38.5,66.8333 38.5,65.5C 44.3335,61.5444 43.8335,58.8778 37,57.5C 29.0087,58.9561 28.5087,61.6228 35.5,65.5C 35.5,66.8333 35.5,68.1667 35.5,69.5C 33.5,69.5 31.5,69.5 29.5,69.5C 27.5956,69.2624 26.2623,68.2624 25.5,66.5C 24.7459,59.9916 26.0793,53.9916 29.5,48.5C 34.4346,45.9012 39.4346,45.9012 44.5,48.5 Z"/></g>
<g><path style="opacity:1" fill="#4c404f" d="M 38.5,65.5 C 37.7321,66.2625 37.2321,67.2625 37,68.5C 36.7679,67.2625 36.2679,66.2625 35.5,65.5C 28.5087,61.6228 29.0087,58.9561 37,57.5C 43.8335,58.8778 44.3335,61.5444 38.5,65.5 Z"/></g>
<g><path style="opacity:0.878" fill="#5c525f" d="M 35.5,65.5 C 36.2679,66.2625 36.7679,67.2625 37,68.5C 37.2321,67.2625 37.7321,66.2625 38.5,65.5C 38.5,66.8333 38.5,68.1667 38.5,69.5C 40.5,69.5 42.5,69.5 44.5,69.5C 43.8888,71.7746 42.5554,73.4412 40.5,74.5C 38.1667,74.5 35.8333,74.5 33.5,74.5C 31.4446,73.4412 30.1112,71.7746 29.5,69.5C 31.5,69.5 33.5,69.5 35.5,69.5C 35.5,68.1667 35.5,66.8333 35.5,65.5 Z"/></g>
</svg>
